/* XPM */
static char *f2d6b1cb1fad4932de7351a376522039LLvxmtnS5a1Fzhu0[] = {
/* columns rows colors chars-per-pixel */
"63 64 250 2 ",
"   c #301400",
".  c #1B2A00",
"X  c #1C3700",
"o  c #2A2900",
"O  c #362800",
"+  c #283A00",
"@  c #3D3602",
"#  c #410A00",
"$  c #491700",
"%  c #472706",
"&  c #592701",
"*  c #4A3C01",
"=  c #563802",
"-  c #5F3819",
";  c #673908",
":  c #683D20",
">  c #1A4B00",
",  c #394602",
"<  c #2B5700",
"1  c #385900",
"2  c #274800",
"3  c #386700",
"4  c #346900",
"5  c #494401",
"6  c #52550E",
"7  c #6A4A0B",
"8  c #70540C",
"9  c #466B01",
"0  c #497400",
"q  c #537904",
"w  c #546E17",
"e  c #716913",
"r  c #56552B",
"t  c #71502A",
"y  c #556A29",
"u  c #597526",
"i  c #587131",
"p  c #696A24",
"a  c #6A7928",
"s  c #76752A",
"d  c #677935",
"f  c #787832",
"g  c #766928",
"h  c #687541",
"j  c #8A5711",
"k  c #8C6916",
"l  c #A57317",
"z  c #865A27",
"x  c #89553A",
"c  c #966829",
"v  c #9A752C",
"b  c #966637",
"n  c #8A7639",
"m  c #8B6A2E",
"M  c #AA7829",
"N  c #A97737",
"B  c #AB752D",
"V  c #937346",
"C  c #9D6C4C",
"Z  c #598706",
"A  c #5D8D1D",
"S  c #769D19",
"D  c #669015",
"F  c #6EAD01",
"G  c #73AC07",
"H  c #6EB201",
"J  c #7ABC03",
"K  c #75B704",
"L  c #76A917",
"P  c #7CB514",
"I  c #5C852B",
"U  c #5C8834",
"Y  c #66882A",
"T  c #6B9428",
"R  c #77992C",
"E  c #6C8B3D",
"W  c #678A36",
"Q  c #7A8839",
"!  c #6B943C",
"~  c #689638",
"^  c #76983A",
"/  c #748A2C",
"(  c #7AA727",
")  c #6CA83C",
"_  c #78A639",
"`  c #79B233",
"'  c #7BC401",
"]  c #7BCD04",
"[  c #6E8D44",
"{  c #758C44",
"}  c #6B9443",
"|  c #6D9C43",
" . c #699747",
".. c #739C44",
"X. c #7C9C43",
"o. c #739B4C",
"O. c #779447",
"+. c #7A9853",
"@. c #6DA545",
"#. c #74A444",
"$. c #7CA444",
"%. c #74AB43",
"&. c #7BAA44",
"*. c #7BAC4A",
"=. c #77A74B",
"-. c #7CB34C",
";. c #7AB447",
":. c #7AA953",
">. c #7DB253",
",. c #77B352",
"<. c #8F8D19",
"1. c #84B917",
"2. c #83AB14",
"3. c #848A3C",
"4. c #91902F",
"5. c #B8872A",
"6. c #BA8738",
"7. c #AD9136",
"8. c #83A73B",
"9. c #89B231",
"0. c #B88D28",
"q. c #C8952B",
"w. c #C38B37",
"e. c #C99636",
"r. c #D39A35",
"t. c #C6912E",
"y. c #DDAC3B",
"u. c #DAA836",
"i. c #DCB338",
"p. c #D0A936",
"a. c #E3AD3A",
"s. c #E5B33B",
"d. c #F0BF3E",
"f. c #85C707",
"g. c #8BDD00",
"h. c #8BD609",
"j. c #92DB0B",
"k. c #87C614",
"l. c #8DD713",
"z. c #96DA18",
"x. c #A2DE1E",
"c. c #8DE201",
"v. c #8CE807",
"b. c #94E504",
"n. c #96ED04",
"m. c #9AED05",
"M. c #95E50B",
"N. c #9AE50C",
"B. c #96ED0A",
"V. c #9AED0B",
"C. c #99E606",
"Z. c #95F103",
"A. c #9AF104",
"S. c #95F00C",
"D. c #9BF10B",
"F. c #96E312",
"G. c #9BE414",
"H. c #9CEA12",
"J. c #9CE51B",
"K. c #9DEA1A",
"L. c #96EB15",
"P. c #9DF212",
"I. c #97F317",
"U. c #A0ED09",
"Y. c #A2F30C",
"T. c #A1EC14",
"R. c #A1E51B",
"E. c #A2EB1B",
"W. c #A2E817",
"Q. c #A2F212",
"!. c #A5F41B",
"~. c #95CB28",
"^. c #99D729",
"/. c #9DD936",
"(. c #8BC329",
"). c #A6DB2A",
"_. c #A2DD33",
"`. c #A4DC3A",
"'. c #A9D837",
"]. c #B3D83B",
"[. c #A6CC35",
"{. c #9CE424",
"}. c #9DE32B",
"|. c #9CE923",
" X c #9DE238",
".X c #A3E424",
"XX c #A4EB24",
"oX c #A2E32C",
"OX c #A5EB2B",
"+X c #A9EA28",
"@X c #A3E333",
"#X c #A3E33B",
"$X c #A7E835",
"%X c #A8EF2C",
"&X c #C1D43E",
"*X c #878943",
"=X c #869848",
"-X c #879B54",
";X c #96924E",
":X c #B98A47",
">X c #B0904D",
",X c #84A44C",
"<X c #83AB4B",
"1X c #87A747",
"2X c #87B44A",
"3X c #87A854",
"4X c #94A957",
"5X c #84B353",
"6X c #89B656",
"7X c #93B657",
"8X c #93A74E",
"9X c #B0AC4B",
"0X c #93B164",
"qX c #A2BC61",
"wX c #B88162",
"eX c #C28E45",
"rX c #CB994E",
"tX c #DBA848",
"yX c #D7A956",
"uX c #D0AF52",
"iX c #E3AB46",
"pX c #E8B546",
"aX c #F1BC49",
"sX c #E9B756",
"dX c #F2BD59",
"fX c #E1A753",
"gX c #CC9865",
"hX c #D5AE68",
"jX c #E8B866",
"kX c #EBB86B",
"lX c #97CA52",
"zX c #A4DC43",
"xX c #A8D747",
"cX c #B5D848",
"vX c #B9CB54",
"bX c #AAD655",
"nX c #B7D658",
"mX c #B3C94E",
"MX c #9EE243",
"NX c #A9E544",
"BX c #B1E14D",
"VX c #98C563",
"CX c #AFD16F",
"ZX c #F7C557",
"AX c #F4C24F",
"SX c #FDCA67",
"DX c #F4CB72",
"FX c #CFCA61",
"GX c #E2AF85",
"HX c #F6C985",
/* pixels */
"5X5X2XlXxXzXzXNXNXNX`.#XNX#X#X XMXNX X XMXMXNX/.NX`.NXzXbXbXCXCXCXCXCXCXCXCXCXbXbX#X$X$X$X#XMXMX XNX X X_.#X#X@X#X#X#X XNX#XNX",
"R _ ( 9.9.9.(.~.`.'.@X#X^.^.OX}.}.}.OX XOX X_./.NXNXzXzXbXnX1 I / / O.^ f 1 2 nXxX`.$Xz.oXOX$X}.}.}.}.OX}.OX}.{.}.@X}..X{.@X^.",
"( L L L L P P k.1.^.z.J..X.XF.E.V.M.F.G.L.}.#XNXzXxXxXnX< Y X. .} Q E { +.=X/ 9 xX`.OX|.M.H.V.T.C.N.!.F.H.H.V.P.H.G.H.C.U.N.E.",
"L L G F F F F H K K ' f.h.j.W.W.T.W.W.+X$X#X< 3 q q 1 1 R X.! [ I } [ W W E ^ 8.Z `.}.J.!.W.b.C.!.V.V.V.n.A.n.A.m.D.m.m.m.U.C.",
"G G G K K F H H L F F K F f.f.f.^.).`.[.xX0 T <X_ $.1X2XX.Y  . . .U o.[ { [ u ~ ( Z MX/.@X)..X+XN.T.V.V.V.n.D.S.n.A.m.m.m.m.C.",
"P K J J J J J J K ' J J 1.J 1.1.9 9 0 q q ^ ^ E E } ! W }  .:. .@. . . .o.E E T T _ q Z Z Z 3 `.).R.E.H.B.S.v.I.B.m.A.m.Y.n.V.",
"^.z.l.h.j.l.l.h.l.l.h.z.^.9.3 D R ,X8X=X4X{ [ o.o.} o.} } O.+.o.@.,.,.@.| | | ~ I ^ _ T R _ ( T 3 _..XM.I.S.L.I.B.A.n.A.C.P.B.",
"+X.XR.G.H.H.V.L.|.|.E.{.`.9 R ,XO.[ E { { { } +.o.o.=.o.} 3X+.-X:.,.=.@.@.#.| ~ ~ U W W Y Y Y ^ ( < oXK.K.v.!.v.n.n.m.n.P.B.n.",
"+XXXT.U.n.n.n.D.B.P.T..X`.( ^ [ o.[  .o.} ! ....#.=.5X#.X.;X;X;X:.<X*.&.%.%.@.@.~ ~ U  .! I W Y R D /.XXM.P.n.m.A.A.m.m.m.D.Z.",
"+XF.V.V.Y.n.A.A.V.V.W.oX0 _ E +.[ o.@.@.*.%...=.=.*.-.*.8X3.;Xn Q ,X$.1X>.lX-.~ ~ @.@.o. . .~ U I 2X0 oXK.H.V.m.Z.A.m.n.m.m.A.",
"XXXXV.U.b.D.A.n.H.F.R._.Z 1X[ [ +.o.o.,.,.=.,.=.>.>.*.*.,X3.>Xm f ,X<X$.VXCX6X&.&.=.=.o.o.o. .U W T D zX}.W.U.C.A.D.Y.D.m.m.m.",
"%XK.H.m.D.n.m.V.K.{.$XzXZ 1Xh +.+.-X=.5X>.>.>.>.,.>.-.5X1X3.m p =X*.,X<X2XVX8.2X2X%.#.#.@. .} } E W ^ < `..XW.T.C.V.H.H.C.m.m.",
"XXJ.V.m.A.m.V.H.|.#X/.Z 8.=XE -X=X*X=X6X*.>.6X,.5X,.,.=.*.8X;X;X=.*.=.,XX.1X8X2X<X` _ _ %.! ! ! U U ! T 3 ~.z.U.L.L.L.L.V.V.Y.",
"E.!.V.V.b.Y.V.J.#X> D 2XT X.E Q V ;XQ =X<X*.5X5X>.:.>.,.<X<X4X-X=.,.=.:.1X=X=X8.8._ _ ` &.) ^ ! I ! I _ q 1.1.h.h.h.l.v.F.M.N.",
"%XG.V.m.Y.b.V.XXNXA _ W +.{ O.;XV >Xf 3.4X5X$.6X*.*.;.-.2X%.5X#.;.%.%.$.8X3.n 3.1X_ %.) ) %.) ) ~ W W W T 9.G H K ' ] ] ] g.g.",
"XXE.V.U.m.V.T.%X4 ;. .[ [ -XO.-Xn V s =X8X5X5X*.<X2X<X2X;.-.*.*.) %.;.,X*X*X4Xp =X^ -.) ) ;.) ^ ~ W I ! ^ 3 9.~.] ] ] ] f.f.h.",
"OXK.Q.b.V.V.W.@X/ ^ !  .o.[ -X;X;Xn ;X4X*.>.=.4X4X3.>X4X5X=.>.-.%.-.&.X.;Xg V s =XX._ 2X~ ^ 8.3.X.W ! Y E ~ 2 xX}.F.B.B.M.N.N.",
"OXJ.V.Q.V.G.R.'.8.^ X.[ o.u f f ;X7X8X7X5X*.6X,X4.;Xs ;X3X>.*.%._ _ %.<X4X*X{ 3.3.8._ &.-.1X3.Q O.E I W W 3X^ > /.F.H.C.V.Q.H.",
"%X|.S.n.Q.J.$X9 8.{ E +.3Xd d *X3.3.1X<X_ ;.6X8X3.;Xf 3.3X-.) ;.;.` ;.*.-X,X$.8.9.` _ &.X.*X;Xb d O.o.I U ^ 1XZ NX}.F.P.V.m.V.",
"}.|.v.P.L.z.xXT VXE [ +.{ { { ;XQ { ,X<X2X2X&.8X3.s f =X5X-.;.%.` ;.%.%.=.=.2X8.2X` ` ^ ,XQ V b d O.[ U ! W 8.8.< NX|.L.V.V.V.",
"$X|.P.n.!.$X< 1X4XO.E } 3X{ +.{ d Y 5X6X-.lX2X2X8X8X=X4X5X*.lX;.` ;.;.;.-._ 8.` 9.9.lXVX3XO.n f { -X~ ~ I U 1X8.3 BX{.Q.C.m.V.",
"}.{.B.n.H.^.9 3XqX^ } O.O.,X4X4X8X$.-.%.lXVX2X1X3X8X8X4X=.6XVX7X2X` -.) _ _ ` 2X;.<XCXCX<XX.=X=X{ { ~ W I &.R R 0 zX{.M.D.D.V.",
"$X%XV.D.T._.q =X^ 3X! | o.X.=.3X5X5X;.6X2X2X7X2X5X>.6X7X4XqXX.^ 7X7XVX5X$.1X1X_ %.;.,.,.%.*.$.3XO.| T A Y 1XY 4.0 /.XXD.m.b.U.",
"OXK.Y.b.T.oX9 3XY 6X<XW ! #.#.@.6X*.-.-.&.7X7X5X>.5X6X7X0X=Xp p p Q X.0X7X2X2X#.;.,.,.@.) &.&.#.} ~ T A R 8.w 8.4 #XF.n.A.m.Q.",
"+XR.m.m.N.oX1 ( R I <X6X .o. .o.#.%.-.*.<X5X$.5X-.VXlX#.^ e g s e e p ^ =X7X&.<X-.;.@.@.) ) ~ #. .~ Y R 1Xa =XA NX{.V.n.A.m.m.",
"XXT.V.C.!..X[.Z _ u Y +.0X:.6X>.>.| ~ %.5X<X6X2X%.VX<Xa e m uXuX>X7.g p a 3X2X1X_ %.@.) ~ ~ W ~ ~ ~ #.3Xa ;XY >  XL.n.Z.m.U.m.",
"E.T.V.D.M.K.@X/.Z 2XW d h [ +.[ 0X .~  .=.5X>.>.6X7X/ s 4.uXDXFXuXFX4.g p 3.4X1X_ 1X_ ^ ;.I ) 6X,.:.[ y -Xa 2 xX|.S.Z.A.U.C.U.",
"E.H.V.D.B.H.{.@XbX9 1X} i y i y +.:. . ...5XVXVX6X,Xs >XDXHXDXsXp.p.yX>Xe p 8X4XqX1XVX~ Y Y $.~ u i y y =Xq bX`.L.v.S.Z.U.U.m.",
"%XI.V.C.P.v.I.z.^.[.Z ^ u i y h d -X:.+.[  .o.d W p wXhXHXHXkXjXZXsXtXeX4.p p s Q =XX.W W ! =.u y 4 y U R < NX{.S.Z.V.m.U.C.m.",
"|.XXW.T.C.v.] F.^.~.1 8.I 6 y y i i +.:.0X0X+.[ r 6 C C wXHXkXB M tXtXe.N v g p r f W W ^ ,Xd 2 y u u _ Z `.x.V.S.n.n.V.C.U.m.",
"%X.XG.g.g.c.v.v.z..X].q R $.-X-X[ r 1 h h i h r @ t C $ & GXgX$ & yXtXt.5.7.z t * -X4X4X=Xy , r -X=X( 4 `..XV.Z.Z.Z.n.m.V.T.V.",
"@Xz.h.j.c.B.v.S.H.J..X'.< q 0 9 -Xy r 1 @ r r r O t C     GXx # # gXyXe.5.M m z   6 V 6 , 5 w E / 2 xX$XR.H.V.n.Z.n.m.V.W.G.V.",
"^.l.j.b.n.Z.S.S.V.G.R.R.@X/.`.xX9 =X^ u w d i - % x C # # GXC # # eXfXtXM M B t   x V 6 Q ^ _ Z xX_..XR.J.H.V.A.n.n.m.D.V.H.H.",
"z.z.M.B.m.D.B.C.m.D.G.W.J.XXXX@XNX< q R D Q ;Xt $ C C & ; HXgX; ; gXyXt.5.5.c b & C 6 @ 9 0 < xXoXR.W.W.V.H.V.n.D.S.S.B.V.b.b.",
"}.{.K.B.B.V.B.n.U.m.C.Q.F.H.N.E.z.$X'.zXcXmXw *X- x gX:XgXHXkXeXr.sXtXr.t.M c c - = O mXmX[.#XoXR.H.G.T.H.V.B.n.n.v.b.c.b.g.g.",
"$X|.K.V.n.S.B.B.m.D.Y.C.N.V.T.N.E.W.R..X.X]., 8 7 b :X:XrXjXSXdXiXaXu.q.t.B v z ; % 9X[.~.l.z.l.j.j.j.b.c.v.c.c.c.c.c.g.g.g.b.",
"}.|.L.D.A.A.Z.B.A.n.m.m.Q.C.V.Q.C.U.N.W.j.$X<.8X>XwXrXyXrXeXdXaXa.a.a.t.w.6.b b : o [.x.l.j.j.b.g.g.g.g.g.g.g.g.c.c.b.b.C.V.V.",
"XXK.V.A.A.A.Z.Z.n.A.m.m.b.Q.V.m.m.m.m.V.T.).Z <.4.:XeX6.w.B sXaXd.a.a.r.w.N c x :   cXx.N.Q.V.B.V.N.C.B.b.v.B.B.v.B.C.V.V.V.V.",
"XXW.V.m.n.Z.n.Z.A.m.n.m.m.V.n.D.D.m.m.C.T.R.].mX5 k k j c B aXdXa.a.a.r.B c ; b - O ^.K.H.n.C.V.V.V.D.B.B.S.V.S.D.S.V.V.V.V.V.",
"XXG.T.m.n.A.Z.A.Z.n.m.m.D.B.V.n.D.S.n.S.T.N.+X].8 rXyXjXkXDXSXsXaXa.iXeXl N z b t o ].K.V.n.C.V.n.m.n.S.S.V.S.B.S.V.V.V.C.V.U.",
"+XH.V.V.m.Z.B.S.D.n.Z.Z.m.m.A.n.S.n.D.B.M.E.x.&X8 uXtXDX:XyXSXdXa.pXiXl tXkXb b t O '.J.D.n.D.V.n.A.A.Z.B.S.D.B.B.D.V.V.V.m.m.",
"%XK.T.D.m.m.n.B.Z.n.m.A.A.n.m.Z.n.D.S.P.H.XX).&Xe tXsX:X& ; sXsXiXa.iXt.e.yX6.z 8 * cXOXC.m.D.n.n.A.S.n.Z.S.S.S.B.B.V.V.m.V.U.",
".XJ.H.V.n.D.S.D.n.A.n.m.B.B.V.B.m.n.n.C.F.R.].+ <.uXfXB   $ kXdXu.a.a.5.l l N ; g 5 nX^.E.m.n.A.m.n.A.n.m.D.B.B.V.B.V.D.V.V.V.",
"+XK.H.V.A.S.B.S.S.n.D.B.H.B.L.D.m.m.A.Y.V.+X[.5 v yXjXc   & jXpXpXi.a.u.M j j z b 7 . xXR.V.D.n.n.m.n.m.S.n.A.S.B.D.V.V.V.m.C.",
"+XJ.H.V.m.n.Z.B.Z.V.V.V.H.L.H.L.m.A.n.n.C..XcX6 7.sXdXB $ j FXZXi.s.a.r.r.5.N N c 8 o cX}.H.P.S.D.m.m.D.m.V.A.n.D.n.A.V.m.N.m.",
"OXJ.H.V.m.m.B.S.V.n.m.V.H.V.L.V.m.A.Z.Y.V.x.].6 9XsXdXdXeXkXSXAXpXs.s.u.t.w.B c v 8 @ vX).F.B.I.D.V.m.V.V.A.n.m.n.m.B.Z.V.m.V.",
"@X{.K.H.V.m.B.V.n.A.A.m.V.V.V.B.m.n.n.m.V..X&Xk 6.sXdXSXSXSXSXAXpXy.i.u.r.w.B M c j 5 vX@X|.S.v.V.V.V.m.m.m.m.A.n.A.A.V.V.B.V.",
"(.k.l.j.M.L.H.P.V.V.m.V.m.m.m.V.B.A.Z.n.XX).+ 4.tXpXZXSXSXSXSXZXpXs.s.u.r.w.B B c k 5 vX).J.L.S.B.V.m.m.V.m.m.V.Z.n.n.m.m.m.V.",
"P P K ' f.l.l.z.K.K.H.M.D.m.n.m.m.Y.V.j.@XcX5 7.tXaXZXZXSXSXZXZXpXa.a.a.r.5.5.M c c 7 O ].J.I.v.S.S.A.m.V.m.V.A.Z.Z.n.A.m.m.m.",
"P L G H K J J ' k.h.F.L.N.C.V.V.U.C.V.%XxX. 8 eXtXpXZXZXSXZXZXZXaXiXa.a.p.0.5.M N b t   vX`.L.I.S.n.m.U.V.D.m.n.Z.Z.n.m.m.m.V.",
"` L L G F F F H H ' K ] l.M.j.K.G.E..X'.nX. z yXtXAXSXZXZXAXAXAXpXpXa.a.r.t.6.B B b b & o vX'.J.m.A.m.U.V.C.D.Z.Z.Z.Z.A.m.A.V.",
"( L K G F H F H H H H K H K f.k.l.~.].vX@ & 7.tXsXsXAXZXAXAXd.pXpXa.pXa.p.q.w.6.c b x : O O nX].E.C.m.m.D.P.v.S.Z.Z.n.n.n.Z.n.",
"(.P K 1.J f.1.' ' J ' ' ' J ' k.k.(.o @ 5 7 eXtXiXsXpXpXd.d.pXAXa.a.s.a.r.r.w.5.M B b x $ 7 @ . '.XXH.N.H.B.B.B.A.n.M.V.S.B.B.",
"}.^.z.z.j.j.j.j.j.z.j.l.L.F.h.^.lXX 6 7 ; N tXtXpXpXaXs.s.s.s.i.a.i.u.u.u.r.q.5.M B c b t % r = nX).R.U.B.B.D.D.A.m.V.V.V.V.D.",
"$X|.K.W.W.T.C.U.V.G.E.T.M.N.E.@XbX+ 7 ; N rXrXiXpXa.a.s.i.a.i.i.i.i.i.a.iXu.r.r.r.B B b c 7 % 5 . cX.XC.D.A.n.m.m.U.m.V.m.V.m.",
"%X|.H.V.V.m.m.m.m.D.H.V.V.U.F.oXnXo 5 N gXeXB tXaXa.iXiXa.a.i.y.i.i.tXa.fXiXa.a.u.r.j j v c z % . nXz.Y.Z.n.A.m.U.m.m.m.V.m.m.",
"}.|.L.V.V.m.m.n.m.V.B.B.n.B.L._.nX6 7.gX:Xj eXSXpXpXfX6.6.0.l iXAXiXtXM B l iXy.i.p.0.j k :Xb g , xX.XV.Z.Z.n.m.U.C.V.V.D.Z.V.",
"%X|.H.V.V.m.Z.m.Z.B.B.V.C.S.L..XX e 4.v j :XFXAXfXtXyX8 8 8 l pXZXsXyXk & 8 6.p.p.p.uX9X7 7 g e 5 '.+Xm.Z.A.n.n.m.m.V.V.B.B.n.",
"%X|.L.B.Z.Z.Z.Z.Z.A.Z.S.n.S.B.|.xXX , O e jXFXuXuX7.s * o * k uXDXjXuX7 O o 8 <.e.uX9XjX;XO o X xX@Xj.Q.n.S.P.b.m.m.V.D.L.S.S.",
"OX|.H.V.V.m.m.m.m.n.n.Z.m.A.V.G._.'.cXmXe 9X7.<.6 , o mXvXvX5 7.DXjX9X@ mXnXmX. o 6 e k 7 o 9X9X~.z.F.T.I.L.L.P.m.m.V.H.L.S.S.",
"OXOXL.P.V.V.V.m.m.V.V.V.m.m.V.H.N.W.x._.+ 2 o ].BX'.).).).).cX6 9X9Xq ].).+X).cX9.<.2.2.8.<.2.P 1.f.f.f.l.z.l.M.N.H.H.H.H.H.L.",
"MX}.K.K.H.G.W.H.H.G.K.H.H.H.K.J.T.G.E..XxXcXcX'.)..X$XXX+Xz.].cX, , mX#XK.F..X).9.( 2.4.2.S L G F F J 1.1.2.k.k.l.z.z.x.J.K.XX",
"NX`._.oX}..X.X{.oX{.}.{..X{.oXoX.X}.}./.#X'._._.$X$X^.).{.$X/.zXcXnXMX X}.}._.NX9.( S S ( ( S ( ( ` L S L 2.L L P P 1.k.~.~.^.",
"BXzX`.@XoX_.@X}.oX@X X}.@X}. X@XoX XMXzX_.$XoXoX/. X@X X X^.MXMXbXxXMXMX^.#X`./.9.( ( L R _ ( R R ( R 8.R 8.( R L L L L 2.1.(."
};
