/* XPM */
static char *b4915408332d4890d7ee5d886a3bcd0co0u5yUZR5aLvEF9H[] = {
/* columns rows colors chars-per-pixel */
"52 63 235 2 ",
"   c None",
".  c #37070F",
"X  c #330B14",
"o  c #3A0D13",
"O  c #351315",
"+  c #3B1518",
"@  c #2E0B10",
"#  c #3B2A1A",
"$  c #3D1421",
"%  c #3C2821",
"&  c #421414",
"*  c #441B1B",
"=  c #481B19",
"-  c #521E18",
";  c #400E13",
":  c #4A251B",
">  c #52231B",
",  c #542A1D",
"<  c #582818",
"1  c #46381D",
"2  c #5F301E",
"3  c #64341D",
"4  c #612F1F",
"5  c #451D21",
"6  c #572B23",
"7  c #4C3D25",
"8  c #473627",
"9  c #522F28",
"0  c #643526",
"q  c #6A3A27",
"w  c #703E29",
"e  c #3C4326",
"r  c #4B411C",
"t  c #77491E",
"y  c #48492D",
"u  c #544626",
"i  c #48562F",
"p  c #5D562A",
"a  c #464A38",
"s  c #485538",
"d  c #585736",
"f  c #5D4E34",
"g  c #6B4327",
"h  c #744425",
"j  c #73422B",
"k  c #7A4926",
"l  c #65582A",
"z  c #665A37",
"x  c #4D653B",
"c  c #5C6B3E",
"v  c #556B39",
"b  c #587439",
"n  c #6B6333",
"m  c #696839",
"M  c #776A3A",
"N  c #687739",
"B  c #76793A",
"V  c #6D6E2F",
"C  c #4E5A41",
"Z  c #536C44",
"A  c #586A41",
"S  c #597643",
"D  c #666741",
"F  c #736D41",
"G  c #647C41",
"H  c #607644",
"J  c #757642",
"K  c #85522D",
"L  c #8D5A2C",
"P  c #895829",
"I  c #925C2E",
"U  c #90562C",
"Y  c #8A5932",
"T  c #995C37",
"R  c #834E2E",
"E  c #9C662D",
"W  c #9A682C",
"Q  c #886638",
"!  c #946233",
"~  c #9B6432",
"^  c #9C6B33",
"/  c #9D643A",
"(  c #9B7437",
")  c #8D763B",
"_  c #A6722E",
"`  c #A26C32",
"'  c #A16839",
"]  c #AA7532",
"[  c #AE7B33",
"{  c #A87639",
"}  c #B17E33",
"|  c #B37E3B",
" . c #AC483D",
".. c #BA4944",
"X. c #AF5846",
"o. c #827940",
"O. c #997946",
"+. c #8C6F41",
"@. c #A56847",
"#. c #AB7842",
"$. c #B77049",
"%. c #D6474A",
"&. c #C94E47",
"*. c #E3544B",
"=. c #C76A48",
"-. c #D86F49",
";. c #CA6350",
":. c #EF6D53",
">. c #5C853B",
",. c #5E8A3C",
"<. c #5F8836",
"1. c #628C3D",
"2. c #698C39",
"3. c #7D8A3C",
"4. c #7B8539",
"5. c #65933E",
"6. c #6B943C",
"7. c #69993C",
"8. c #73963B",
"9. c #74993C",
"0. c #7B9C3D",
"q. c #79953E",
"w. c #7BA43D",
"e. c #6BA03F",
"r. c #5F8443",
"t. c #648C43",
"y. c #6A8E45",
"u. c #6A8E4A",
"i. c #648645",
"p. c #748A43",
"a. c #659342",
"s. c #6A9445",
"d. c #6B9C43",
"f. c #6C934A",
"g. c #6E9A4A",
"h. c #679545",
"j. c #749443",
"k. c #7C9A44",
"l. c #709449",
"z. c #729D4B",
"x. c #7B9C49",
"c. c #7C9346",
"v. c #6DA342",
"b. c #6FA943",
"n. c #72A543",
"m. c #74AB44",
"M. c #7AAE44",
"N. c #73A34B",
"B. c #7EA34B",
"V. c #76AC4A",
"C. c #7AAD4D",
"Z. c #7DB244",
"A. c #7BB24D",
"S. c #77B04B",
"D. c #7EB350",
"F. c #818C3A",
"G. c #84983C",
"H. c #A88339",
"J. c #B58234",
"K. c #BC8A35",
"L. c #BD8A3A",
"P. c #B78438",
"I. c #B78734",
"U. c #86A73D",
"Y. c #95AB3C",
"T. c #C18D38",
"R. c #C59334",
"E. c #CB9A36",
"W. c #C89639",
"Q. c #D19E39",
"!. c #C6952F",
"~. c #D5A235",
"^. c #DEAA35",
"/. c #DAA63A",
"(. c #DDAA3B",
"). c #D8A437",
"_. c #E3AD36",
"`. c #E2AE3A",
"'. c #E5B037",
"]. c #E5B13C",
"[. c #E9B43C",
"{. c #848D44",
"}. c #858245",
"|. c #829C4B",
" X c #879748",
".X c #978649",
"XX c #B88746",
"oX c #B18C47",
"OX c #84A245",
"+X c #84A34B",
"@X c #8BA44C",
"#X c #8BAC4A",
"$X c #88A847",
"%X c #90A849",
"&X c #82B344",
"*X c #8BB442",
"=X c #82B54B",
"-X c #8BB04B",
";X c #8BBB4B",
":X c #94BC46",
">X c #94BB4B",
",X c #9ABC49",
"<X c #82B552",
"1X c #8CBC5B",
"2X c #98BE50",
"3X c #92BE61",
"4X c #C38D44",
"5X c #CD9C42",
"6X c #C89646",
"7X c #D29F55",
"8X c #DCA941",
"9X c #D7A344",
"0X c #D7A758",
"qX c #E4B243",
"wX c #EAB543",
"eX c #EDB945",
"rX c #EDBA4B",
"tX c #E7B84B",
"yX c #F2BE4C",
"uX c #EBBC54",
"iX c #E7B75B",
"pX c #EAB54D",
"aX c #EABA62",
"sX c #97C14A",
"dX c #A0C248",
"fX c #ABD077",
"gX c #99C467",
"hX c #EEC35E",
"jX c #F5C252",
"kX c #FBC95C",
"lX c #F7C55B",
"zX c #F4C04D",
"xX c #FDCC65",
"cX c #FBCA66",
"vX c #FFD069",
/* pixels */
"                                                                                                        ",
"                                                u V B F.{.F.B p #                                       ",
"                                            1 B |.k.s.2.y.s.j.OXF.p                                     ",
"                                1 p n n u 7 F.|.t.i.t.t.1.1.i.i.8.OXM                                   ",
"                              l {.+Xx.+XOX%Xz.t.s.h.h.h.s.s.a.t.i.1.|.V                                 ",
"                    u l n p z |.s.u.a.u.y.l.a.s.d.g.g.g.g.d.f.s.a.t.2.G.V V B V u                       ",
"                7 B  X$XOX$X<Xu.t.s.g.f.g.u.h.g.z.N.v.N.N.v.v.d.f.a.,.j.w.6.6.0.G.4.r                   ",
"              u  XOXs.u.t.y.h.u.f.z.z.N.N.z.d.N.N.N.V.V.V.b.N.N.d.h.a.<.r.1.,.>.<.9.q.r                 ",
"              {.k.u.f.f.g.g.g.f.g.N.N.N.C.N.N.N.|.|.V.S.V.V.m.m.N.h.a.5.a.a.5.,.,.<.8.4.                ",
"            d @Xu.f.f.z.g.N.N.N.N.N.C.C.A.C.C..X-.X.{.V.V.m.D.1XC.v.d.v.d.d.d.5.5.,.>.U.p               ",
"            J +Xf.f.z.z.N.C.C.C.V.S.A.C.A.C.C.$.:.%.+.V.V.V.gXfX<Xn.m.m.m.v.v.h.a.5.r.9.B               ",
"            B x.u.f.z.N.N.C.C.A.S.D.C.A.S.A.S.O... .{.V.V.C.<X3X$X:X&Xm.w.b.v.v.a.t.<.2.G.1             ",
"          m @Xx.u.g.z.c.B.D.C.A.D.C.S.D.A.S.S.V.k.x.M.m.V.m.m.m.V.*XZ.n.n.m.b.v.7.a.r.>.8.F.1           ",
"      % p.@Xl.f.f.f.O.;.@.B.D.C.S.D.D.S.S.S.A.S.M.S.V.V.m.V.m.b.m.m.m.m.b.m.b.e.v.5.,.,.>.9.V           ",
"      B OXu.f.g.g.c.;.:.&.{.D.C.D.D.S.C.A.A.D.M.A.V.m.V.V.V.V.{.( }.m.m.m.n.b.b.v.v.5.5.<.5.4.          ",
"    p @Xy.f.f.z.N.z.@.%.X.z.D.D.S.S.S.D.S.A.C.A.V.V.V.V.m.V.k.=.:...q.b.m.m.b.b.v.e.7.,.<.2.G.u         ",
"    p.x.f.f.g.f.f.S.+X}.|.=XA.S.S.D.C.z.+XD.D.C.C.C.V.V.V.m.k.X.*...j.m.m.n.b.b.b.v.7.5.,.>.7.3.#       ",
"     Xl.f.f.l.m ) J N.=XA.A.A.S.D.S..X;.X.x.C.C.C.C.V.V.V.V.M.}.+.3.n.m.m.m.b.v.}.o.d.a.,.<.<.U.F.#     ",
"  u  Xl.u.z.z.N Q H.F.p.C.A.A.A.D.C.;.:.%.}.A.C.V.V.V.S.V.V.m.V.m.w.S.b.m.m.N.H.-.&.Q d.a.,.>.9.Y.V     ",
"  ) 2Xu.u.z.z.p.( H.( H.+XA.A.A.C.D.O.&.X.x.S.C.S.S.S.V.V.m.m.V.S.U.:Xw.m.n.n.@.*.%.Q d.5.<.>.6.w.U.1   ",
"7 @X,Xf.f.f.z.z.j.l.N B A.A.=X,X<XD.A.+XB.A.S.D.sXZ.C.C.Z.S.m.m.S.Z.Y.Z.sXgXS.w./ T p.d.5.,.>.8.w.w.p   ",
"z +X-Xx.f.f.z.N.C.<XA.N.A.=X;XdX<XD.A.D.D.A.D.<XdX:XA.M.S.m.S.m.Z.Z.m.Z.fXfXS.e.n.0.v.d.d.,.>.0.9.0.l   ",
"z B.z.#Xs.f.z.N.N.C.D.A.A.=XA.=X1XD.D.D.A.D.D.sXk.k.:X>XsXZ.m.S.S.w.w.M.D.D.S.S.m.b.e.h.a.,.>.U.1.0.l   ",
"z +Xi.#X+Xu.s.z.N.B.<XA.A.D.D.<X1XD.A.<X;X;XsX|.c A S 1.0.sX&XZ.S.m.S.Z.m.b.e.Z.w.b.e.a.a.>.9.n.b G.u   ",
"8  Xi.i.#X#Xf.g.g.v.N.V.C.C.C.=XD.D.A.;X,X+Xu.Z J Q M z D j.$X:Xw.S.S.m.m.w.e.e.v.d.h.a.1.9.U.b 9.B     ",
"  F +XS S B.-X-X$X-X#Xf.g.N.C.A.D.D.A.sX+XS D ) 0X8XT.| M c b Y.Z.V.m.w.m.b.e.7.5.7.5.7.w.U.2.0.3.#     ",
"    J @Xl.H H u.l.j.-Xl.f.g.V.A.A.A.D.sXp.) #.0XcXyX]._.} Q m j.;XM.m.m.e.e.e.,.7.Y.U.w.8.v j.B #       ",
"      z  Xu.Z Z Z A k.@Xu.h.z.-XsXsX>Xk.F 4XaXvXcXrX`.`.).K.Q v k.:X;X*XsXe.5.<.w.6.b v v x k.l         ",
"        F c.Z Z Z Z S |.$Xf.f.u.f.u.G A ( (.lXcXxXyX[.`.(.W.` n v G j.j.s.6.<.2.U.b v x x b  X8         ",
"        u @XG C C Z A A c.#X#X#X+XS s g XX~ XXcXiX' } `./.E.P.^ Q z d >.1.1.9.U.N e v b b |.m           ",
"          z  X X{.@Xp.s s c H H Z C 8 j $.- 6 aX4X; < )./.W.P.{ E R 1 0.Y.Y.q.v e i w.{.{.z             ",
"            9 D z z  Xc s s e C C C 8 k T . o 0X@.. ; R._.W.P._ E L * u _ t e e x 3.B %                 ",
"                    z  Xp.S A H m a 5 K @.X & 0X#.o & R./.E.I.] ` U = L ^ z 3.F. XM                     ",
"                      8 F O.}.o. XC % ! XX> 0 aX7X> 3 /._.W.K.] ` U < ^ q 8 f f 8                       ",
"                                z  X8 ^ /.XX0XvXcX4XW.`./.E.K.[ ` T 3 0 5                               ",
"                                % z g Y | L.6XiXkXyX[.'._.E.K.[ ` I 0 $                                 ",
"                                #.4X6X6X5X9X9XXXaXyX'.'._.W.K.} ` ~ w +                                 ",
"                                Q { { XXXX4XXX{ iXyX[._._.E.T.} ~ P j o                                 ",
"                                    6 Y I L Y $.uXyX[.'._.E.[ K k W 3 O                                 ",
"                                    j 5X8XpXaXcXxXyX'.`._.T.E } P ! k +                                 ",
"                                    R 9X`.uX4X7XxXeX].'._.J.5XrX^ ^ K &                                 ",
"                                    Q 9XwX6X- 0 uXzX].'._.J.5X(.J.L k >                                 ",
"                                  & { 8XwX' . = iXrX].'._.K.W ] ^ h K 0                                 ",
"                                  > #.8XwXT . > iXyX].]._.~.[ L R I ~ j X                               ",
"                                  0 4XqXyX#.+ K lXyX].].(.~.W.J.[ ` ~ k O                               ",
"                                  k 5X`.yXaXXXiXkXzX[.'.].).R.J.[ ` ' K *                               ",
"                                  ! Q.qXyXvXvXxXkXzX[.'.'.).E.K.} ` E U 6                               ",
"                                & { 9X[.lXcXvXxXkXzX'.'.'.).E.K.} _ E T 0                               ",
"                                6 4X`.wXlXxXxXxXkXzX'.].'.^.E.K.} ] ` T w o                             ",
"                              X j 6X/.wXlXxXvXxXlXzX[.'.].^.~.L.J.] ` ^ K &                             ",
"                              o ! 9X`.yXjXkXkXlXzXzXzX'.'.^.~.K.L.} ` ~ I > X                           ",
"                            5 6 P.8XqXeXyXjXjXjXzXzX'.].].^.~.!.K.} _ E I q - 5                         ",
"                        X 4 0 j 6X(.].wXeXeXeXeXzX].^.'.'.`.).!.T.I.] ` ~ K - q , @                     ",
"                      + j j 4 | ~.(.].qX[.[.].].].^.^.].^.^.(.~.!.K.} _ ` T h > h 0                     ",
"                      9 w 0 { 5X9X(.].].].].`.`.(.].].(.`.^.^.^.~.E.!.I.] E ~ h > < O                   ",
"                      $ q { 5XK.( 8XwXqX(.(.8X`.(.(.qX].^.^.^.~.^.^.~.!.L P ] E K > @                   ",
"                      j XXQ.T.L XXhXwX].(.[ T.L.[ `.tXqX(._ [ _ ^.^.^.^.!.t W J._ P <                   ",
"                    $ Y #.{ k oXlXtXqXqX8XK h k _ qXhXuX`.P 2 t E.^.^.^.^.!.t t L P 2                   ",
"                      O : * Y uXtXqX8XL.! : $ : P qXhXtX(.k $ * t W !.~.^.'.J.* O O                     ",
"                            I 5XK.^ g : O       : L.hXhXW.,       @ & 3 P W k O                         ",
"                            + : +                 g 7X5Xk                                               ",
"                                                    , ,                                                 ",
"                                                                                                        "
};
