/* XPM */
static char *_370ea89947d4f68a8f3e1256d2e05bfkq1fT4HNwkGfL5fN[] = {
/* columns rows colors chars-per-pixel */
"64 74 243 2 ",
"   c None",
".  c #1D150E",
"X  c #1B1714",
"o  c #22170D",
"O  c #251B13",
"+  c #2A1D14",
"@  c #261D19",
"#  c #2D2116",
"$  c #2D221B",
"%  c #25211D",
"&  c #322315",
"*  c #33251B",
"=  c #35291C",
"-  c #3C2C1D",
";  c #39271A",
":  c #3D311D",
">  c #3C2C22",
",  c #352A23",
"<  c #3D3223",
"1  c #3E352A",
"2  c #292320",
"3  c #432D1D",
"4  c #43261D",
"5  c #43311E",
"6  c #422D23",
"7  c #4A2E25",
"8  c #462520",
"9  c #552C25",
"0  c #433424",
"q  c #4B3425",
"w  c #4A3A25",
"e  c #43352A",
"r  c #4B352A",
"t  c #463A29",
"y  c #4C3B2B",
"u  c #443A25",
"i  c #52332B",
"p  c #533B2D",
"a  c #5A3D2E",
"s  c #533A26",
"d  c #4B3B32",
"f  c #543C31",
"g  c #5B3E33",
"h  c #5B3632",
"j  c #64352E",
"k  c #613D35",
"l  c #6A3B34",
"z  c #4E412B",
"x  c #55432D",
"c  c #5A452E",
"v  c #4D4231",
"b  c #544332",
"n  c #5D4335",
"m  c #564A34",
"M  c #5B4B34",
"N  c #5D4539",
"B  c #5C4C3A",
"V  c #55473A",
"C  c #5E513A",
"Z  c #624335",
"A  c #624B35",
"S  c #6A4B36",
"D  c #624539",
"F  c #6A453A",
"G  c #644B3C",
"H  c #6A4C3D",
"J  c #6A4236",
"K  c #734C3C",
"L  c #76473B",
"P  c #625236",
"I  c #64533C",
"U  c #6B523C",
"Y  c #6B593C",
"T  c #695234",
"R  c #72533D",
"E  c #715C3E",
"W  c #7A452F",
"Q  c #6D633F",
"!  c #6D4E41",
"~  c #674E40",
"^  c #744D41",
"/  c #7C4B41",
"(  c #665241",
")  c #6C5242",
"_  c #6C5C43",
"`  c #685B46",
"'  c #735443",
"]  c #7B5444",
"[  c #735C44",
"{  c #7B5A45",
"}  c #755B49",
"|  c #7D5B4B",
" . c #785748",
".. c #765D50",
"X. c #746244",
"o. c #75654B",
"O. c #7B644B",
"+. c #7B6B4D",
"@. c #796647",
"#. c #7D6D53",
"$. c #7C6A55",
"%. c #7E7056",
"&. c #6F6041",
"*. c #564842",
"=. c #894E39",
"-. c #835D4C",
";. c #8B5C4B",
":. c #835747",
">. c #945C4E",
",. c #865E51",
"<. c #804941",
"1. c #83614D",
"2. c #89624E",
"3. c #826E4C",
"4. c #886B4E",
"5. c #97624D",
"6. c #87724D",
"7. c #856352",
"8. c #8B6553",
"9. c #856C52",
"0. c #8C6B54",
"q. c #8C6B5A",
"w. c #896A5A",
"e. c #926454",
"r. c #926B55",
"t. c #936C5A",
"y. c #9A6857",
"u. c #837353",
"i. c #8A7454",
"p. c #8A7559",
"a. c #8C7B5B",
"s. c #86765A",
"d. c #94725C",
"f. c #9B745D",
"g. c #927D5A",
"h. c #9B795D",
"j. c #917B56",
"k. c #A46E5B",
"l. c #A3735E",
"z. c #A0785F",
"x. c #B56A4D",
"c. c #8A7B60",
"v. c #9C7462",
"b. c #9D7B63",
"n. c #947B63",
"m. c #A47563",
"M. c #AC7563",
"N. c #A37B64",
"B. c #AA7D65",
"V. c #A47D69",
"C. c #AA7C6A",
"Z. c #A67669",
"A. c #B47B68",
"S. c #A77669",
"D. c #C67A5C",
"F. c #96835D",
"G. c #9A835B",
"H. c #8E8265",
"J. c #948464",
"K. c #9C8562",
"L. c #9C8965",
"P. c #9A896A",
"I. c #9F8D71",
"U. c #A58166",
"Y. c #AA8167",
"T. c #A38C66",
"R. c #AC846A",
"E. c #A38E6A",
"W. c #AD896D",
"Q. c #A4836B",
"!. c #B2856C",
"~. c #B2896E",
"^. c #BD8A6E",
"/. c #B5846A",
"(. c #A4926D",
"). c #AB956C",
"_. c #AA9266",
"`. c #AE8471",
"'. c #A38A72",
"]. c #B38573",
"[. c #BB8673",
"{. c #B48B73",
"}. c #BC8C74",
"|. c #BF8D7A",
" X c #A49372",
".X c #AD9A74",
"XX c #AD9B7A",
"oX c #A89774",
"OX c #BD9276",
"+X c #B29C74",
"@X c #BA977A",
"#X c #B3906F",
"$X c #B4A27C",
"%X c #BAA47C",
"&X c #BAA57A",
"*X c #AEA37E",
"=X c #C18D75",
"-X c #C18E79",
";X c #C4937C",
":X c #C6967A",
">X c #C48466",
",X c #C2A87E",
"<X c #BB9781",
"1X c #B5A583",
"2X c #BDAB82",
"3X c #BBA985",
"4X c #BDB18B",
"5X c #BCB595",
"6X c #CB9C81",
"7X c #C89982",
"8X c #D09E81",
"9X c #C3AC84",
"0X c #CCA186",
"qX c #D5A78B",
"wX c #C4B38B",
"eX c #CBB48B",
"rX c #CAB387",
"tX c #D4B88B",
"yX c #DAAD95",
"uX c #CDBC92",
"iX c #C9B996",
"pX c #D2BD93",
"aX c #D3BF9A",
"sX c #E4B193",
"dX c #DAC395",
"fX c #D2C39B",
"gX c #D8C599",
"hX c #D3C096",
"jX c #E4CA9B",
"kX c #D7C8A2",
"lX c #CCC1A0",
"zX c #E2CEA3",
"xX c #EEC2A5",
"cX c #EBD3A3",
"vX c #EBDBAC",
"bX c #E5D4A9",
"nX c #ECDCB3",
"mX c #F3D3AA",
"MX c #EEE1B6",
"NX c #F5E6BA",
"BX c #FBD8C1",
"VX c #FAECC2",
"CX c #FBF3C9",
/* pixels */
"                                                          NX  NXNX                                                              ",
"                                                nXVXCXNXNXmXmXcXcXcXcXvX                                                        ",
"                                          kXaXaXjXjXcXcXcXmXjXjXdXtXtXdXdXcXNXNX                                                ",
"                                          3X+XrXaXtXtXrXtXtXdXtX,X,X:X,X&XrXzXNXNXCXNX                                          ",
"                                      bXuX(.T.).,XrXeXtXrX,X,XtX,X).T.T._.E.+XgXvXMXMXvX                                        ",
"                                    NXbX).Y c O.n.#X9XpXrX_.K..X&X%X.XF.G.F.F.i.G.&XgXkXfX                                      ",
"                                kXzXbXwX6.` ` ` X.o.3.u.T.+XT.3.3.L.$X&X(.a.u.&.M C H.*X4XkX                                    ",
"                            fXpXpXaXpX+X3XlXlX3XJ.$.%.o.[ 3.U.G.X.A +.(.&XF.@._ v : : ` H.4XkX                                  ",
"                          fXuXaXuXrXeXwXwX3X(.p.Y v - : < t A X.O._ x x X.F.a.m z < X < V %.4XiX                                ",
"                        uXuXeXwX9X,X%XT.F. XXX1XoXJ.` x - # = 0 M P I M x C ` ` m , $ X 1 m c.1X1X                              ",
"                      wX9X,X3X9X&X_.G.).9XgXzXcXzXeX.Xi.I 0 = $ = u z B M c w > v v $ . $ 1 m H.oX5X                            ",
"                  1X$X+X+X.X3X+XG.G._.,XpXjXcXvXzXeX+X6.m : & o o # : z m M b < % , $ . = t I H.oX4X                            ",
"                (.(.(.(.T.oXK.X.E j.#XtXpXdXgXcXjX9XP.[ q - = $ O o # - t m m V , X O O z H.1X5XkX5XlX                          ",
"              s.%.6.i.i.g.9.@.3.g._.).).).9XgXgX9XK.B & o o . o + + o # - e v b 1 # O $ +.5XnXnXMXVXMXMX                        ",
"            +.X.&.E [ Y &.Y 6.g.G.K.T.&X9XgXzXiXi.s & + + O O O + # # # $ = > > = # C %.H.wXkXvXbXvXMXMXVXCX                    ",
"          +.X.X.@.X.Y _ 6.j.K.T.T.).9XrX%X+Xa.c : - - 3 - 3 3 > > - 8 - ; ; > * # O B iXlX4XaXuX5XhXgXfXMXCXCX                  ",
"          +.p.i.F.3.+.6.F.j.G.G._.).G.6.@.T 5 3 q r x g a a a p s r i r q 6 6 - ; & x I.bX1X'.4X4XwXwXrXhXbXMXNX                ",
"          p.L.T._.+.X.X.E E 6.G.j.6.4.@.c 3 7 s a Z A A A n A B M n n b p p q q r 0 B [  XiXc.i..X$X&X&X&XhXhXjXNXNX            ",
"         Xi.a.(.3.M P P S @.6.@.E 3.@.s q 9 a A U R R R H H G D G D Z A n n p p y q I I 9.K.1X` s.F.*X&X&X4X9X4XjXvX            ",
"        2XF.i.i.Y C M M E T T T E A 5 3 q s A R ] R { { ' R U S S S G Z Z n g p f r I [ ) 9.n.P.Y H.H.*X&X$X$X&X&XdXNX          ",
"        2XF.+.X.P w 5 P A c c T c 3 0 r s c S ' R ;.:.E ] { ' U ' H H G A k k g f p H o.[ 9.+.J.+.P J.P.*X$X(..X+X&XgXvX        ",
"        a.@.X.Y 5 3 5 z 5 x c s ; 3 q s A H R ] E 1.1.{ { ' R ' U U R S S A Z g g g n ' 9.O.o.O.H.Y +.J.P.&X*X(.(.P.eXkXzX      ",
"        Q P M P 5 & 3 w s c 5 3 3 s Z T { 0.4.r.z.r.8.2.-.R ' K K R H S S Z k a Z g n A +.i.[ #.&.@.c +.J.(.*XoX.XP.&XuXgX      ",
"        @.M M M 5 5 5 w 5 : 3 q s A R 9.g.h.h.z.4.:.2.2.2.2.,.| ] ] ] R K K S Z Z Z a n ) a.i.p.%.Q I x %.F.(.oX(.$X&XwXhX      ",
"        %.C M c u : : 5 ; - q s a S O.0.1.1.1.=.4.0.d.v.b.b.b.v.r.2.8.2.-.-.| ] ^ F k g A O.J.P.P.%.o.B m @.H.(.(..X(.(.&XwX    ",
"        %.C c z 5 : & & 3 0 q s S ] { -.2.2.0.h.R.{.@X{.`.C.Z.v.t.0.8.t.t.t.t.8.,. .S Z n F o.I.1X Xo.&.P C +.u.P..X$XF..XwX    ",
"        %.I x u - & & : 0 w c G 1.7.4.f.d.v.Q.{.|.<X<X@X{.`.V.N.r.8.8.8.0.t.t.q.,. .^ H G g n ' J.1XoX@.Y X.%.+.+.L.wX2XwXwX    ",
"        +.Y z : : 5 w w s Z [ 0.i.r.h.d.q.i.d.n.n.c.q.n.b.b.V.v.f.t.0.8.8.8.7.-.] ' H ! H Z a M n M +.I.P.H.+.%.a.u.L.3XwX%X    ",
"        o.Y u t m w x M ) 9.b.R.R.b.7.( B A G M y t 7 y D { 0.p.q.q.q.w.q.q.7.1.| ' ! ) ) Z a m B p q M %.oXI.%.H.c.#. XE.J.    ",
"        ` m z z m x B | d.Q.W.W.b.} A A A n y q ; # $ * 6 b ) | 7.7.w.7.| ,.| | } ' ) ' ! F n b n b q - x Y H.P.s.C ` s.+.i.    ",
"      ` C v v z c x ` n.R.~.~.R.0.R @.7.$.} ) D f r 7 7 q f D ! ..8.7.| '  .' ) H M n b b f f a f n y - : y ` s.` v C +.#.+.    ",
"        C v z z m M o.R.R.!.~.U.r.i.d.9.R n r r r r 7 r i N D H | w.-.' ^ ) ! n p > & * $ = > 0 0 d x y 0 < - C B w m o.s.+.    ",
"        C z z z C B 3.W.W.^.{.~.U.N.8.c > @ X X 2 , 8 > > 9 g ' t.v.8.' H G n b d > & + # + # * = 0 d r x v = = z : z C u.#.    ",
"        C x 5 x P B i.R.!.~.}.{.W.h.T n N e 2 X 2 d *.> , > e } ].<XV.1.H n f r < 8 > > t t < > = ; w w u m m & = : u x &.s.    ",
"        P.o.w c I A p./.^.{.OX#XW.d.0.b.Q.w.G d d *.*.e ; 8 g v.|.|.B.:.G f e ; * + $ * > t d b d e e y - - v : & < u m O.J.    ",
"        yX}.S M T I h./.^.{.OXOXOX}.{.`.Q.v.9.| ! D g i i ~ q.`.}.|.l.:.n r > * $ @ . X @ = 0 d V b t f < # : 1 : < v Y u.      ",
"        D.D.=.P Y R N././.^.OXOXOX}./.N.f.2.] H D g i p F t.C.{.|.-Xk.:.Z f e & = @ X X % 1 , > f M b b b > : u y v B           ",
"        D.x.=.Y _ R z./.^.}.=X:X:XOX^.B.k.y.e.2.:. .| 7.v.A.{.[.-X|.k./ g f d > , * * $ , e e > d B B V b e 1 t v               ",
"        D.x.M.4.@.[ N.^.>X}.^.:X:X;X}.A.A.l.m.l.m.Z.C.!.[.=X=X=X-X|.l./ g g f e > 8 q d d *.B V b B ( B b 1 u v V               ",
"        D.x.=X#Xh.1.N.,X=X^.=X:X7X;X=X[.A.M.M.k.k.k.N.A.=X[.=X-X-X=XM.:.D g g i e 7 e d g N D M D A ( ( v 1 t m                 ",
"        A.x.^.Y.h.0.R.yX:X=X=X;X;X7X7X[.A.S.k.y.5.y.l.[.|.}.-X-X-X-XM./ Z N g g g f p i p g n Z G ~ ) ( v t t `                 ",
"          l.Y.5.r.R.#XqX:X=X}.:X;X;X-X|.A.M.k.>.>.y.M.].}.=X-X-X7X-XM.:.J D D g g g g f p g N G G ~ } ) b z V %.                ",
"          }.B.5.OX;XOXqX:X:X:X=X-X-X|.A.M.k.>.;.;.;.r.B./.A.-X;X:X[.M.;.F Z D k g n g g k n F H ! ) } [ x b I n.                ",
"          sXA.5.@X@X@X0X0X:X:X^.[.[.].M.y.e.;.<./ :.e.C.=X=X=X;X7X/.l.2.^ D g D Z J k k k Z D F !  .} ) b G =.5.                ",
"          mX-Xk.!.OX:X0X0XOX}.^.!./.B.l.e.;.R L ^ :.v.|.7X-X|.7X7Xm.e.,. .D g g Z k k J F F F F ' ' } ) m L =.=.                ",
"            qX:X=X}.:X0XOX~.~.!.R.B.N.y.;.:.K K  .d.S.A.A.A.S.S.Z.e.:.^ ! ~ D D a g k Z F F F ! ! ' ' ) A W =.                  ",
"            7X-X:X=X0X0XOXR.Y.Y.R.V.B.f.2.R K :.v.].].m.L F / q.e.] F ~ g g D g g h a k Z H ! ! ! ) [ ) R W K                   ",
"            yX0X;X:X,X:X~./.!.Y.Y.Y.z.h.r.-.2.h.].].[.A.v.,./  .,.k g k h r h D n p p g g D F ! ! ) [ ! K K                     ",
"            BXxXyX8X:X:X#X/./.R.R.R.Y.V.r.8.t.C.].].].].|.Z.t. .^ g h g *.h D D D g a g F D F ~ ! ) ' H U                       ",
"            BXmXsX:X=X=X^.~./.W.{.W.R.Q.f.8.v.C.].<X<XA.C.Z.t.,.! D N g h k g D D D g Z D D G G H ) R Z '                       ",
"              sX:XA.!.|.^.W.W.~.~.W.R.U.r.8.v.R.].].C.C.C.S.Z.,.]  . .D g g g D D N n N G G G ! G ) ' H                         ",
"                    '.].R./.~.~.~.~.~.V.r.| 7.m.].].A.<XS.Z.Z.e.,.e.,.' N g g g D g g g G G G ( G U | ..                        ",
"                      !.R.R.!.R.{.#X#Xb.:.k s ,.t.w.e.,.,.<.<.<.,.:.^ F k k N D D N g g N G ( ~ ( U ..                          ",
"                      ].Y./.R./.~.#X#Xd.R s a ' :.:.,.L l j j l h 9 9 9 i h g g g g f g G G G ( I ) w.                          ",
"                      Y.B.Y.R.!.W.~.R.h.{ { Q.W.Z.S.S.S.y.<.<.l j 9 9 8 8 8 7 7 6 4 q n G G G ~ H [ w.                          ",
"                        Y.Y.B.B.Y.W.R.U.r.V.{.{.<XC.S.S.S.>.>.>.<.L L h i i i 7 q 7 q D ~ ! G G ( ) `                           ",
"                        /.Y.B.Y.Y.R.R.U.U.R.{.{.{.|.A.S.k.e.:./ L L L h h h h *.n f n M H ~ ~ ! ) (                             ",
"                          R.Y.V.Y.U.T.R.R.R.R.{.].].C.N.t.8.<.K F l k D D D D F D n n D ~ G G ~ (                               ",
"                          W.R.Y.Y.U.U.R.W.W.W.R.V.V.N.v.q.,.' F k h k k k D ~ D D n B G ! ~ I (                                 ",
"                            R.Y.U.U.U.Y.R.R.R.Y.V.b.v.q.7. .! D *.h h *.N D D D D n G G G ) ( (                                 ",
"                              U.U.N.U.R.W.T.Y.B.Z.N.f.e.-.-.' ! F N n n N g D g Z D G ~ ~ ( )                                   ",
"                                U.N.U.T.R.R.R.R.C.m.f.f.f.q.,.-. .^ H D g ~ D D Z A Y ( ) [                                     ",
"                                z.U.U.U.U.U.R.R.R.V.N.B.V.t.q.7.,.} ) ! D Z N D N G ) ) }                                       ",
"                                  z.z.U.U.U.U.U.B.Q.R.Z.v.t.8.,.|  .' ) D D D D D ( ) }                                         ",
"                                    N.h.U.b.b.b.N.U.V.b.t.1.| | | ' ' ~ D D D B I U                                             ",
"                                        b.b.h.d.d.d.v.t.7.| ) } } ) ! ~ D D D G I                                               ",
"                                          h.d.p.9.9.9.O.' ) H ( ) ! G N N D D G                                                 ",
"                                            d.u.+.| [ U D n n V B N n g n N D                                                   ",
"                                                O.) Z x x p y y p y p b n                                                       ",
"                                                          r r r p r p                                                           ",
"                                                                                                                                ",
"                                                                                                                                ",
"                                                                                                                                ",
"                                                                                                                                "
};
