/* XPM */
static char *_31ca7a842e14e15b5797c075607a040wczUfpMwp4TCOEYw[] = {
/* columns rows colors chars-per-pixel */
"64 64 253 2 ",
"   c #1B0F03",
".  c #281709",
"X  c #2B1C11",
"o  c #341E12",
"O  c #2C1706",
"+  c #2D250C",
"@  c #37260C",
"#  c #342314",
"$  c #3C2B15",
"%  c #3A2819",
"&  c #353012",
"*  c #3B3221",
"=  c #442C1B",
"-  c #462917",
";  c #48361C",
":  c #51371C",
">  c #462E22",
",  c #443324",
"<  c #4C3424",
"1  c #4B3A25",
"2  c #493829",
"3  c #553B25",
"4  c #543B2B",
"5  c #5B3B2D",
"6  c #553727",
"7  c #5C3D32",
"8  c #553E32",
"9  c #543127",
"0  c #633C2D",
"q  c #633D33",
"w  c #683C33",
"e  c #394901",
"r  c #3D5300",
"t  c #514F10",
"y  c #58640B",
"u  c #54690C",
"i  c #677807",
"p  c #677918",
"a  c #646C12",
"s  c #4A4227",
"d  c #5D432D",
"f  c #574728",
"g  c #5A5429",
"h  c #5D4334",
"j  c #594735",
"k  c #554F31",
"l  c #64482B",
"z  c #645A29",
"x  c #634334",
"c  c #644A35",
"v  c #644439",
"b  c #644C3B",
"n  c #6B4B3B",
"m  c #6A4836",
"M  c #764A3A",
"N  c #6C533C",
"B  c #675537",
"V  c #73523D",
"C  c #765839",
"Z  c #77763A",
"A  c #6F702E",
"S  c #625E1C",
"D  c #6B4E42",
"F  c #794D45",
"G  c #6B5542",
"H  c #745342",
"J  c #745B43",
"K  c #7A5A44",
"L  c #7A5848",
"P  c #795954",
"I  c #7C634B",
"U  c #796647",
"Y  c #796752",
"T  c #5E4944",
"R  c #835B3F",
"E  c #845D4B",
"W  c #875A47",
"Q  c #865C51",
"!  c #88554A",
"~  c #85664C",
"^  c #967847",
"/  c #8B6453",
"(  c #8C6B54",
")  c #856954",
"_  c #936654",
"`  c #936A55",
"'  c #946B5A",
"]  c #9A6C58",
"[  c #8C735B",
"{  c #897656",
"}  c #9B745E",
"|  c #95795A",
" . c #8D724B",
".. c #A3765A",
"X. c #9B7864",
"o. c #8C7763",
"O. c #A47663",
"+. c #A47A65",
"@. c #AA7C6A",
"#. c #A67B69",
"$. c #AC7E71",
"%. c #758F1A",
"&. c #6EAD04",
"*. c #74AC0B",
"=. c #75AB07",
"-. c #6EB302",
";. c #72B301",
":. c #75BB01",
">. c #7AB808",
",. c #76A919",
"<. c #7CB315",
"1. c #6FAC13",
"2. c #77A628",
"3. c #79A335",
"4. c #718D22",
"5. c #7BC202",
"6. c #79C402",
"7. c #7FD100",
"8. c #81BC07",
"9. c #88B418",
"0. c #8E9237",
"q. c #A2973B",
"w. c #88B826",
"e. c #97BB2C",
"r. c #99BA37",
"t. c #8CA931",
"y. c #A5B336",
"u. c #86C907",
"i. c #8DDA0C",
"p. c #89D507",
"a. c #92DA0B",
"s. c #87C319",
"d. c #8ED614",
"f. c #94DB13",
"g. c #97D918",
"h. c #95CA18",
"j. c #A3DE1B",
"k. c #89E701",
"l. c #96ED04",
"z. c #9AED04",
"x. c #94E20C",
"c. c #9AE60D",
"v. c #96ED0B",
"b. c #9BEC0B",
"n. c #95E504",
"m. c #95F104",
"M. c #9AF104",
"N. c #96F10A",
"B. c #9BF10B",
"V. c #9CE514",
"C. c #96ED12",
"Z. c #9CEA13",
"A. c #9DE51B",
"S. c #9CE91B",
"D. c #96E517",
"F. c #9CF413",
"G. c #8DF103",
"H. c #A0ED0E",
"J. c #A1E60D",
"K. c #A1EB13",
"L. c #A3E41C",
"P. c #A1EA1C",
"I. c #A6E718",
"U. c #A2F316",
"Y. c #A1F20C",
"T. c #97CA2B",
"R. c #9BDA27",
"E. c #9AD838",
"W. c #95C533",
"Q. c #A5DB28",
"!. c #A7C939",
"~. c #A4DD34",
"^. c #A3DD39",
"/. c #A9D739",
"(. c #B3DB37",
"). c #A2C42F",
"_. c #9EE423",
"`. c #9BE923",
"'. c #9CE42C",
"]. c #9BE927",
"[. c #9DE333",
"{. c #9FE33B",
"}. c #9CF124",
"|. c #A2E424",
" X c #A3EB24",
".X c #A3E32B",
"XX c #A5EA2C",
"oX c #AAE62B",
"OX c #A5F129",
"+X c #A3E333",
"@X c #A3E33B",
"#X c #A9E736",
"$X c #B4E33B",
"%X c #988748",
"&X c #99865B",
"*X c #908B4E",
"=X c #A68559",
"-X c #A4924C",
";X c #9BA55A",
":X c #97AE46",
">X c #A9B550",
",X c #9B8768",
"<X c #9C9366",
"1X c #AB846C",
"2X c #A78768",
"3X c #B5876D",
"4X c #A79669",
"5X c #B7986B",
"6X c #AC8A73",
"7X c #A98573",
"8X c #B18472",
"9X c #B38B73",
"0X c #BB8C73",
"qX c #BB8D7B",
"wX c #B88875",
"eX c #AB9875",
"rX c #B99478",
"tX c #B3A679",
"yX c #B7B477",
"uX c #AFAA6E",
"iX c #C18D76",
"pX c #C4937C",
"aX c #C5967A",
"sX c #C6AD71",
"dX c #96CB45",
"fX c #A7C849",
"gX c #ABD747",
"hX c #B5DA46",
"jX c #B5D657",
"kX c #B1CE54",
"lX c #A9E245",
"zX c #B4E444",
"xX c #BACC6F",
"cX c #C9D472",
"vX c #C8E666",
"bX c #D4ED74",
"nX c #D4EC6A",
"mX c #B59483",
"MX c #B9A883",
"NX c #BEB185",
"BX c #C99983",
"VX c #C4AC88",
"CX c #C6B78A",
"ZX c #CCAE92",
"AX c #D6BFA0",
"SX c #D8C69C",
"DX c #CFCC8D",
"FX c #DBEA8B",
"GX c #E6F292",
"HX c #D9C3A0",
"JX c #E6D1AB",
"KX c #E8EAAB",
"LX c #E0CB9E",
/* pixels */
"t.:XdXdXdXgXlXlXlXlXgX@X@X#X@X@X@X{.{.[.@X#X~.~.zX^.gXlXhXjXjXjXgXgXgX@X$X#X'.[.[.{.@X{.lX{.#X^.#X+X#X+X@X{.{.{.{.{.@X+X#X~.lXjX",
"3.2.2.1.2.W.T.T.E.@X^.@X+X'.'.'.'..XXX#XR.+XR.$X/./.gXjXjXkXfXjXgXgXgX/./.~.'.+X+X'.'.[.XX]..X.X|.|.|.'..X'.[.'.'.'.'..XA..X^.@X",
"2.,.1.1.*.*.>.u.d.h.Q.R..X X].`.S.C.C.f.V.oX.XzX!.vXbXvXnXbXbXbXbXvXvXhXgX$X#XQ._.A.P.Z.S.Z.Z.b.H.c.b.V.I.C.K.Z.F.Z.K.c.K.V..X.X",
",.1.1.1.&.&.-.-.;.>.8.u.p.d.D.Z.v.B.Z.P.XXQ.(.hXjXbXFXGXFXGXcXcXcXxXcXvXvXnXvX/.Q.|.P.b.z.B.l.l.z.J.z.Y.H.b.z.B.z.Z.b.H.z.K.S..X",
",.,.*.*.>.*.;.-.;.;.;.:.:.6.p.p.n.x.f.oXE.lXjX>XyXDXDXDXCXDXDXDXDXuXyXuXxXFXGXFXbXlX].A.Z.l.l.B.b.J.b.b.b.b.l.l.b.B.z.B.n.Z.A.'.",
"<.8.>.>.>.:.:.6.:.:.:.:.:.6.6.6.u.a.R.T.jXxX;X;X<XNXCXZXZXVXNXCXeX4X=X<X4XyXDXFXGXbXzXXXV.b.l.l.C.Z.Z.b.Z.z.l.z.B.l.b.l.B.b.S.`.",
"R.g.d.d.d.f.d.i.a.i.i.a.a.a.n.a.h.s.w.W.FXxXU g A { 4XNXVXeX2X6XmXrX5X=X%X .{ *XCXxXjXjXoXI.U.n.b.C.b.C.B.B.m.m.z.M.l.M.m.M.D.S.",
".XL.A.P.S.D.Z.S.S.Z.C.Z.H.I.L.Q.(.fXkXcXDXuX&X,X[ ( U ~ [ X.,Xo.I 2XeX4X| ( B f B *X;XjXhXQ.I.B.b.v.b.v.M.M.M.M.M.l.M.l.M.z.C.D.",
" XC.c.z.H.H.Z.b.m.N.n.F.Z.I.Q.hXjXcXDXDXNXNXZXVX<X~ l f f B J ) I N J | ,XY B ; % ; U ;XxXjX[.P.S.v.B.n.B.N.n.M.l.M.b.z.z.z.b.S.",
"F.b.H.Y.J.z.b.b.v.N.F.Z.f.oXhXjXcXCXyXNXMXeXeXeXeX2XU f @ + * 3 B j j j G J j 4 . . * Z ;XdXdXXXZ.b.v.b.n.l.F.z.z.C.b.b.z.H.C.I.",
"}.S.b.b.z.z.z.b.N.v.D._.#XhX>XyXtXNXtXeX,X4XZXSXJXSXNX,XC ; @ @ & s k k k s * s X   X e A 3.dXlXoXK.n.H.F.z.z.M.v.C.Z.b.z.z.V.I.",
"OXS.c.z.z.Y.z.z.C.A..X/.fX:X>XuXMXeX&X,X<XCXLXJXJXJXCX,XB ; O     # * k T s + + X   * k Y ;XxXdXT.L.L.I.K.c.x.b.C.K.F.b.J.b.V._.",
"OXS.C.v.v.M.l.b.I.|./.r.0.0.;X,X{ { C *X5XCXCXSXJXSXmXI < # O O   X + * s k s X X . T mXNXDXDXcXfX9.h.h.g.g.J.n.D.C.C.C.c.Z.L.|.",
"].S.K.v.v.v.l.Z.L.T.t.p A Z U U ~ { &X4X5XrXsXSXAX6XG % O   O O . X X X * * * # X j Y AXKXKXKXKXFXkXr.9.*.s.u.u.p.p.i.x.c.V._.'.",
"P.I.S.B.v.v.v.V.Q.9.p S Z C B  .| &X=X4XeXVXVXeX{ d $ @ % o o o # o o o & # X X 8 mXMXZXAXAXHXJXFXKXFX>X,.<.-.:.-.6.6.6.7.7.p.d.",
"oXI.Z.v.C.C.v.j.hXi Z *XU I  .| | } 4X4X2X&X .f ; = < 6 6 1 1 < , 2 > > * # # # < mXJXmXMXNXNXNXCXLXKXFX>XW.s.u.u.7.7.7.7.7.u.R.",
" XI.Z.b.z.v.Z..XfX0.*X<X{ Z C C I ,X,XY  .B ; : 3 3 5 c c l c c v h h 4 4 < < = 3 P eXNXY <XMXMXMXNXDXDXGXbX(.oXj.J.v.v.v.C.g.'.",
"OXP.b.b.z.v.Z.+X:XZ *X{ B l B C U C C ~ N : : : l V L V n c m d h h h 5 h < 3 < f J Y ,X<XY &X<XNXMXMXMXDXFXjX(.j.J.N.m.v.D.A.|.",
" XS.C.b.B.v.Z.~.>X*X .C f f l B B B N : - - : 5 V V V C L V V V b c b h x 6 6 : b J J ) ,XY U ,XeXNXtXuXuXxXbXhXQ.I.B.N.v.Z. X_.",
"XXP.V.b.b.z.Z.~.:XZ A g ; ; 3 f 1 d : - : : l V C K E W K V V V N H m n 5 x 3 3 c J I Y U { J *X<X<XeXuX4X<XcXvX$X|.C.M.v.C.P.A.",
"XX|.Z.b.z.c.C.^.p g B s @ $ 1 < 3 - - ; : l K ~ ~ ( ~ ~ W K K V M V x n 5 x 5 x 6 x ) { U Y C B { <XeX4XeX<XyXcXzX.XZ.v.v.C. XA.",
"XX|.b.H.z.l.K.^.u g k s % = ; = : - 9 l V ` } | } ` ~ ~ ~ E W F F V V V M m x 5 5 l N { o.) U B g Y <X4XeX<XyXxXjX~.V.b.v.Z.A.A.",
"oX Xc.z.z.l.Z.^.4.g f 2 , - $ @ - : 3 N ~ I ~ C J ( | X.X.+.#.X._ / _ E ) L H n 5 d x [ 7X,Xo.J b B { <X4XtX<X;XkX/.L.C.v.v.S.A.",
"XXP.H.H.z.b.K.^.A k f , % O @ $ : 3 b J I ~ ) | X.6X9XrX6X#.#.X.` ` _ ` ' ' ) K n c c h Y 6XeXo.Y T G { *X<XyX;X>X/.XXb.v.Z.A.A.",
"XXL.b.z.z.z.V.$Xp k s ; % % = ; 5 H I ) [ [ | X.,X6X6X6X6X7X#.X.' _ / ` ` / ) L D b h d c I [ ,Xo.Y Y U { <XtXyXkXfX|.Z.z.n.P.L.",
"XXL.H.H.n.Y.P.~.A g ; 2 ; 4 3 N I X.,XX.) J J K J N x N K / ' X.' ` ` _ / ) L L b D G h 4 f j b Y ,X,Xo.o.Y *X;X:XfX|.Z.B.z.S.A.",
" XA.b.H.Y.n.c.E.a f ; j 6 c J o.2X9XX.I N c c 4 3 - @ @ - 6 L Q / _ / Q ) P L P L G b j j j 4 - * N o.,Xo.U U { 4.W..Xb.M.z.P._.",
"OXV.Z.z.n.U.S.%.t t s 3 d V o.,X7X6X[ K J I I b 4 < < - - 6 m H E Q Q K L J D h 8 j 8 8 2 4 d s @ $ k Y P s k Z p !.|.b.M.z.S.|.",
"XX Xx.x.U.x.g.E.y t : f l K 6X4X6X2X| | ` K v < < , 9 > 9 5 q D / / P D D b 5 , % X X o % , 2 4 ; ; & 2 k ; k Z 4.W.|.b.M.z.A.|.",
" XP.Z.v.z.a.d./.y ; : l l ( 6X6X9X9X1X} K 4 - .   O o % - = 9 P X.' Q D v h 2 > # X o % # X % 2 ; f ; & s & s S p W.A.b.B.b.I.|.",
"OXD.V.n.p.a.g.!.A g : l m ` 2X9X3X5X0X} ~ L D 8 o > 8 8 % o 5 ) mX7X' D 7 > % o o # * 2 , % * 2 2 2 2 & + & s t %.T.A.C.C.Z._.|.",
" XD.p.p.a.C.g.zX>X| l l m | 1X9XrXiX0X1X1X7XX.Y L v q 8 - 5 ! $.mX$./ D < > o X .   X * 2 s 2 , 2 % & ; + + t y 9.Q. Xb.Z.Z._._.",
"_.d.i.K.J.J.j.(.q...l C C } iXiXiXiXiXiXiXO.] ! F q 6 9 7 ! $.wXmX7X~ m 9 > o X X   X * X * j j 8 2 + & e e u !..XI.b.v.H.K.|.~.",
"R.d.x.Z.J.J.I.(.q.^ R C l ..@.iXiXiXBXiX3X@.] ] ~ K E Q _ $.wXqXmX$.W x 6 > % o X X * * * 2 j j j , ; e r jXE.|.I.J.v.l.z.c.g.R.",
"].D.C.z.J.H.I.Q.q.^ .._ R ..BXiX3XiXBXBXiX@...O.O.} O.$.$.BXiXiXBX$.Q w 7 9 9 % * , 8 j 8 8 h G j 2 ; e u gX/.oXL.B.v.G.k.i.d.d.",
"].}.M.m.z.J.I.Q.9.^ 5X.. .=XBXaXiXiXiXiXiXiX@.@.] ] O.$.$.wXiXiXmX$./ w q 7 8 2 2 2 8 h T T v b T k & t r.R.g.p.i.p.k.7.k.i.D.A.",
"}.}.G.G.z.z.Z.oXy.^ =X^ ..3XBXaXiXaXaXaXiXiX....] _ ..@.iXiXiXBXpX9X/ m q 7 7 4 8 2 9 8 x b n H G s s S W.d.f.x.i.k.k.k.n.z.S.S.",
"].`.v.m.Y.H.v..X(.q.^ ..iXaXZXaXaXiXiXiXiX3X..] W R _ ..@.wXiXiXpX1X_ M w 7 7 7 7 7 7 7 x m H L L s f p ~.f.a.b.C.C.G.G.B.H.S.S.",
"XXA.v.z.Y.Y.J.j.(.y.q...aXaXaXaXaXiXiXiXiX.._ R M R R ..iXiXiXBXpX#.( M q v q 7 7 7 q v v n H L m l S a ~.J.J.b.C.N.m.m.b.b.V.I.",
"#XI.c.z.J.J.J.(.hXcXq.3XaXBXsXsXiX3X3X3X..] ! R M R ! O.iXiXiXBXqX} / F x 7 q 7 q q v m v M H K V f S i h.I.c.J.z.m.M.l.b.b.L.|.",
" X|.H.z.z.z.v. X(.hXsXiX3XaXaXiX3X3X1X@...] W M M / @.@.@..._ O.' F F n q q 7 7 7 v v D n n H H l l y e.|.I.c.b.M.M.m.M.b.K.I.L.",
"XXP.H.z.z.l.b.K.(.(.sXiXaXsXaXiX1X@.1X1X#.] W C Q @.$.$._ R R ! ~ m x h 8 7 7 8 7 9 w v n n G J l S i !.j.H.z.z.l.l.N.N.b.J.L.|.",
" XZ.z.z.l.M.l.c.(.(.bXZXaXaXaXiX3X1X8X@.1XX.' _ @.$.$.wX@.O._ ! M 0 5 6 4 7 v 7 7 7 q v b b G N S R y.Q.c.B.m.M.M.l.v.C.b.b.V.A.",
"OXS.v.l.m.M.z.b.I.hXbXcXsXaXaXiX3X3X8X6X1XX.' ' O.$.BXmX$.@.] ! M w 0 5 8 7 D h 7 q w q B N B g t 8.(.I.U.M.k.N.M.M.C.C.b.b.S.S.",
" XS.C.v.l.m.z.z.H.|.hX>Xq.-X5X3X3X6X8X6X2XX.` | 8XwX8X$.#.$.O.! F F w w 7 8 h 7 7 q m c c N B z i fXQ.I.G.k.N.m.z.M.B.B.b.b.S.A.",
".X_.Z.v.l.z.z.b.z.Z.Q.(.gXy.-X=X3X9X3X6X6X} L W ] $.$.wX$.O.#.Q Q Q F w 7 7 v q q 7 x m B B B A %.Q.I.H.G.G.F.m.l.l.v.l.z.H.S.].",
"#XQ.L.Z.b.b.H.b.m.M.J.|.#XfXq.-X2X3X9XrX9X` l 0 ! _ ! Q ! w M w F R w w 4 5 q 7 7 5 x m c g g A hXQ.I.H.N.G.l.U.z.z.z.z.z.z.`.'.",
"T.s.d.f.D.Z.K.b.m.l.H.V..X(.t.%X=X1X9X9X2X .M C _ ] ] _ ! w w w 9 9 - - 9 9 9 > 9 5 m c B B z A /.I.J.z.m.F.v.x.z.z.z.M.z.z.`.].",
"w.<.<.>.u.d.d.a.z.F.x. X_.Q.!.0.=X2X2X9X2XX.} #.qX6X@.O...] ! ! w w 9 9 = - < = , d b b d z a i Q.K.b.b.v.v.v.v.z.z.z.l.z.z.S.`.",
"<.1.1.1.;.:.:.u.u.p.d.D. XQ.!.t.%X=X2X1X1X2X2X9XqXqXwX7XO._ ! F ! w w q 5 4 5 6 4 j D G g S y ).Q.J.z.l.v.v.v.M.m.N.M.l.M.v.Z.S.",
"<.1.*.*.&.&.;.;.:.:.6.7.a.h./.>X-X....2X=X3X3X3X8X7X8X@.] _ R M w w w q q D v x 5 c B k g y e.Q.J.z.z.z.z.B.M.l.M.z.M.l.l.z.S.D.",
"<.*.<.-.&.&.-.;.-.-.-.:.;.8.9.e.q.-X=X=X=X2X=X2X8X$.#.O._ R R w 0 0 7 7 q q x q m l B B t t.(.I.c.Y.z.M.l.l.v.l.m.m.l.M.z.v.Z.S.",
"w.9.<.>.5.5.8.8.>.6.:.5.:.8.8.9.y.q.-X%X&X=X2X2X7X#.#.o.Q ! C m w 7 7 7 q v w x x c g S p W.L.K.b.z.z.z.l.l.v.M.l.M.z.N.b.b.S.`.",
"~.R.g.f.g.g.a.a.f.f.g.f.x.a.g.Q.).>X0.%X<X=X2X2X$.#.#.o.( E C K v q 7 q x v 0 x m z z p e.~.A.v.b.z.z.M.N.z.v.M.M.m.v.z.b.C.S._.",
"#X|.S.K.S.H.b.H.K.b.V.v.Y.z.J.j.(./.0.0.*X4X7X7X7X7X$.X.X.X.) Y P D H x v x 0 l z y i r..XV.Z.v.v.l.z.l.l.M.l.l.v.m.z.v.v.C.S.`.",
"XXS.C.b.M.M.z.H.l.H.l.l.z.z.H.J.A.#X2.3.*X*X2X3X$.$.$.$.X.o.) Y L L H h 7 l f S y i !.Q.I.F.v.v.B.l.z.z.M.v.l.m.M.l.M.v.z.v.S.S.",
" XS.v.M.N.z.z.z.b.b.v.N.m.m.m.l.Z.|.9.9.0.0.^ | ....@...| ` P P P F n h T k g u fX/.Q.I.K.z.v.v.B.z.M.M.B.v.z.v.l.l.z.v.B.C.S.`.",
"XX`.C.N.m.m.z.l.b.v.C.N.N.m.m.m.z.Z.u.&.,.0.0.0.^ ^ ^ ^ C L D P F n h d k f u t.W.~.I.K.J.b.b.H.b.v.z.z.v.v.v.z.z.l.z.M.z.C.D.S.",
"#X].C.z.N.m.M.z.z.b.M.C.N.N.v.v.z.S.f.u.s.e.t.0.0.A A A C z 4 D c d t t t y 3.W.s.6.u.i.a.n.J.K.D.Z.b.b.Z.Z.b.b.z.b.b.b.B.B.S.`.",
"#X XC.N.N.v.z.z.z.z.v.v.v.B.v.C.b.b.x.x.g.j.Q.!.e.i y t t t t ; t t t t t.w.T.+X6.-.:.6.5.u.u.p.f.x.x.V.K.Z.Z.H.b.b.b.b.b.v.D.S.",
"#X|.H.b.N.v.l.z.Y.z.z.z.v.v.C.Z.z.z.H.U.H.c.V.R.$XT.e.r.r.y e e r r %.W.Q.Q.L.L.s.1.1.:.=.>.>.;.8.u.u.u.d.g.g.j.c.V.Z.F.Z.K.A.|.",
"#X.XI.Z.Z.Z.K.Z.J.H.Z.Z.Z.Z.A.K.Z.v.Z.Z.C.Z.P.S..X~.+XgX/./.fXgXfXgXgXlXQ.I. Xg.6.1.1.1.*.=.=.*.=.;.;.;.>.>.u.u.d.g.g.'.A.|.'.#X",
"zX^.|._.'.'.'..X|.|._._._._..X|._..X.X[.'.#X'.].'.#X[.@X@X@X^.^.~.{.lXT.oX.XQ.#Xs.,.,.2.2.2.%.,.2.2.,.,.2.,.,.,.<.<.6.s.s.T.E.dX",
"hX/.~.+X{.@XE.+X~.~.~.+X+X.X~..X.X[.{.E.{.{.'.[.[.E.[.[.{.R.@X[.{.[.{.lX~.R.zXR.2.,.2.3.3.t.2.t.2.3.3.2.2.2.2.,.,.,.2.1.<.w.dXdX"
};
