/* XPM */
static char *_cca49320b2744a38f6c25d2c1fd49a7uWPFAlhsmJhRcTtw[] = {
/* columns rows colors chars-per-pixel */
"64 64 226 2 ",
"   c None",
".  c #11120B",
"X  c #191815",
"o  c #0C0D0B",
"O  c #371415",
"+  c #251D1C",
"@  c #20221C",
"#  c #130E33",
"$  c #17123E",
"%  c #221B2C",
"&  c #362F2C",
"*  c #441C1C",
"=  c #461F22",
"-  c #552729",
";  c #4D252A",
":  c #752C2A",
">  c #67363F",
",  c #181141",
"<  c #2E1F4B",
"1  c #181067",
"2  c #2B1A7F",
"3  c #483341",
"4  c #6C3741",
"5  c #402B73",
"6  c #6D4C57",
"7  c #5F615C",
"8  c #7D5566",
"9  c #757672",
"0  c #4D4B48",
"q  c #920F2B",
"w  c #8C1739",
"e  c #94163A",
"r  c #9B163E",
"t  c #9B1538",
"y  c #99102E",
"u  c #A51539",
"i  c #BB1B3C",
"p  c #B41839",
"a  c #8F3434",
"s  c #AA3A3A",
"d  c #C21A3F",
"f  c #9B1D4C",
"g  c #9B1848",
"h  c #9F1A52",
"j  c #8F1C40",
"k  c #A41642",
"l  c #AC1945",
"z  c #A51B4C",
"x  c #AD1C4C",
"c  c #A61846",
"v  c #B31945",
"b  c #BD1A44",
"n  c #B41A4A",
"m  c #BC1B4C",
"M  c #A51B54",
"N  c #AD1B53",
"B  c #A71954",
"V  c #B31E52",
"C  c #BB1E53",
"Z  c #B31D58",
"A  c #962548",
"S  c #9E2257",
"D  c #963157",
"F  c #A6244B",
"G  c #B72649",
"H  c #AA245A",
"J  c #BA2258",
"K  c #A73658",
"L  c #B33654",
"P  c #B23563",
"I  c #C21B43",
"U  c #C21C4C",
"Y  c #CC1D4B",
"T  c #D21E4D",
"R  c #C31E54",
"E  c #C91E55",
"W  c #CE1F59",
"Q  c #D41F56",
"!  c #C2274D",
"~  c #CB2154",
"^  c #CB2259",
"/  c #C82856",
"(  c #D4235B",
")  c #D22558",
"_  c #C63459",
"`  c #D43865",
"'  c #CE2F62",
"]  c #864D58",
"[  c #895460",
"{  c #BB4965",
"}  c #B4526E",
"|  c #8D707B",
" . c #DF4643",
".. c #F84B4C",
"X. c #FE4E57",
"o. c #FE505E",
"O. c #E34644",
"+. c #C84E77",
"@. c #CA5B75",
"#. c #C95677",
"$. c #CD5473",
"%. c #FD5964",
"&. c #CA6A78",
"*. c #D66A77",
"=. c #FC6E7B",
"-. c #F1636A",
";. c #82807E",
":. c #3826B0",
">. c #4C36A4",
",. c #513596",
"<. c #3B60BC",
"1. c #4B44B6",
"2. c #6257B3",
"3. c #6668AF",
"4. c #7A6E94",
"5. c #2813D6",
"6. c #270ED2",
"7. c #3313F7",
"8. c #3922FE",
"9. c #3333FE",
"0. c #4136FF",
"q. c #3665CC",
"w. c #3944F7",
"e. c #3952EB",
"r. c #3368E3",
"t. c #4163D6",
"y. c #4143FF",
"u. c #997592",
"i. c #917983",
"p. c #A5758C",
"a. c #B77C97",
"s. c #AF7287",
"d. c #856DA7",
"f. c #A27FA0",
"g. c #D35C82",
"h. c #FE5A8C",
"j. c #FE5789",
"k. c #FF5C91",
"l. c #DC6987",
"z. c #D0788E",
"x. c #FB668D",
"c. c #EE7B8D",
"v. c #E7758C",
"b. c #F37B8C",
"n. c #FA7D8E",
"m. c #F6708F",
"M. c #FD6896",
"N. c #EE7A94",
"B. c #F47E92",
"V. c #FB7E92",
"C. c #FA7394",
"Z. c #E06E85",
"A. c #FF6FB8",
"S. c #FE73BB",
"D. c #FD77BB",
"F. c #8B8382",
"G. c #94918F",
"H. c #A48C92",
"J. c #AA84B0",
"K. c #B6B6B3",
"L. c #ADA4A6",
"P. c #D58195",
"I. c #ED8197",
"U. c #F58196",
"Y. c #FE8294",
"T. c #F58399",
"R. c #FD859B",
"E. c #FE8A9D",
"W. c #F78999",
"Q. c #FC929E",
"!. c #FB808F",
"~. c #CB88A8",
"^. c #D98AA7",
"/. c #DA96B9",
"(. c #CE90B3",
"). c #E786A1",
"_. c #FC86A1",
"`. c #FE8CA4",
"'. c #FE8EAB",
"]. c #F488A5",
"[. c #EB92AB",
"{. c #FE91A5",
"}. c #FF93AC",
"|. c #FA99A8",
" X c #FE8BBE",
".X c #E697B6",
"XX c #FF95B3",
"oX c #FE9AB4",
"OX c #FE97B9",
"+X c #FE9CBB",
"@X c #F69BB8",
"#X c #FCA2AF",
"$X c #FCA3B2",
"%X c #FBAAB4",
"&X c #FEA2BD",
"*X c #FCACBB",
"=X c #F7A3BF",
"-X c #E8B3B9",
";X c #FBB1BC",
":X c #E9ACB6",
">X c #FD8EC4",
",X c #FE9DC2",
"<X c #FF9FC9",
"1X c #FD92C3",
"2X c #EDA4C8",
"3X c #FFA2C4",
"4X c #FDACC4",
"5X c #FFA4CC",
"6X c #FEAACB",
"7X c #F5A9CC",
"8X c #EBBAC2",
"9X c #FCB4C4",
"0X c #FEB3CD",
"qX c #FBB9CB",
"wX c #FFA6D1",
"eX c #FFABD4",
"rX c #FFAEDA",
"tX c #F5A8D2",
"yX c #FEB2D1",
"uX c #FFB1DC",
"iX c #FFB4E0",
"pX c #C7C6C5",
"aX c #EEC7CC",
"sX c #E9EBEA",
"dX c #FBFBFB",
"fX c #F5F6F5",
/* pixels */
"                                                                                                                                ",
"                                                                                                                                ",
"                                                                                                                                ",
"                                                                                                                                ",
"                                                                                                                                ",
"            yXuXrXeX6X5X                                                                                                        ",
"          rXuXuXrXwX5X<X,X,X                                                                                                    ",
"        6XrXrXuXrX5X5X,XOXOX+X                qXqXyXyXqXyX0X0X0X6XqXqXqX                                                        ",
"        6XeXeXuXeX6X5X,XOXXXXXXX          qXyXyXeXrXeXrXwXwXwXeX6XwX5X6X6X9X                                                    ",
"        5X6XeX6X6X6X3X&XoX'.'.'.}.    qXyXrXeXrXrXwXrXwXeXrXwXwXwX5X5X5X5X5X4X0X                                                ",
"        ,X5X6X5X6X3X3X+XOXXX].N.[.7XwXrXeXrXrXrXrXrXrXwXrXwXwXwXwX5X5X5X5X3X3X5X4X9X                                            ",
"        @X3X3X3X3X&X&XoXXX'.N.).1XwXrXrXrXrXrXrXrXrXrXrXrXwXwXwXwX5X5X5X,X5X,X3X3X3X4X                                          ",
"        OX+X+X&X&X+X+XoX}.`.].,XwXrXrXrXrXrXuXrXrXrXrXrXeXeXwXwXwX5X<X5X<X,X,X,X,X,X3X4X9X                                      ",
"        }.OXoX+X+X+XoX}.`.].,XwXrXrXrXuXiXuXuXuXrXrXrXrXeXeXwXwXwX5X<X<X,X,X,X+X+X,X,X3X4X;X                                    ",
"          XXoXoXoX}.|.`.'.OX7XeXrXrXuXuXuXuXuXuXtX(.tXrXeXeXwXwX5X<X5X<X3X,X,X,XOX+XOX+X+X4X                                    ",
"          }.}.}.}.{.`.`.OX5XeXeXrXuXuXiXuXuXiX2Xi.| p.wXeXeXwXwXwX<X^.^.,X,X,X1X,XOX+XOXOX&X*X                                  ",
"            '.`.`.`.R.}.5X5XeXrXrXrXuXuXuXuXuXf.pXfXL..XeXwXeXwX5Xa.F.| z.,XOX+XOXOXOXOXOXoX&X*X                                ",
"              `.R.R.R.,X5XwXeXrXuXrXuXuXiXiX/.| sXfXpXa.eXeXwX6X^.G.fXsXH.@XOX+XOXOXXXXXOXXXOX&X;X                              ",
"                W.V.XX<XwXeXeXrXrXiXrXuXiXiXp.F.dXdXK.| rX6XwX5Xp.K.fXdXH.^.OXOXOXXXOXXX}.XXXXOX*X                              ",
"                  ].,X5X5XeXrXrXrXuXiXrXuXiX6 7 fXdX9 8 rXeXeX5X6 K.dXdXF.z.+XOXXXXXXX'.'.'.'.XXoX;X                            ",
"                  *X3X5X5XeXrXeXyXuXuXuXuXyX3 @ G.G.@ 8 rXrXuX.X& F.dXsX0 s.OXOXXXXX'.'.'.'.'.'.oX%X                            ",
"                  *X,X5X5XeXeXeXrXeXuXrXuX2X3 o o . o | yXyXeX^.+ & G.9 X s.+XXXXX'.'.'.'.'.`.'.}.oX                            ",
"                *X&X,X5XwXeXeXrXeXrXuXyXrX2X5 1 # # $ a.uX6XyX~.% . . o X z.OXXXXX'.'.'.`._.`.`.{.XX%X                          ",
"                *X,X,X5X5XeXeXeXeXeXeXeXeX:X:.7.6.6.:./.uXeXeX~.:.1 $ $ < ^.OXXX'.'.'._.`._._._.`.}.%X                          ",
"                &X,X3X5X5XeXeXeX6XrXeXeXrX7X2.7.7.9.3.tXuX6X6X(.:.5.5.5.,.[.OX'.`.'.`.`._._._._.`.`.$X                          ",
"                &X+X,X5X5X6X5X5X5X<X7XeXeX6Xd.e.0.e.J.eX6X6X6X.X1.8.8.w.d.XXXX'.'.`._._.R.W._._.E.`.oX                          ",
"                +X,X,X3X5X5X1XD.D.S.D.>XwXeX(.<.r.3.2XuX6X6X3X=X3.w.y.t.~.XXXX'.'.`.`.R.W.T.R.T.W._.|.                          ",
"                oX,X,X3X5X5XD.A.S.S.S.S.>X6X7Xf.4./.6X6X6X5X4X4Xf.<.q.d.XXXX}.`._._.W.W.V._.B._.R._.{.$X                        ",
"                oXOX,X3X3X5X>XS.S.A.A.S.1X6X6X6X0X6X0X6X6X4X=X&X@Xu.u.[.XX}._.M.M.M.x.C.U.T.B.T.T._.`.XX1X3X=X                  ",
"                &XOX,X,X3X3X3X,X>X X X,X5X4X4X5X6X6X.X^.^.[.=X4X&X$XoXXX}._.M.k.h.h.h.h.C.B.T.T.V.W._.OX,X,X,X+X                ",
"                oXOX+X,X,X3X3X3X,X3X3X4X3X4X3X6X.X8 ; = = ; > } [.oXoX}.}.`.M.k.h.h.j.j.m.B.T.B.N.R._.,X<X<X,X,X+X=X            ",
"                $XOXOX+X,X3X,X3X,X3X3X3X3X3X3X4X[ O * * = * O O 4 ).XX{.{.'._.M.x.h.x.m.B.B.N.B.B.V.].<X5X<X<X,XOX+XoX          ",
"                $XOXOXOX+X3X+X3X&X3X3X3X&X&X3X&X] : a s s a a - * &.}.{.{.E.E.R.V.V.B.B.c.B.B.B.B.U.].,X5X5X5X,XOXOXXX          ",
"                $XXX+XoX+X+X+X&X+X&X&X&X&X&X&X&X*.O.......O. .s a z.{.{.E.E.R.R.U.B.B.B.c.c.c.B.B.U.'.,X3X6X6X5XOXXXXX|.        ",
"                %XXXXXOX+X+X+X+X+X+X&X+X&X+X+X&X}.o.X.o.X.X.X...-.].{.E.E.R.Y.Y.Y.B.B.b.B.c.c.c.B.U.'.OX&X5X6X3X,XXX`.`.        ",
"                  oXXXOX+XoXoX+X&X+X+X$X+XoX$XoXoXQ.%.o.%.X.X.-.W.W.E.E.R.R.Y.U.B.B.b.c.c.c.B.B.B.I.'.OX+X3X3X3X+XXX`.R.        ",
"                  $XXXXXXXoXoXoXoXoX+XoXoXoXoXoX|.XX{.n.=.=.!.E.E.E.R.R.Y.Y.V.B.n.b.c.b.c.c.c.c.B.T.`.}.OX+X$X+XoX`.R.U.        ",
"                  %XXXXXXXOXOXoXoXoXoXoXoXoX}.XX|.}.{.{.{.Q.Q.E.E.E.R.R.Y.Y.n.n.b.b.c.c.c.c.c.!.U.N.`.'.}.}.oXXX{.E.U.U.        ",
"                    #X}.XXOXXXOXXXoXXXXXXX|.|.{.{.{.{.Q.Q.E.E.E.R.Y.Y.Y.Y.!.n.b.b.b.c.b.c.b.I.!.c.N.W.`.`.{.`.E.R.U.B.U.        ",
"                    %XXX'.XX}.XX}.XX|.}.}.}.{.{.{.{.E.E.E.E.Y.E.Y.Y.!.!.b.b.b.c.b.b.c.c.c.c.!.W.I.v.N.T.R.R.Y.!.n.b.b.          ",
"                      #X}.XXXX}.}.}.}.}.}.{.{.E.E.E.E.R.R.Y.Y.Y.Y.!.!.!.!.b.=.=.I.c.c.c.c.b.W.|.    v.c.B.n.n.b.b.b.            ",
"                      +.].'.}.{.}.}.{.{.{.{.{.E.Q.E.E.R.E.Y.Y.!.!.!.!.!.b.b.!.I.=.I.=.c.n.U.Q.          v.c.c.c.I.              ",
"                  M B h +._.'.'.{.{.'.{.{.E.E.E.E.R.R.R.Y.Y.Y.!.!.!.n.b.b.b.b.c.=.I.I.!.B.U.|.                                  ",
"                B B h g h g.'.'.`.{.`.`.E.E.E.E.E.Y.Y.Y.Y.!.!.!.n.n.n.b.c.=.b.b.P.=.I.!.n.&.D                                   ",
"              H B B B B h h g.D.`.`.`.`.E.E.R.E.R.Y.R.Y.Y.n.Y.n.n.n.n.=.b.b.b.b.b.!.!.I.@.w w D                                 ",
"            C R C Z N B h h S g._.`.`.E.E.E.R.R.R.Y.Y.!.!.Y.n.n.n.n.b.b.b.b.b.b.!.!.c.+.w w e r F                               ",
"          C R ~ ^ W ^ Z Z M S S { N.`.`.R.R.R.R.Y.R.Y.Y.Y.n.n.!.n.n.b.b.b.b.!.n.c.Z.L w w e e r k F                             ",
"        x R W ^ W W ' ^ J H H H S P g.W.`.E.R.R.R.Y.Y.Y.Y.n.n.n.n.n.n.b.n.b.n.v.} a w e t r r k k z G                           ",
"        m W ( ( ( ( ( ( ) ' J H Z M M P l.T.E.E.E.R.Y.Y.Y.!.V.!.V.Y.Y.U.B.v.#.K w e r g k k k l l l G J                         ",
"        R ( ( ( ( ( ( ( ) / ^ Z Z N M z c H +.l.U.Q.{.E.E.R.E.E.E.U.v.@.{ D A f f c c l l l v l v v b J                         ",
"        U Q ( ( ( Q ( Q ~ ~ ^ ~ U m x x l c k k F L { @.*.*.P.&.{ K F f g f z x n F l n n v n n n m n G /                       ",
"          Y T T Q T T T T Y Y Y I d b p u u u y y q q q       t t g g z N N V Z C C C C m m m m m m U U !                       ",
"              I d I I d d i i i i p p p u u                     u c c x N V C C R C R R R U U U m U U U U                       ",
"                                                                  u l l n C C R ^ ^ ^ ^ W ) R Y U U U m U                       ",
"                                                                    u l v m R R W Q W ( ( ( ) T U U U I U                       ",
"                                                                        v v m R E ' +.` ( ( ) $._ Y I b U                       ",
"                                                                            v b ! z.aX:Xv.).-X-XaX-X                            ",
"                                                                                b z.:X:X8X8X8X-X8X-X@.                          ",
"                                                                                      _ / / _ ) / ! G                           ",
"                                                                                                                                ",
"                                                                                                                                ",
"                                                                                                                                ",
"                                                                                                                                ",
"                                                                                                                                "
};
