/* XPM */
static char *c2c0172086d5418bd4daecfa7be1d441eskQM1s7nNsd7XY9[] = {
/* columns rows colors chars-per-pixel */
"64 64 256 2 ",
"   c #130330",
".  c #2C0B24",
"X  c #6C1519",
"o  c #793707",
"O  c #762E0A",
"+  c #671B24",
"@  c #7C450C",
"#  c #11054A",
"$  c #271261",
"%  c #4F334C",
"&  c #47246B",
"*  c #584963",
"=  c #8D2F17",
"-  c #9A1736",
";  c #8B132F",
":  c #A5163D",
">  c #A81836",
",  c #9A2A25",
"<  c #942E29",
"1  c #A72538",
"2  c #A82E2F",
"3  c #881F1C",
"4  c #874D0B",
"5  c #95771A",
"6  c #996E1B",
"7  c #984729",
"8  c #9B7524",
"9  c #A9762D",
"0  c #A75928",
"q  c #9B1644",
"w  c #A91649",
"e  c #B71847",
"r  c #B81A55",
"t  c #AC124C",
"y  c #B92649",
"u  c #BB265A",
"i  c #B1324D",
"p  c #BB3362",
"a  c #9B2943",
"s  c #C71D55",
"d  c #C9194F",
"f  c #C5264C",
"g  c #CA2359",
"h  c #D02759",
"j  c #C83567",
"k  c #B7444C",
"l  c #AD5A69",
"z  c #876472",
"x  c #995A5E",
"c  c #D55258",
"v  c #DA5967",
"b  c #CE5270",
"n  c #EB6776",
"m  c #D56B6A",
"M  c #7B9F18",
"N  c #76AB08",
"B  c #6FB400",
"V  c #6AB900",
"C  c #76B504",
"Z  c #78A817",
"A  c #7BB716",
"S  c #6DAA09",
"D  c #79A626",
"F  c #7AA333",
"G  c #7DB727",
"H  c #7A9C28",
"J  c #79C601",
"K  c #8C8A10",
"L  c #84A717",
"P  c #86B815",
"I  c #8BBA0F",
"U  c #98912C",
"Y  c #A8892F",
"T  c #91AF2B",
"R  c #AEB634",
"E  c #A3AE1B",
"W  c #C1B93D",
"Q  c #85CA07",
"!  c #88D506",
"~  c #92DB0A",
"^  c #89C716",
"/  c #96C91C",
"(  c #8DD515",
")  c #97DB16",
"_  c #A6DB19",
"`  c #A8C31E",
"'  c #96ED04",
"]  c #9AED05",
"[  c #95ED0B",
"{  c #9BEC0B",
"}  c #97E50B",
"|  c #95F105",
" . c #99F104",
".. c #95F00B",
"X. c #9BF10C",
"o. c #9BE513",
"O. c #96EC12",
"+. c #9CEA13",
"@. c #9CE51C",
"#. c #9CEA1B",
"$. c #96E619",
"%. c #9AF112",
"&. c #8EE204",
"*. c #A1E90D",
"=. c #A3E514",
"-. c #A2EB14",
";. c #A3E41B",
":. c #A7E71B",
">. c #A9EA12",
",. c #99D927",
"<. c #95CE2E",
"1. c #B6C82E",
"2. c #A9DC27",
"3. c #B4D929",
"4. c #B9C738",
"5. c #A8DB37",
"6. c #B5D737",
"7. c #A9C931",
"8. c #9CE523",
"9. c #9CEA22",
"0. c #9DE42B",
"q. c #9AEB28",
"w. c #9DE337",
"e. c #9EF129",
"r. c #A3E324",
"t. c #A2EA23",
"y. c #A2E32C",
"u. c #A4EB2C",
"i. c #ABE527",
"p. c #A2E334",
"a. c #A4E33A",
"s. c #A7E935",
"d. c #ACE929",
"f. c #C1CE37",
"g. c #B48C51",
"h. c #93AE46",
"j. c #B5B54E",
"k. c #B8B168",
"l. c #BD8467",
"z. c #C99A58",
"x. c #C6B052",
"c. c #D68E6F",
"v. c #E2887B",
"b. c #D4BB6B",
"n. c #DAB977",
"m. c #CCAF6C",
"M. c #E3B47A",
"N. c #98D247",
"B. c #B9C944",
"V. c #AADC45",
"C. c #BAD446",
"Z. c #B4D255",
"A. c #AAE24A",
"S. c #C4C748",
"D. c #C9C958",
"F. c #CAD151",
"G. c #CBCB68",
"H. c #D0CB6A",
"J. c #E6C17D",
"K. c #2D2091",
"L. c #52368F",
"P. c #4D36AB",
"I. c #6947AE",
"U. c #774E92",
"Y. c #B07989",
"T. c #8B5BB0",
"R. c #9D71AA",
"E. c #DE6C88",
"W. c #F4678A",
"Q. c #EB7988",
"!. c #F37C8D",
"~. c #FB7C8D",
"^. c #F37A88",
"/. c #FA6A92",
"(. c #EE7D94",
"). c #F37B93",
"_. c #FB7D93",
"`. c #F77999",
"'. c #E86789",
"]. c #FC7CA3",
"[. c #EE7DB4",
"{. c #F15D88",
"}. c #A576C9",
"|. c #B48A99",
" X c #B987A6",
".X c #B9ACB3",
"XX c #EA8587",
"oX c #F7838C",
"OX c #EC8193",
"+X c #FC8394",
"@X c #FC849B",
"#X c #FD8B9C",
"$X c #F58697",
"%X c #ED9795",
"&X c #F7969C",
"*X c #E69786",
"=X c #DBB887",
"-X c #D7AC86",
";X c #E7A789",
":X c #E4B588",
">X c #EBA897",
",X c #E6B898",
"<X c #F3AB9A",
"1X c #CD8FB1",
"2X c #FD84A3",
"3X c #FD8CA3",
"4X c #FE8CAC",
"5X c #F987A7",
"6X c #EB99A6",
"7X c #FB93A3",
"8X c #FC94AC",
"9X c #FD9AAC",
"0X c #F597A7",
"qX c #FD8EB1",
"wX c #F887BA",
"eX c #FD94B4",
"rX c #FC9BB4",
"tX c #FD95BA",
"yX c #FD9CBC",
"uX c #F49BB8",
"iX c #EB90B3",
"pX c #D0AAB6",
"aX c #EEA9A6",
"sX c #F5A6AA",
"dX c #FBA3BC",
"fX c #F7A6B7",
"gX c #F0B2B0",
"hX c #D18C97",
"jX c #DCC78E",
"kX c #E6C694",
"lX c #E8C4A7",
"zX c #FBC1BD",
"xX c #D095CF",
"cX c #FD9CC4",
"vX c #F99AC7",
"bX c #E997CA",
"nX c #D7ADCC",
"mX c #E9A6C6",
"MX c #FDA3C4",
"NX c #FDA4CC",
"BX c #F9AAC8",
"VX c #F7B4C6",
"CX c #FEA4D2",
"ZX c #FDACD5",
"AX c #FDACDA",
"SX c #F7A9D7",
"DX c #FDB2DB",
"FX c #F8B4D7",
"GX c #ECAFD4",
"HX c #FEB3E2",
"JX c #F9B7E5",
"KX c #F0AFE4",
"LX c #DEA3E4",
"PX c #FEF1F3",
"IX c #E3C8DB",
"UX c #BE90D1",
/* pixels */
"h.h.h.N.N.N.a.A.V.V.5.w.a.0.a.5.a.a.a.a.a.p.w.p.a.a.a.a.a.a.a.a.A.a.p.u.p.p.p.a.V.a.a.a.p.w.w.w.a.a.w.s.p.p.p.p.a.w.a.w.a.a.A.A.",
"F F T L G <.<.N.5.V.5.5.q.0.u.y.y.y.i.y.0.0.0.0.0.y.y.i.p.y.p.y.y.i.8.r.t.8.0.0.0.y.0.8.0.q.0.0.q.q.0.0.y.y.y.0.0.0.0.u.8.p.w.V.",
"H Z Z Z S S A A P <.<.5.r.8.#.} } +.[ O.[ #.O.+.+.=.-.o.+.o.+.+.+.+.{ X.{ { { +.{ -.*.{ { { +.+.O.{ +.{ -.+.-.{ +.O.:.} -.+.y.w.",
"Z Z S N S N Z Z L T T <./ ) o.-.X.%.X.{ ....{ { { { *.*.{ { { { { } } ] ] ] ' ' ] ] ] ]  .*.X.*.{  .]  .] } ] ] { X.' { ' *.@.r.",
"Z N S Z M T Z.k.k.k.k.j.T T I ! ~ ~ -.o.O.O.-.=.=.=.=.=.@.o.:.#.#.t.%.%.{ X.X. .' ] ] ] ] *.*.*.{ ] ] ] { { { [ { X.[ X.' *.+.8.",
"A A A T h.k.kXlXlXlX,X=Xk.j.T I ( Q ( ) 2.2.2.3.3.3.s.a.5.5.a.a.5.a.d.d.;.=.o.{ { [ ' { { *.*.+.{ | |  .{ |  . .| [ X.[ *.} #.8.",
",.,.^ 7.-XlXzXfXGXBXfXgX>X=Xx.B./ Q C L P T N.Z.G.G.G.G.H.H.G.G.G.G.F.F.C.5.2.:.+.{ | | ] ] { X.|  . . . .] |  . .X.' ] ] { :.9.",
"w.q.w.V.jXmXVXFXZXBXNXdX6XaXn.b.Z.` L L T k.k.jXkXlXlXlXlXkXlXkXkXkXkXjXH.D.C.6.r.@.[ ' | [ ....[ | |  .[  . .' ' [  .]  .{ +.@.",
"u.8.r.C.kXVXBXVXVXNXNXyXrX9X>XM.k.Z.U k.-XlXgXzXVXVXBXVXVXfXVXfXfXfXgXgXgXkXH.G.C.y.d.+.......[ X.[ ' ] { { { X.[  .[ '  .{ @.t.",
"u.8.;.6.jXgXdXBXBXBXNXyXeX9X%XhX-X-X|.lXlXzXVXVXGXSXDXSXDXDXNXCXZXCXZXBXVXgX,XjXH.Z.6.d.@.#.%.O.[ [ [ { { { { ] { { { ] ] ] o.@.",
"u.r.;.C.=XBXMXMXfXBXdXcX8X8XOX1X6XgXVXFXFXFXZXFXFXFXFXZXZXZXNXSXAXCXCXCXvXfXgXaXkXJ.G.j.5.2.t.o.+.-.{ *.*.{ { } [ { X.] ] ] o.t.",
"u.r.;.6.=XaXfXdXfXdXdXyX0XiXiXiXvXZXDXCXGXAXDXDXZXDXAXBXZXZXAXCXAXCXCXCXcXdXdXsX<X>XkXk.D.R / ) o.} o.o.+.-.{ { { { { { ] ] o.r.",
"u.r.;.6.b.>XsXyXyXyXtXeX0X6XiXMXCXHXHXHXHXHXAXKXJXFXJXAXSXCXAXCXCXCXcXNXMXyXMXrXdXsXgX,XjXj.T ^ Q Q ! ! ! ) } { O.#.....{ *.#.t.",
"d.r.=.3.D.:X>X9XrXeXtXqX8XiXfXZXAXHXAXHXHXHXJXJXHXbXGXKXZXZXvXZXNXcXMXNXMXyXMXtXcXcXdXfX,XjXU D S B B C C J J Q ! &.! &.} } @.0.",
"s.r.#.r.S.b.;X6X9X8XqXqXuXdXNXZXDXDXDXHXHXSXJXGX1XR.1XGXFXDXNXNXNXdXuXiXmXMXvXcXcXtXtX0XaX,Xk.U Z V B B B B V V V J J J J ! ( ( ",
"u.r.#.;.3.D.m.;X&X0X5XqXyXNXZXZXZXDXAXDXHXKXJX1X1XpX|.mXGXGXZXNXBXhX|.Y.iXSXbXcXcXtXtXyXaXaX>Xm.R ^ ^ ^ Q ( ^ ! ! J ! J ! J ( <.",
"u.:.-.-.:.6.D.M.*X%X5XtXMXZXAXAXAXHXAXJXJXJXnXY.IXPXpXhXIXFXGXSXgX|.pXpX XfXbXyXyX8XeXrXrX9XaX,XZ.5.r.#.$.@.$.o.O.} } } ] } @.0.",
"t.#.+.*.=.3.B.m.c.*X%XyXNXZXAXAXHXAXDXGXJXJX|.Y.PXPXIXz VXVXSXFX X|.PXPX|.1XuXuXuXuXeXtXeX9XaX>XH.Z.i.:.+.#.+.[ [ [ { { *.*.8.0.",
"e.+.X.*.+.:.3.S.m.M.aXdXNXAXAXAXZXDXDXAXFXFX* R.PXPX|.z GXVXFXGXz pXPXPXz 1XmXuXuXfXtXeXeX8XuX>X:XH.3.@.+...X.[ [ { +.-...O.#.q.",
"t.+.{ { { #.r.6.D.:XaXfXZXZXZXZXAXDXZXDXGXFX* % .XIX% z FXFXDXmX% |.PXPXx |.fXuX8XrXeXqXqX4X8X0X<XjX4.=.{ | X.{ { { *.{ [ O.q.$.",
"t.#.]  .' { +.5.G.jXaXdXCXCXZXZXFXZXZXFXDXGX%   & *   * FXFXGX1X. * IX.X. l VXyXuXeXqXqX4X4X7X0X9X:XF._ =.]  .]  .*.] ] | ..$.9.",
"e.+.{ *.' [ +.3.G.:XgXfXCXAXZXZXNXZXDXDXFXnX& # #     |.FXAXAX1X.   * % . E.fXeXtXqX5X0X8X3X3X7X&X<XD.d.=.{  .] ] *.] ] | ..%.$.",
"e.#.]  .| { #.6.H.gXfXMXCXAXAXZXDXDXZXFXGXKX& $ # $ $ xXKXSXDX1X$ #     . 1XyXqXqXqX3X7X7X2X2X3X&X;XH.6.=.{ ] ] ] *.] ' | | $.9.",
"s.#.X. .] { ;.C.=XgXfXMXCXAXAXCXAXAXZXFXGXLXP.K.K.K.* nXDXSXSXxX& $ $ $ & 1XuXqXqX4X3X&X#X2X2X5X7X;XH.S._ -.]  . .*. . .| | $.9.",
"u.9.&.' ] -.r.C.,XfXdXMXCXCXCXCXCXCXCXCXAXLXT.P.P.P.}.KXKXAXFXxXL.K.K.L.U.xXuX8X4X4X@X#X$X4X5X5X#XM.b.S.3.>.] |  .] ] { ' [ #.8.",
"s.9.]  .' +.r.S.,XfXdXMXCXCXvXvXbXvXbXvXAXKX}.I.P.I.UXKXSXAXGXxXI.P.P.I.}.nXuXeX4X4X2X#X@X2X].].#X*XM.D.6.:.o. .{ { { { | [ #.9.",
"s.8.{ | ' { ) C.:XfXdXcXCXvXiXOX[.[.[.[.vXAXLXT.U.}.KXKXAXZXmXKX}.I.I.T.xXbXtXqX2X5X@X+X$X@X@X5X@X%X;Xb.D.S.2.:.-.{ ] { [ [ @.@.",
"s.@.+. .| %.@.B.:XsXfXMXCXCXiX[.[.wX[.[.vXCXKX1XxXLXGXGXBXFXmXGXUXU.I.UXbXbXqX`.].`.`.~.oX+X@X`.$X$X;X;Xn.G.Z.V.2.:.{ { ..[ #.;.",
"u.#.+.{ [ [ $.5.=X0XdXdXNXNXcXwXvX[.[.vXvXcXFXZXGXGXbXiXuXmXmXmXSX1X1XbXvXqX`.'././.W.W.^.oX$X$X@X$X6X6X<X:XH.G.C.3.;.+...[ #.;.",
"u.r.=.{ &.&.( 5.=XaXyXyXcXNXNXcXvXvXvXcXcXcXMXVXfX|.x x x x l hXiXuXvXyXeX8X).'.{.{.{.W.^.!.OX$X`.5X0XrXsXgXaX=Xb.F.6.r.O.O.+.;.",
"u.@.o.&.~ ~ ~ 7.:XsX9XyXcXcXcXcXvXCXcXMXNXMXMXfXY.+ X X X X X + l 6XuX8X8X3X).W./.{./.W.^.).$X(.(.5X5XuXdXfXfXaX>Xn.S.6.#.O.#.@.",
"u.) ~ ! ~ } 9.C.:X0XrXyXcXcXcXNXvXvXcXNXMXyXBXfXx X + 3 ; X X X + Q.8X7X9X2X@X_././././._.).$XOX).$X5XyXMXfXMXdX6X,Xb.C.y.$.t.9.",
",.( ~ } ] { ;.C.M.<XsXyXyXMXcXyXdXdXMXMXMXdXrXfXl 2 i c c 2 k ; ; m 7X8X3X4X@X@X_.`.`._.).).(.OXOX5X5XcXMXMXNXBX6X<X;XD.6.9.8.@.",
",.( } { *.-.;.6.n.;X9XrXyXdXyXdXdXfXdXdXMXyXdXfXoXc c c c c v k k OX7X2X3X2X2X@X@X)._._.Q.).OXOXOX5XiXyXcXNXNXNXsX&X;Xb.6.,.) ) ",
"p.) +.X.] { ;.3.H.;X<XrXyXrXrXdXfXfXfXcXcXdXfXrX9Xn n c n c v n Q.#X#X#X2X2X@X@X).+X~.~.).Q.(.OX(.`.0XeXyXMXNXNXrX7X%Xc.7.$.( ~ ",
"s.t.O.[ ' +.@.s.F.M.%X9XyXuXrXrXrXyXyXyXyXrXrXrXsX&X~.n n n n !.&X#X$X@X@X@X$X).+X!.Q.XX!.).`.`.].`.8X8XtXyXMXMXeX7X%Xm.7.) ) $.",
":.o.{ | { +.+.r.3.G.;X0XrXrXrXrXtXrXtXrXrXrXrX9XrX7X#X+X+X~.+X#X#X@X+X#X@X+X$X).!.XX^.Q.!.(.(.(.$X).8X8XeXtXtXtXeX&X*Xz.1.o.@.#.",
"t.+.X. .{ { O.-.2.F.;X<X0XeXyXeXeXyXeXeX9XrX9X8X8X7X3X3X#X#X#X#X+X#X+X+X+XoX+X(.!.!.^.^.^.Q.(.!.XXXXOX0X8XeXeX4X2X$Xc.x.3.o.#.$.",
"u.o.[  .{ { { -.i.6.n.<XaXuXtXtXeXeXrX8X9X7X8X8X8X4X7X4X#X#X#X@X+X+X+X~.+XoX!.Q.).!.^.^.XXXXXX*Xc.c.v.%X%X&X3X$XXXc.x.j.3.-.#.$.",
"t.$.+.%. .} [ =.:.f.n.;X6X6XwXtXeX8X8X8X9X7X7X7X#X3X3X@X@X@X+X+X_.@X+X_.!.^.Q.XX!.).^.^.^.v.XXM.m.x.z.c.c.v.XX*Xc.z.x.4.:.:.@.9.",
"u.9.#.' ..X.+.:.7.S.M.l.%XfXeXeXeX8X7X7X7X&X7X#X3X3X@X2X#X@X+XoX+X+X_.~.~.!.Q.XXQ.Q./.).oXv.M.m.D.S.x.x.x.z.z.z.x.x.1.3.>.=.:.9.",
"e.q.O.%.| [ :.f.S.U 9 k m 0X4X5X4X8X9X9X7X&X#X7X3X#X@X@X@X@X+X+X~.oX_._.~.!.XXQ.!.+X`.`.OXv.M.b.C.3.3.4.R S.x.j.f.f._ >.-.{ @.8.",
"e.$.O...' } 6.S.Y O < ; p E.wXqXqX4X2X3X#X&X#X#X#X#X@X$X+X+XoX~.oX+X_._.^.!.^.XXQ.)./.2XQ.v.9 x.6.r.:.i._ 6.6.6._ >.>.*.{ [ #.9.",
"u.9...%.=.3.S.Y o < ; q q l `.[.4XqX8X3X#X#X#X#X@X@X@X@X@X+X~.oX~.!._./.).!.oXXXQ.`.].].E.k = Y 4.s._ *.=.=.;.@.>.>.*.*.] [ #.9.",
":.;.&.:.3.f.9 < : w w r t q p E.5X8X4X5X7X7X#X+X#X+X+X+X_._.~.~.oX~._.`.).^.Q.^._._.[.E.i + X = Y 4.3.;.*.} ] '  .] ' ] ' [ #.9.",
"u.;.o.i.S.9 7 2 r r r t t t t E.E.].4X4X3X2X@X@X+X+X+X@X+X_.~.~.oX~.).`.).).!.!.).Q.b i ; - ; X @ 8 S.3.>.]  . .| ] ' ] | [ #.$.",
"s.2.d.6.Y 7 2 f s s j r r r t q u E.`.5X4X2X@X2X+X+X$X+X+X~.~.~.~.~.).).).`.).^.v b a ; ; ; - ; 3 = Y f.3.*.} [ [ X. .] | O.9.$.",
"/ ^ / 4.= 2 y d g r s j r u u t w t j b `.2X2X@X#X#X$X+X$XoXoXoX~.+X@X`.`.).'.b i ; ; - q q t : > , 4 Y f.=.*.[ O.X. . .| ..9.9.",
"N N L j.4 f f h h h h h h h d d e r q u j b ).`.`.&X#XXXv.oX+X+X_.`.`.'.E.b b w : : : : t t t e w > 2 4 F.3.>.] -.*.] ] ] X.$.q.",
"A Z Z U = 2 f d h d f f d d s s e e w : : a 1 k b m m c.c.c.v.v.Q.b b p a - q w t : : e t e e e t > > = Y f.>.*.{ { ]  . .[ $.q.",
"A D D U 6 7 2 f f i f f f f y y > 1 , > , 3 3 O O O @ 4 x.z.z.7 < 1 : - r w w w t e > > d d e > e e > 2 4 f._ X.' ] ] *. ...$.9.",
"G Z Z L Y 8 0 = = 2 , 2 2 , , , , , = = O O 9 8 5 K K K S.S.F.Y O = - w t t t r e e e d e d d e e f > 2 4 f.d.]  .' ] ]  ...$.$.",
"G J A C E E E 6 5 6 6 0 6 6 6 6 6 6 6 6 5 K x.f.C.V.6.2.3.2.3.6.8 o 3 1 e s r r r r s s s s d e e e e 2 4 W f.'  .' ] { +.+.#.9.",
"N.<.8.~ _ ~ 3.` 1.R f.f.W f.f.R f.4.R U E E ` ` ` ,.2.0.:._ ;.i.C.5 O < > 1 y s g s s g j g r e > f 1 = = F.:.*.X. .' { { +.#.@.",
"s.9.O.{ *.] *.o.>.:._ _ :.;.=._ 2.5.I M Z Z N L P ^ ^ / ( o.o.8.2.6.U 9 = , , f y j j j p u p j f 1 2 = 4 f.>.*.| ..| { { +.#.#.",
"s.9.+.X.' | '  .' *.*.] ] ] ] ] +.@.I N N N N N N S S J J J J ! ) 2.6.x.Y 9 = , , v `.'.b b n oXv.m m Y K 3.>.*.[ ..{ { ] { O.$.",
"u.t.o.-.{ | [ { ] ] ] ] ] {  .] { o.Q B N N N N N N C S V C V C J C ^ ` 4.W Y 6 4 c.<X<X0XsXsXsX<X:Xg.F.f.>.{ [ O.O.{ [  .{ +.#.",
"u.8.=.*.{ { [ [ ] ] | ] { ] { ] { { Q B C B B B C S C S B B B V V V C C I / E W 5 j.n.g.l c.l.l.z.Y 5 1._ *.} ' [ ..{ ] ] [ O.$.",
"e.q.{ ] { | { { { ] [ [ { *.*.] { { ! J Q Q Q Q ! ^ Q Q Q Q Q Q J Q Q Q Q ! ! ` P R j.U U U g.Y Y E K :.>.X.[ { { { ] ] ] [ #.:.",
"e.$.{ ] ]  .{ { { { [ ..{ { ] ] ] +.O.} } } } O.&.O.} } o.=._ @.$.$.O.} ' &.o.o.I N P L T R R N.j.7.2.d.-.*.[ { { { ] ] { { #.#.",
"e.#.{  .' ] ] { O...O...O.{ [ | ' { [ { %.[ | { O.O...| ] *.=.o.#.-.-.+.{ [ %.$.^ S N L L L S Z I P / Q ! ) o.#.o.*.*.{ { o.r.8.",
"s.0.=.-.{ { +.o.O.O.O.O.#.O.+.O.O.+.#.O.+.O.+.O.$.%...+.{ { =.:.O.o.) @.#.+.9.8.J S N Z M Z S V N N P N C P P Q / ) ) o.@.r.0.p.",
"A.V.5.r.r.0.r.y.0.8.9.0.r.r.0.q.0.u.,.y.y.0.w.0.w.0.0.8.9.8.0.u.9.u.5.p.,.,.0.w.J D D H H F D D D D M Z Z D D D A A A ^ ^ <.<.N.",
"Z.C.5.a.p.y.5.5.y.0.y.p.2.5.y.0.p.p.5.p.p.5.a.w.V.w.w.0.0.0.w.w.p.,.w.V.w.a.a.w.G Z H H h.F F D F D H D H H T H D Z Z Z G T N.N."
};
