/* XPM */
static char *_c9bd49ca74b4702ccbb6d00ff6530c2p4SHzLIDelQm0vqg[] = {
/* columns rows colors chars-per-pixel */
"64 64 122 2 ",
"   c #84BA28",
".  c #8ECD26",
"X  c #99E124",
"o  c #9FED23",
"O  c #A1F023",
"+  c #A1EF23",
"@  c #73AA14",
"#  c #74AB14",
"$  c #77B113",
"%  c #7EBE12",
"&  c #88D011",
"*  c #91E10F",
"=  c #96EC0E",
"-  c #98EF0E",
";  c #98EE0E",
":  c #74AB15",
">  c #73AA15",
",  c #77B015",
"<  c #7EBE13",
"1  c #89D311",
"2  c #92E310",
"3  c #97EC0F",
"4  c #99EF0F",
"5  c #98EF0F",
"6  c #98EE0F",
"7  c #78B214",
"8  c #7FC013",
"9  c #97ED0F",
"0  c #73A915",
"q  c #77B115",
"w  c #8AD411",
"e  c #96EA0F",
"r  c #86C71B",
"t  c #82C612",
"y  c #83C613",
"u  c #82C613",
"i  c #82C513",
"p  c #83C712",
"a  c #80C113",
"s  c #7BB914",
"d  c #90E010",
"f  c #95E90F",
"g  c #89D112",
"h  c #76AF15",
"j  c #7BB714",
"k  c #81C413",
"l  c #89D211",
"z  c #90DE10",
"x  c #95E810",
"c  c #98ED0F",
"v  c #89D212",
"b  c #74AA15",
"n  c #76AE15",
"m  c #7AB614",
"M  c #81C313",
"N  c #88D012",
"B  c #8FDD11",
"V  c #94E710",
"C  c #75AE15",
"Z  c #79B514",
"A  c #87CE12",
"S  c #8EDB11",
"D  c #94E610",
"F  c #75AC15",
"G  c #78B314",
"H  c #85CB12",
"J  c #8DD911",
"K  c #93E410",
"L  c #96EB0F",
"P  c #8CD811",
"I  c #7BB814",
"U  c #7CBA14",
"Y  c #80C013",
"T  c #86CC12",
"R  c #8BD611",
"E  c #90DF10",
"W  c #8DDA11",
"Q  c #79B414",
"!  c #7DBB14",
"~  c #91E110",
"^  c #74AC15",
"/  c #7DBC13",
"(  c #91E210",
")  c #8FDE10",
"_  c #75AD15",
"`  c #88D112",
"'  c #91E010",
"]  c #77B114",
"[  c #7FBF13",
"{  c #93E510",
"}  c #92E410",
"|  c #8CD711",
" . c #88CF12",
".. c #86CD12",
"X. c #87CF12",
"o. c #8EDC11",
"O. c #92E210",
"+. c #8DDA10",
"@. c #85CA12",
"#. c #92D524",
"$. c #86CE11",
"%. c #97EB0F",
"&. c #90D51F",
"*. c #8AD511",
"=. c #87CD12",
"-. c #98E024",
";. c #93E60F",
":. c #81B428",
">. c #78B313",
",. c #80B229",
"<. c #76B015",
"1. c #84C912",
"2. c #73AB14",
"3. c #7CB914",
"4. c #7FB129",
"5. c #91D326",
"6. c #7CBB14",
"7. c #80C213",
"8. c #7EBD13",
"9. c #8FDC11",
"0. c #8BD511",
"q. c white",
/* pixels */
"  . X o O O O + + + + + + + + + + + + + + + + + + + + + + + + + + + + + + + + + + + + + + + + + + + + + + + + + + + + + + + + + ",
"@ # $ % & * = - - ; ; ; ; ; ; ; ; ; ; ; ; ; ; ; ; ; ; ; ; ; ; ; ; ; ; ; ; ; ; ; ; ; ; ; ; ; ; ; ; ; ; ; ; ; ; ; ; ; ; ; ; ; ; ; ",
": : : > : , < 1 2 3 4 5 6 6 6 6 6 6 6 6 6 6 6 6 6 6 6 6 6 6 6 6 6 6 6 6 6 6 6 6 6 6 6 6 6 6 6 6 6 6 6 6 6 6 6 6 6 6 6 6 6 6 6 6 ",
": : : : : : > : 7 8 1 2 9 4 5 6 6 6 6 6 6 6 6 6 6 6 6 6 6 6 6 6 6 6 6 6 6 6 6 6 6 6 6 6 6 6 6 6 6 6 6 6 6 6 6 6 6 6 6 6 6 6 6 6 ",
": : : : : : : : : > : 7 8 1 2 9 4 5 6 6 6 6 6 6 6 6 6 6 6 6 6 6 6 6 6 6 6 6 6 6 6 6 6 6 6 6 6 6 6 6 6 6 6 6 6 6 6 6 6 6 6 6 6 6 ",
"> > > > > > > > > > > 0 0 > q 8 w 2 e 6 4 5 6 6 6 6 6 6 6 6 6 6 6 6 6 6 6 6 6 6 6 6 6 6 6 6 6 6 6 6 6 6 6 6 6 6 6 6 6 6 6 6 6 6 ",
"r t y y y y y y y y y y y y u i p a s u w d f 6 4 5 6 6 6 6 6 6 6 6 6 6 6 6 6 6 6 6 6 6 6 6 6 6 6 6 6 6 6 6 6 6 6 6 6 6 6 6 6 6 ",
"O ; 6 6 6 6 6 6 6 6 6 6 6 6 6 6 4 g > > : h j k l z x c 4 4 6 6 6 6 6 6 6 6 6 6 6 6 6 6 6 6 6 6 6 6 6 6 6 6 6 6 6 6 6 6 6 6 6 6 ",
"+ ; 6 6 6 6 6 6 6 6 6 6 6 6 6 6 4 v : : : : b > : n m M N B V 9 5 4 6 6 6 6 6 6 6 6 6 6 6 6 6 6 6 6 6 6 6 6 6 6 6 6 6 6 6 6 6 6 ",
"+ ; 6 6 6 6 6 6 6 6 6 6 6 6 6 6 4 v : : : : : : : : b > b C Z a A S D 3 5 4 5 6 6 6 6 6 6 6 6 6 6 6 6 6 6 6 6 6 6 6 6 6 6 6 6 6 ",
"+ ; 6 6 6 6 6 6 6 6 6 6 6 6 6 6 4 g > b b b b b b b b b b > > 0 0 F G < H J K L 6 5 4 5 5 6 6 6 6 6 6 6 6 6 6 6 6 6 6 6 6 6 6 6 ",
"+ ; 6 6 6 6 6 6 6 6 6 6 6 6 6 6 5 P I I I I I I I I I I I I I I I I I j j U Y y k T R E D L 6 4 4 5 6 6 6 6 6 6 6 6 6 6 6 6 6 6 ",
"+ ; 6 6 6 6 6 6 6 6 6 6 6 6 6 6 6 9 e e e e e e e e e e e e e e e e e e e e e W F > : n Q ! k A P ~ V 3 6 4 4 5 6 6 6 6 6 6 6 6 ",
"+ ; 6 6 6 6 6 6 6 6 6 6 6 6 6 6 6 6 6 6 6 6 6 6 6 6 6 6 6 6 6 6 6 6 6 6 6 6 4 z C : : : b > > b ^ h Z / y N W ( x 3 6 4 4 5 6 6 ",
"+ ; 6 6 6 6 6 6 6 6 6 6 6 6 6 6 6 6 6 6 6 6 6 6 6 6 6 6 6 6 6 6 6 6 6 6 6 6 4 ) _ b : : : : : : b b > > 0 > ^ h m < p ` S 2 f 3 ",
"+ ; 6 6 6 6 6 6 6 6 6 6 6 6 6 6 6 6 6 6 6 6 6 6 6 6 6 6 6 6 6 6 6 6 6 6 6 6 5 ' Z 7 7 7 7 7 7 7 7 7 7 7 7 7 7 7 ] ] ] 7 Q I [ u ",
"+ ; 6 6 6 6 6 6 6 6 6 6 6 6 6 6 6 6 6 6 6 6 6 6 6 6 6 6 6 6 6 6 6 6 6 6 6 6 6 3 { { { { { { { { { { { { { { { { { { { { { K K } ",
"+ ; 6 6 6 6 6 6 6 6 6 6 6 6 6 6 6 6 6 6 6 6 6 6 6 6 6 6 6 6 6 6 6 6 6 6 6 6 6 6 5 5 5 5 5 5 5 5 5 5 5 5 5 5 5 5 5 5 5 5 5 5 5 5 ",
"+ ; 6 6 6 6 6 6 6 6 6 6 6 6 6 6 6 6 6 6 6 6 6 6 6 6 6 6 6 6 6 6 6 6 6 6 6 6 6 6 6 6 6 6 6 6 6 6 6 6 6 6 6 6 6 6 6 6 6 6 6 6 6 6 ",
"+ ; 6 6 6 6 6 6 6 6 6 6 6 6 6 6 6 6 6 6 6 6 6 6 6 6 6 6 6 6 6 6 6 6 6 6 6 6 6 6 6 6 6 6 6 6 6 6 6 6 6 6 6 6 6 6 6 6 6 6 6 6 6 6 ",
"+ ; 6 6 6 6 6 6 6 6 6 6 6 6 6 6 6 6 6 6 6 6 6 6 6 6 6 6 6 6 6 6 6 6 6 6 6 6 6 6 6 6 6 6 6 6 6 6 6 6 6 6 6 6 6 6 6 6 6 6 6 6 6 6 ",
"+ ; 6 6 6 6 6 6 6 6 6 6 6 6 6 6 6 6 6 6 6 6 6 6 6 6 6 6 6 6 6 6 6 6 6 6 6 6 6 6 6 6 6 6 6 6 6 6 6 6 6 6 6 6 6 6 6 6 6 6 6 6 6 6 ",
"+ ; 6 6 6 6 6 6 6 6 6 6 6 6 6 6 6 6 6 6 6 6 6 6 6 6 6 6 6 6 6 6 6 6 6 6 6 6 6 6 6 6 6 6 6 6 6 6 6 6 6 6 6 6 6 6 6 6 6 6 6 6 6 6 ",
"+ ; 6 6 6 6 6 6 6 6 6 6 6 6 6 6 6 6 6 6 6 6 6 6 6 6 6 6 6 6 6 6 6 6 6 6 6 6 6 6 6 6 6 6 6 6 6 6 6 6 6 6 6 6 6 6 6 6 6 6 6 6 6 6 ",
"+ ; 6 6 6 6 6 6 6 6 6 6 6 6 6 6 6 6 6 6 6 6 6 6 6 6 6 6 6 6 6 6 6 6 6 6 6 6 6 6 6 6 6 6 6 6 6 6 6 6 6 6 6 6 6 6 6 6 6 6 6 6 6 6 ",
"+ ; 6 6 6 6 6 6 6 6 6 6 6 6 6 6 6 6 6 6 6 6 6 6 6 6 6 6 6 6 6 6 6 6 6 6 6 6 6 6 6 6 6 6 6 6 6 6 6 6 6 6 6 6 6 6 6 6 6 6 6 6 6 6 ",
"+ ; 6 6 6 6 6 6 6 6 6 6 6 6 6 6 6 6 6 6 6 6 6 6 6 6 6 6 6 6 6 6 6 6 6 6 6 6 6 6 6 6 6 6 6 6 6 6 6 6 6 6 6 6 6 6 6 6 6 6 6 6 6 6 ",
"+ ; 6 6 6 6 6 6 6 6 6 6 5 6 6 6 6 6 6 6 6 6 6 6 6 6 6 6 6 6 6 6 6 6 6 6 6 6 6 6 6 6 6 6 6 6 6 6 6 6 6 6 6 6 6 6 6 6 6 6 6 6 6 6 ",
"+ ; 6 6 6 6 5 4 6 3 f D { D f e 3 6 4 4 5 6 6 6 6 6 6 6 6 6 6 6 6 6 6 6 6 6 6 6 6 6 6 6 6 6 6 6 6 6 6 6 6 6 6 6 6 6 6 6 6 6 6 6 ",
"+ ; 6 6 5 3 2 |  .T T ..A ..T T T X.w S 2 e 6 4 5 6 6 6 6 6 6 6 6 6 6 6 6 6 6 6 6 6 6 6 6 6 6 6 6 6 6 6 6 6 6 6 6 6 6 6 6 6 6 6 ",
"+ ; 5 3 o.T A W 2 f 3 c 6 c 3 L x 2 o.w A H A R ~ e 6 4 5 6 6 6 6 6 6 6 6 6 6 6 6 6 6 6 6 6 6 6 6 6 6 6 6 6 6 6 6 6 6 6 6 6 6 6 ",
"O ; O.T v { 6 4 5 6 6 6 6 6 6 6 6 5 4 4 6 e 2 J N T  .J K 3 5 5 6 6 6 6 6 6 6 6 6 6 6 6 6 6 6 6 6 6 6 6 6 6 6 6 6 6 6 6 6 6 6 6 ",
"+ +.@.~ 6 5 6 6 6 6 6 6 6 6 6 6 6 6 6 6 6 6 5 4 6 e O.| A H l ) x c 4 5 6 6 6 6 6 6 6 6 6 6 6 6 6 6 6 6 6 6 6 6 6 6 6 6 6 6 6 6 ",
"#.$.f 5 6 6 6 6 6 6 6 6 6 6 6 6 6 6 6 6 6 6 6 6 6 6 5 4 c x ) l T A R ~ e 6 4 5 6 6 6 6 6 6 6 6 6 6 6 6 6 6 6 6 6 6 6 6 6 5 5 %.",
"&.L 5 6 6 6 6 6 6 6 6 6 6 6 6 6 6 6 6 6 6 6 6 6 6 6 6 6 6 6 5 5 3 K J N T A | ~ f 9 5 4 5 6 6 6 6 6 6 6 6 6 6 6 6 6 4 5 9 K R H ",
"O ; 6 6 6 6 6 6 6 6 6 6 6 6 6 6 6 6 6 6 6 6 6 6 6 6 6 6 6 6 6 6 6 5 4 6 L O.J N H ..1 J ' D e 3 6 6 6 6 6 6 6 9 e { ) *.T ..J V ",
"+ ; 6 6 6 6 6 6 6 6 6 6 6 6 6 6 6 6 6 6 6 6 6 6 6 6 6 6 6 6 6 6 6 6 6 6 6 5 4 6 %.D z R N ..T T A N N N N N A ..T =.l o.D 9 4 6 ",
"+ ; 6 6 6 6 6 6 6 6 6 6 6 6 6 6 6 6 6 6 6 6 6 6 6 6 6 6 6 6 6 6 6 6 6 6 6 6 6 6 6 6 5 4 5 c L x { O.( ( ( ( { V L c 5 4 6 6 6 6 ",
"+ ; 6 6 6 6 6 6 6 6 6 6 6 6 6 6 6 6 6 6 6 6 6 6 6 6 6 6 6 6 6 6 6 6 6 6 6 6 6 6 6 6 6 6 6 6 6 6 6 5 5 5 5 5 5 6 6 6 6 6 6 6 6 6 ",
"+ ; 6 6 6 6 6 6 6 6 6 6 6 6 6 6 6 6 6 6 6 6 6 6 6 6 6 6 6 6 6 6 6 6 6 6 6 6 6 6 6 6 6 6 6 6 6 6 6 6 6 6 6 6 6 6 6 6 6 6 6 6 6 6 ",
"+ ; 6 6 6 6 6 6 6 6 6 6 6 6 6 6 6 6 6 6 6 6 6 6 6 6 6 6 6 6 6 6 6 6 6 6 6 6 6 6 6 6 6 6 6 6 6 6 6 6 6 6 6 6 6 6 6 6 6 6 6 6 6 6 ",
"+ ; 6 6 6 6 6 6 6 6 6 6 6 6 6 6 6 6 6 6 6 6 6 6 6 6 6 6 6 6 6 6 6 6 6 6 6 6 6 6 6 6 6 6 6 6 6 6 6 6 6 6 6 6 6 6 6 6 6 6 6 6 6 6 ",
"+ ; 6 6 6 6 6 6 6 6 6 6 6 6 6 6 6 6 6 6 6 6 6 6 6 6 6 6 6 6 6 6 6 6 6 6 6 6 6 6 6 6 6 6 6 6 6 6 6 6 6 6 6 6 6 6 6 6 6 6 6 6 6 6 ",
"+ ; 6 6 6 6 6 6 6 6 6 6 6 6 6 6 6 6 6 6 6 6 6 6 6 6 6 6 6 6 6 6 6 6 6 6 6 6 6 6 6 6 6 6 6 6 6 6 6 6 6 6 6 6 6 6 6 6 6 6 6 6 6 6 ",
"+ ; 6 6 6 6 6 6 6 6 6 6 6 6 6 6 6 6 6 6 6 6 6 6 6 6 6 6 6 6 6 6 6 6 6 6 6 6 6 6 6 6 6 6 6 6 6 6 6 6 6 6 6 6 6 6 6 6 6 6 6 6 6 6 ",
"+ ; 6 6 6 6 6 6 6 6 6 6 6 6 6 6 6 6 6 6 6 6 6 6 6 6 6 6 6 6 6 6 6 6 6 6 6 6 6 6 6 6 6 6 6 6 6 6 6 6 6 6 6 6 6 6 6 6 6 6 6 6 6 6 ",
"O ; 6 6 6 6 6 6 6 6 6 6 6 6 6 6 6 6 6 6 6 6 6 6 6 6 6 6 6 6 6 6 6 6 6 6 6 6 6 6 6 6 6 6 6 6 6 6 6 6 6 6 6 6 6 6 6 6 6 6 6 6 6 6 ",
"-.;.9 4 5 6 6 6 6 6 6 6 6 6 6 6 6 6 6 6 6 6 6 6 6 6 6 6 6 6 6 6 6 6 6 6 6 6 6 6 6 6 6 6 6 6 6 6 6 6 6 6 6 6 6 6 6 6 6 6 6 6 6 6 ",
":.>.a v ' e 6 4 5 6 6 6 6 6 6 6 6 6 6 6 6 6 6 6 6 6 6 6 6 6 6 6 6 6 6 6 6 6 6 6 6 6 6 6 6 6 6 6 6 6 6 6 6 6 6 6 6 6 6 6 6 6 6 6 ",
",.@ > : <.U 1.W D 9 4 5 6 6 6 6 6 6 6 6 6 6 6 6 6 6 6 6 6 6 6 6 6 6 6 6 6 6 6 6 6 6 6 6 6 6 6 6 6 6 6 6 6 6 6 6 6 6 6 6 6 6 6 6 ",
",.2.: : : b > _ Q a ` d e 6 4 5 6 6 6 6 6 6 6 6 6 6 6 6 6 6 6 6 6 6 6 6 6 6 6 6 6 6 6 6 6 6 6 6 6 6 6 6 6 6 6 6 6 6 6 6 6 6 6 6 ",
",.2.: : : : : : b > : h 3.1.J D 9 4 5 6 6 6 6 6 6 6 6 6 6 6 6 6 6 6 6 6 6 6 6 6 6 6 6 6 6 6 6 6 6 6 6 6 6 6 6 6 6 6 6 6 6 6 6 6 ",
"4.@ b b b b b b b b b > 0 0 : G 8 N ' L 6 4 5 6 6 6 6 6 6 6 6 6 6 6 6 6 6 6 6 6 6 6 6 6 6 6 6 6 6 6 6 6 6 6 6 6 6 6 6 6 6 6 6 6 ",
"5.$.A A A A A A A A A A A A A ....../ 6.1.P { 3 5 4 5 6 6 6 6 6 6 6 6 6 6 6 6 6 6 6 6 6 6 6 6 6 6 6 6 6 6 6 6 6 6 6 6 6 6 6 6 6 ",
"O - 4 4 4 4 4 4 4 4 4 4 4 4 4 4 4 5 7.0 > F 7 8.H J { 3 5 4 5 6 6 6 6 6 6 6 6 6 6 6 6 6 6 6 6 6 6 6 6 6 6 6 6 6 6 6 6 6 6 6 6 6 ",
"+ ; 6 6 6 6 6 6 6 6 6 6 6 6 6 6 6 6 7.> : : : > b F 7 8.H J { 3 5 4 5 6 6 6 6 6 6 6 6 6 6 6 6 6 6 6 6 6 6 6 6 6 6 6 6 6 6 6 6 6 ",
"+ ; 6 6 6 6 6 6 6 6 6 6 6 6 6 6 6 6 7.> : : : : : : : > b F G 8.H J { 3 5 4 5 6 6 6 6 6 6 6 6 6 6 6 6 6 6 6 6 6 6 6 6 6 6 6 6 6 ",
"+ ; 6 6 6 6 6 6 6 6 6 6 6 6 6 6 6 6 7.> : : : : : : : : : : b > > F 7 8.H J { 3 5 5 6 6 6 6 6 6 6 6 6 6 6 6 6 6 6 6 6 6 6 6 6 6 ",
"+ ; 6 6 6 6 6 6 6 6 6 6 6 6 6 6 6 6 u h , , , , , , , , , , , , , <.h h h ] j 7.N O.e 6 4 4 5 6 6 6 6 6 6 6 6 6 6 6 6 6 6 6 6 6 ",
"+ ; 6 6 6 6 6 6 6 6 6 6 6 6 6 6 6 6 D ( ( ( ( ( ( ( ( ( ( ( ( ( ( ( ( ( ( ( ~ ' 8., 3.k N 9.D 3 5 4 5 6 6 6 6 6 6 6 6 6 6 6 6 6 ",
"+ ; 6 6 6 6 6 6 6 6 6 6 6 6 6 6 6 6 6 5 5 5 5 5 5 5 5 5 5 5 5 5 5 5 5 5 5 5 5 6 a 0 b > : _ Q 8.1.0.' x c 5 4 5 6 6 6 6 6 6 6 6 ",
"+ ; 6 6 6 6 6 6 6 6 6 6 6 6 6 6 6 6 6 6 6 6 6 6 6 6 6 6 6 6 6 6 6 6 6 6 6 6 6 c a > : : : : b > > : h m a A W } L 6 4 4 6 6 6 6 ",
"+ ; 6 6 6 6 6 6 6 6 6 6 6 6 6 6 6 6 6 6 6 6 6 6 6 6 6 6 6 6 6 6 6 6 6 6 6 6 6 c a > : : : : : : : : : b > b F ] U u v ) D 3 6 5 ",
"+ ; 6 6 6 6 6 6 6 6 6 6 6 6 6 6 6 6 6 6 6 6 6 6 6 6 6 6 6 6 6 6 6 6 6 6 6 6 6 c a > : : : : : : : : : : : : : : > > : n m a X.o."
};
