/* XPM */
static char *_de5e83e86e741a1ce6fa3eb1a7f6ac2XwzKt44Dgmhlaqqa[] = {
/* columns rows colors chars-per-pixel */
"64 64 109 2 ",
"   c #000000",
".  c #060901",
"X  c #090D01",
"o  c #0D1402",
"O  c #101703",
"+  c #121B02",
"@  c #162202",
"#  c #192603",
"$  c #1C2B03",
"%  c #1F3003",
"&  c #202F05",
"*  c #223303",
"=  c #263B04",
"-  c #293E04",
";  c #2C4403",
":  c #2F4903",
">  c #314C03",
",  c #365303",
"<  c #385604",
"1  c #3C5C05",
"2  c #3A5408",
"3  c #3F6104",
"4  c #415F0D",
"5  c #426505",
"6  c #456A05",
"7  c #486C07",
"8  c #44630D",
"9  c #4C6E09",
"0  c #4B7305",
"q  c #4E7905",
"w  c #4D7109",
"e  c #517D05",
"r  c #557D0A",
"t  c #558405",
"y  c #5A8C05",
"u  c #598608",
"i  c #5E8A0B",
"p  c #5E9205",
"a  c #618E0C",
"s  c #619605",
"d  c #649C06",
"f  c #64950A",
"g  c #699C0B",
"h  c #679714",
"j  c #67A006",
"k  c #6AA406",
"l  c #6DAA06",
"z  c #6DA20C",
"x  c #71AF06",
"c  c #71A70B",
"v  c #75AC0D",
"b  c #74B406",
"n  c #77B905",
"m  c #79BD06",
"M  c #77B00D",
"N  c #79B30C",
"B  c #7DBC0B",
"V  c #70A516",
"C  c #7EC306",
"Z  c #7FC20A",
"A  c #81B324",
"S  c #85BB23",
"D  c #80C707",
"F  c #82CB06",
"G  c #81C30B",
"H  c #83C60B",
"J  c #83C70B",
"K  c #84C70B",
"L  c #84C80A",
"P  c #87CD0A",
"I  c #88CF0A",
"U  c #86D106",
"Y  c #88D306",
"T  c #89D507",
"R  c #8BD806",
"E  c #8DDB06",
"W  c #8EDC06",
"Q  c #89D109",
"!  c #8AD30A",
"~  c #8AD409",
"^  c #8BD509",
"/  c #8EDB09",
"(  c #90DF08",
")  c #87C814",
"_  c #92D61C",
"`  c #92E207",
"'  c #92E407",
"]  c #94E607",
"[  c #96E907",
"{  c #97ED06",
"}  c #98EC07",
"|  c #98ED07",
" . c #99EE06",
".. c #99EF06",
"X. c #98EE07",
"o. c #99EF07",
"O. c #9AEF07",
"+. c #92E308",
"@. c #93E408",
"#. c #94E508",
"$. c #96E908",
"%. c #98E11C",
"&. c #9AE21F",
"*. c #9EE81D",
"=. c #A0EE1E",
"-. c #A2EF1E",
";. c #A2F01E",
":. c #8FCE21",
">. c #92D421",
/* pixels */
"S :.&.=.=.;.;.=.=.;.=.-.-.-.-.-.;.=.;.=.-.-.=.-.-.-.-.-.=.*.V 8 8 h &.*.;.;.=.;.=.=.=.-.-.-.=.=.-.-.-.-.=.=.=.-.-.-.-.-.-.-.-.-.",
"v v N B Q +...............} ....o.$.........O.} ....} ..] e .     . 1 W ......................O.........O.O...........} ..} ....",
"v v v v v N B ~ #.......O.O...O.O.X.O.o...O.O.O.} O.....b .           p ........{ O.O.X.O.O.} } O.} } O...O.O.O...} O.O.O.O...} ",
"v v v v v v v v N G I ] O.O.O.O.X.X.O.o.O.} } O.O.O.} O.y             5 O.......o.o.$.X.} O.O.O.O...O.} $.X.O.O...O.O.} } } ..O.",
"v v v v v v v v v v v N G Q +.O.O.O.O.$.O.......O.} ....x X           y O.....O.....O.O.X.O.....} O.O.$...O.....O.O.O.O.O.O.O.} ",
"v v v v v v v v v v v v c v v G Q +.X.O.O.....W G n F $.#.q X       , W $.Q m B Y { O.O.$.O.O...} O.O.} O.O.....O...$.} O.} O.O.",
") L L K H H J L J G J J J J J J J G B G m k 6 % o X o t ..#.s .   1 / ..n $ X X @ < d F +.[ $...O.} O.O.O...o...O.$...O.} O.} O.",
";.....] F F D C C B n n b l j s u 7 ; * o .           + Z ..b X   q O.W :             O = < 0 t s d k b b b m B H C F D W ..$.O.",
"=...o.R = o O o o X X X . .                             # 7 s X   q y :                             . . X X X o o o o + b ....O.",
"=...o.$.d o                                               . 5 X   5 *                                               . 5 @...O.O.",
"=...X.O.O.n 7 > , X                                       X 1 X   2 $                                         ; , 1 d +.X.X.$...",
"-...O.O.O...O...+.;                                       X 6 X   2 $                                       o C ........O.O.X.O.",
"-.....O.o...O.o...F 7 ; ; o                               X t o   0 %                               . = ; 1 c ..o.o.O.O.X.X.O.X.",
"-...} O.o.$.O.$.......#.[ t                               X t o   0 *                               * M G I W ` $.$.O.O.O.X.o.$.",
"=.} O.O.X.O.$.O.O.O.O.O...+.6 O   X # 0 *                 X t o   0 %                 o 2 $ X   X * f v v v v M N H H Q ( #...} ",
"-...O.} O.O.....$.O.} O.....$.F l l P o.m -               o t o   0 *               O w N c i r i c N N N N N N M M N N N N G J ",
"-...O.} O.O.O.} O.X.O...O.O.O.O.} O...O.O.W d 5 > : > 1 q d b o   t b t 6 , : ; , t Z @.@.@.@.+.#.#.#.#.@.@.@.@.@.#.@.#.#.#.#.#.",
"-...O.} O.} O.O...$.O.$.O.O...o.$.O.....O./ J n l j n / ....C o   y ....{ P m n C T $.X.o.O.O.X...o.o.o.O.O.O.O.o.o.o.o.o.o.o.o.",
"-.} ....$.O.} O.O.O...o.$.X.O.o.o.O.O.K 0 * + X . . X - x ..C o   y ..U 1 + o X o @ ; q F o.O.O.o.o.o.o.O.O.O.X.o.o.o.o.O.O.o.o.",
"-...} O...O.} O.O.O.O.o...O.O.$.o...n #                 @ J F o   y ' >                 @ l O...o.o.o.o...$.O.O.o.o.o.o.X.O.o.o.",
"=...$.O.O.O.$...O.O.} $.} O.o.o...] ;     . + O           t F o   p b .         . o .     & R ..O.O.O.$...O...O.} O.O.O.O.o.o...",
"-...o.O.O.O.O.O...o.O.O.O.O...$...U O     * F F 6 o     o d F O   p n o       ; l C >     . b ..$.O.O.X.O.O.o.o.O.O.} ..X.$.O.O.",
"-...o...O.X.O.O.$.o.O.O.O.$.O.O...Y @     + n ....n d d m [ F o   p ..n y t d W o.R ;     X n O.o.O.O.X.O.O.X.$.O.$.o.o.} O.$.o.",
"-...o.$.O.O...$.O.O.} ..o.o...o...#.5       O 5 l Y ........F @ X d ....o...$.F y *       = ( { o.{ X.O.$...O.O.o.o.$.O.O.O...o.",
"-.....} $.O.O.O.$.O.O.O.O.X.O.o...O.P *         . @ > y T [ T j d n m x y 6 = O         + n o.o.o.$.} O...o.O.O...O.O.$.o.O.O.O.",
"-...O.O.O.O.X.O.o.o.o.$.O.{ O.$...O...F > .       - y j q > $ # + o X .               * b ..$.O.o.O.O.O.O.o.$.X.} O.O.} o...O.O.",
"=...} O.O.O.O.O.o.o.o...o.o.O...O.X.....( y * o q b 1 o                           + 0 Q O.$...O...O.o...O.} ..O.O.o.o.O.$.O.$...",
"-.O.} O.O.$.O.O...$.O.O.o.$.O.o.X.O.O.O.O.../ n d @                         o = t D ..$.O.X.O.X.} O.o.$.O.O.$.O.O.$...O...O.X.O.",
"-...O.} O.O.O.O.O.} @.#.#.O.$.$.$.o.o.o.o.o...x o           X @ * = ; < 0 p k d d O...O.X.O.O.O.O.o.o...O.$...O.O.} ..o.O.O.$...",
"-.....O.O.} ` ^ I P P P I P P P J Q Q ( @.O.( -         * y b d p C $.k 3 ; # . o n } ..O...$.O.O.$.O.O.O.X.O.O.O.O.O.o.O.O.X.O.",
"-.O...} ( P P +.+.O.$.O.O.o.O.X...+./ ~ I H g X       o m O.~ #   d ..P #         e O.O.O.$...O.X.O.O.O...O.O.O.$.o.O.$.O...O.O.",
"-.} ` P Q ` O.O.O.O...O.O.$.O.X.O.O.o.o.O.O.s         O Z O.U +   d ..' *         7 } ..o.o.$.O.O...$.O.$.O.O.O...o.O.} O.o.o.$.",
"=.W P +.O...O.O.O...O.X.o.$.} O.O...$.O.....k .         7 G n O . l ..y .         y ..X.O.X...O.X.$.o.o.X.O.O.O.X.O.X.O.O.o.o...",
">.P $.O.O.$.O.O.O.$.O.O.o.O.O.O.O.o.o.O.....W ;         . 5 n q u s 1 .         * Q O.O.O.X.$.O.O.O.O...X.O.$...$.O.O.O.$.o.o.$.",
"_ O.O.X.X.O...O.O.O.$.....O.o...$.o.O.X.O.X.o.H ;     # 0 k l q ; o           * n O.O.O.X.o.o.O.O...O.X.X.X.O.O.o.O.O.O...@.^ I ",
"=...O...$.O.o.o...$.O.O.O.O.o.$...o...$.X.O.o.$.R q q b y - X             @ 6 B P I Q ( / #.O.X.O.$.O.O.O.X.X.O...+.( ~ P I ( #.",
"=.......O.O.} $.O.O.$.o...O.O.O.O.O.O.$.X.O.X.X...O.d *             o ; e x $...$.$.( ^ P P P P P P I I Q Q I I P P I ( #.O.O.X.",
"=...} ....o.O.O.X.O...o.o.o.} O.O.} o.o.X.O.X.O.#.q X         # , e s t , + 0 $.O.O...O.O.O.O.$.#.@.#.+.#.+.@.@.O.O.O.O.O.O.X.O.",
"-.} ....$.o.O.O.o.$.O.O.X.$...$.$.O...O.X.X.O.O.s .       @ t s 0 q *       . d $...O.X.O.O.$...o.o.o.O.O.O.X.X.O.X...O.X.O.$.o.",
"-...O.O.O.O.} ..o.O.O.} O.O.O.O.o.O.} O.O.X.O.@.-       X l +.$   k m #       > ..$.O.X.O.X.O.O.o.o.o.O.O.O.X.O.X.O.$.O.O.O...o.",
"-...O.} O.O.O.} O.O.$...O.O.O.O.o...O.O.$.X.O.( *       X n W @   l ..1       ; @.O.X.O.o.o...O.o.$.X.O.O.O.X.O.$.o.O.$.o.O.O.} ",
"-...O.} O.} O.O.} O.o.o.O.O.O...O.O.O.O...O...$.6         = b , 6 m t o       5 O.O.X.X.$.O.O.O.o.O.O...O...$.O...o.O.} o...O.O.",
"-.......$.O.} O...O.O.O.O.O.X.$.} $.o.O.$.O.....Q ;     * q k d 6 $ .       + n o.o.O.X.} O.O.O...O.O.$.O.$...O.O.o.o.O.} O.$.o.",
"-.} } O...O.} O.o.o.$.} $...O.O.O.O.o...o.O.} O.O.~ 6 q j 5 # .           * l O.{ $.O.X.O.O.} ..$.O.O.O.O...$.O.O.$...O.O.O...o.",
";.o.O...O.O.} O.$.o.o.O.O.O...$.O...$.O.o.O.$.o.O.O.+.t O         . + > e P O.X.O.O.$.o.o...o.o.o.O.O.} o...O.O.O.O.$.O.O.o...O.",
";.$.O.o.} O.$.O.O.O...O.$.O.O.O.O.o.o.O...O...o.O...s .       $ 1 e t 5 * d O.O.O.X.O.O.O.O.$.O.o...O.O.o.$.O.O.O.O...O.$.o.O.O.",
"=...$.o.O.} o.o.O.} o.$...O.X.O.O.O.O.} o.$.O.O...@.-     X 0 t , 1 X     3 { O.X.O.$.X.$...O.O.O.O.$.o.O.O.$.O.$...O.O.O.O.O.O.",
"&.] O.O.O.O.O...O...o.O.O.X.O...$.O.O...o.O.O.} ..T @     @ m = > q .     , { ..X.O...O.o.o.O.} O.O...o...o.o.O.X.O...$.X.O...$.",
"A N G Q ( } O.O.O.} O.O.O.O.O.$.X.$.o.O.O.X.O.O.$./ ;   . > b t > o       e X.o.o.o.O...O.O.O.} O.O.O.O.$...O.O.$.o.O.$.o.O.O.O.",
"A v v v v G H ( ` O.O.O.O.} o.o.O.X.o...O.O.O.O...O.N ; t t * .         $ J O.o...$.O.$.O.} O.O.$...$.X.O.O.X.O...o.O.} o...O.O.",
"A v v v v v v v N G ! ( O.o.o.o...O.O...$.O.O.......O.J >           X > k @.o.o.O.O.O.O.$.o.} O...$...O.O.O.O.O.O.o.o.O.$.X.$...",
"A v v v v v v v v v v M N H ( #.$.O.O.$...O.O.$.} ....5     . $ > 0 t q % j o.X.O.O.O.O...o.O.O.O.O.O.O...$.O.O.O.$...O...O.O.O.",
"A v v v v v v v v v v v v v v N G I ( O.O...o.$...O...>     , t 5 > O     d O.O.$.O.$.o.O.O.} } O.O.O.$.o.o.$...O...$.O.O.O.$...",
">.Y I I I I I I I I I Q I I I I P P G B P / #.X.X.O.o.j o   5 : 3 *     - R O.X...O...o.} O.O.O.$.O.O...O...X.O.O.o.o.O.O.O.O.O.",
"=...O.O.O.O.O.O.O.O.o.o.O.O.O.O.O.O.G v c v N G H / @.$.s * y t *   o 1 L O.o.o.O...O.O.} O.} O...O.O.o.O.O.$.O.O.O.o...O.X.O.O.",
"=.......O.....O.O.O.o.$.O.O.O.O.O.O.G v v v v v v v N G H y - X @ , q l O.O...$.O.$.O.O.O.} O.} O.X.$.o.O.O...O.$.O.o.$.O.O...$.",
"=...$.O...o.O.O.} O.O.O.O...O.O...O.G v v v v v v v V a - o * 1 5 5 # X 1 U ..O.O.O.O.O.O.O.} O.o.o.O.} o.o.O.....O.O.O.O.O.X.O.",
"-.o.o.O.O.o.$.X.} O...$.O.$.O.O.$.O.G v v v v v v v 9 = 2 f g $ . 9 f 7 - 2 U X.O.O.O.$.O.O.O.} ..$.O.O...$.O.o.O.O.O...$...$.O.",
"-.O.O.} O.$...O.O...O.O.$.O.$...O.O.H M M M M M N M h g v N c +   r M M v z N G P ( $.O.O.O.O.O.O.O...O.O.O.$.o.X.O.O.$.o.$.o.o.",
"-...O...o.o.$.O.O.$.O.O.o.O.X.O.O...#.#.@.@.@.@.#.( +.+.+.+./ = . v +.+.+.+.+.+.G v G G P ( #.} O.O.o.o.o.$.O.X.$...O.O.o.O.O...",
"-.....O.O.$...O.O...$.O.o.O.$.o.O.O.$.o.X.O.O.O.O.O.O.O.O.O.X.> o F X.O.O.O.X.o.G v v v v v N G J ~ +.$.O.O.O.O.O.O.O.O...} O.O.",
"-...O.} O.X.O.O.O.o.o.O...O...o...o.o.o.O.X.O.O.O.O.O.O.....X.5 + I O.O.O.X.X.o.G v v v v v v v v v N N G Q ( +.X.O.O.O.O.O.o.$.",
"=.O.O.} ..O.O.O.O.O.O.} o.$.O.O.$.o.o.o.X.X.O.$.O.} O.$.o.o.o.d 6 @.o...O.X.O.X.G v v v v v v v v v v v v v v v B J ~ ( #.} o.o.",
"=.} O.O.$.O.O...$.O.O...o.O.O.} O.O...$.O.O.} O.O.O.O.O.o.o.o.[ @.o.o.$.X.X.O.X.G v M v v v v v v v v v v v v v v v v v N G I +."
};
