/* XPM */
static char *dcfa27b493824ab4de26fc7b6fac1cb3X9uZLKDBSf3jDAau[] = {
/* columns rows colors chars-per-pixel */
"64 64 59 1 ",
"  c None",
". c #DB4F50",
"X c #DB5051",
"o c #DA5151",
"O c #D95152",
"+ c #D85253",
"@ c #DD5050",
"# c #DC5253",
"$ c #EE4747",
"% c #EF4747",
"& c #EF4748",
"* c #E74B4B",
"= c #E64B4C",
"- c #E24D4D",
"; c #E34D4D",
": c #E14D4E",
"> c #E34D4E",
", c #E14E4E",
"< c #E14E4F",
"1 c #E04F4F",
"2 c #E34E4F",
"3 c #E44C4C",
"4 c #E54C4C",
"5 c #E44D4D",
"6 c #E64C4C",
"7 c #E74C4C",
"8 c #E64D4D",
"9 c #E44D4E",
"0 c #EB4949",
"q c #EA494A",
"w c #EB494A",
"e c #E94A4A",
"r c #E94A4B",
"t c #E84B4B",
"y c #E94B4B",
"u c #EA4A4A",
"i c #EB4A4A",
"p c #ED4848",
"a c #ED4849",
"s c #EC4949",
"d c #ED4949",
"f c #EE4848",
"g c #EF4848",
"h c #E84B4C",
"j c #F04747",
"k c #F14747",
"l c #B7B9BC",
"z c #B7B9BD",
"x c #B7BABC",
"c c #B7BABD",
"v c #B7BBBD",
"b c #B7BBBE",
"n c #B8B9BC",
"m c #B8B9BD",
"M c #B8BABC",
"N c #B8BABD",
"B c #B9BBBD",
"V c #B9BABE",
"C c #B9BBBE",
/* pixels */
"                              NNNx                              ",
"                           NNCNCNNNNN                o          ",
"                         NNNCCCCCCCCCNN             h&i         ",
"                        NCCCCCCCCCCCCNNx           yjj%#        ",
"                       NNCCCCCCCCCCCCCCCN         >$$jf         ",
"                      NCCCCCCCCCCCCCCCCCN        1fjjjj         ",
"                      NCCCCCCCCCCCCCCCCCCN      +ff&j$          ",
"                     NCCCCCCCCCCCCCCCCCCCN      ikkkj           ",
"                     NCCCCCCCCCCCCCCCCCCCCN    =jj&k            ",
"                     CCCCCCCCCCCCCCCCCCCCCN   >kjj%             ",
"                    xNCCCCCCCCCCCCCCCCCCCCN  1%jjjf             ",
"                    xNCCCCCCCCCCCCCCCCCCCNN ofjjjf              ",
"                    xCCCCCCCCCCCCCCCCCCCCN  fjjjg               ",
"                    xCCCCCCCCCCCCCCCCCCCN  hjjj%                ",
"                    xCCCCCCCCCCCCCCCCCCN  ikjj%                 ",
"                    xCCCCCCCCCCCCCCCCCCC 9gkjjf                 ",
"                    xCCCCCCCCCCCCCCCCNN 9fjjgg                  ",
"                    xNCCCCCCCCCCCCCCCN  jjjjg                   ",
"                    NCCCCCCCCCCCCCCCN  gjjjj                    ",
"                    xCCCCCCCCCCCCCCN  fjjjj                     ",
"                    xCCCCCCCCCCCCCC  fjjjj%                     ",
"                    xCCCCCCCCCCCCCN jjjjj%                      ",
"             NNN    xCCCCCCCCCCCCN  jjjj%                       ",
"             NCCx   xCCCCCCCCCCCN  fjjj%  x    NNCN             ",
"             NCCN   xCCCCCCCCCCN  fjjj$  NN    NCCN             ",
"             NCCN   xCCCCCCCCCN  fjjjj  NCN    NCCN             ",
"             NCCN   xCCCCCCCCCC fjjjjf CCCN    NCCN             ",
"             NCCN   xCCCCCCCCx  jjjjj  xCCN    NCCN             ",
"             NCCN   xNCCCCCCN  jjjjf  NNCCN    NCCN             ",
"             NCCN   NCCCCCCN  fjjjj  NCCCCN    NCCN             ",
"             NNCN   xCCCCCN  fjjjj  NCCCCCN    NCCN             ",
"             NCCN   xCCCCCb $jjjj% bCCCCCCN    NCCN             ",
"             NCCN   NCCCCx $$jjj%  NCCCCCCN    NCCN             ",
"             CCCN   NCCCN  jjjjf  NCCCCCCCN    NCCN             ",
"             CCCN    NNN  gjjji  NCCCCCCCCN    NCCN             ",
"             NCCN    NN  fjjjj  NNCCCCCCCNN    NCCN             ",
"             NCCN    Nx &jjj$j bCCCCCCCCCCN   NCCCN             ",
"             NCCN      f%jj%f  NCCCCCCCCCN    NCCCN             ",
"             NCCCN     %j&j=  NCCCCCCCCCNN    NCCN              ",
"              CCCN    fjjkf  NCCCCCCCCCCN    NCCCN              ",
"              NNCCx  jjj$g  NCCCCCCCCCCN     NNCNN              ",
"              NNCN  fjjj$> NCCCCCCCCCNN     NCCCN               ",
"               NCN &jjjj>  NCCCCCCCCNN      NCCCN               ",
"                N  kjjj9   NNNCCCNNN       NCCCN                ",
"                  %jj%f                   NCCCN                 ",
"                 %jjjf                  NNCCCCN                 ",
"                fjjj&o xN              NNCCCCN                  ",
"               %jj%%> CNNNN         NNNCCCCCN                   ",
"               g&k&i  NNCCCNNNNNNNNNCCCCNNNN                    ",
"              jjkff  xNNCCCCCCCCNCCCCCCCNN                      ",
"             jjjgf     xNNCCCCCCCCCCCCNNN                       ",
"            gjjjfo       NNNNCCCCCNNNN                          ",
"           %jjjj1            NCCCN                              ",
"          fjjjff              NCCN                              ",
"          jjjj*               NCCN                              ",
"         %jjji                NNCN                              ",
"        fjjjj#                NCCN                              ",
"       jjjjf9                 NCCN                              ",
"      fjjjjf                  NCCN                              ",
"      jjjj9        NNNNNNNNNNNCCCCNNNNNNNNNN                    ",
"     >gjji         NCCCCCCCCCCCCCCCCCCCCCCCCN                   ",
"     >jj%#         CCCCCCCCCCCCCCCCCCCCCCCCCN                   ",
"      99           NCCCCCCCCCCCCCCCCCCCCCCNNN                   ",
"                                                                "
};
