/* XPM */
static char *_5b1a3e561ac45d2f1ff75bee4f49cbdMEev0U3Uqjp2Ejzr[] = {
/* columns rows colors chars-per-pixel */
"64 64 252 2 ",
"   c #BA6A1C",
".  c #B96619",
"X  c #A87717",
"o  c #B26E11",
"O  c #BD5D2B",
"+  c #BA6827",
"@  c #BA6736",
"#  c #B1712C",
"$  c #9D6B0C",
"%  c #C3671A",
"&  c #C0721D",
"*  c #C55C24",
"=  c #CA5828",
"-  c #D45B2D",
";  c #D6562B",
":  c #D74F3A",
">  c #CB5735",
",  c #DA543A",
"<  c #D75736",
"1  c #D04E2D",
"2  c #E14F3B",
"3  c #C56727",
"4  c #C56533",
"5  c #D0622F",
"6  c #B57046",
"7  c #DE5844",
"8  c #E15542",
"9  c #D56342",
"0  c #6CAC04",
"q  c #72AD02",
"w  c #74AB0B",
"e  c #7BAB09",
"r  c #6CB201",
"t  c #6DB900",
"y  c #73B202",
"u  c #75BB02",
"i  c #7BBC02",
"p  c #78B709",
"a  c #76A819",
"s  c #7BB318",
"d  c #6DAD13",
"f  c #79A526",
"g  c #7CB422",
"h  c #7BA235",
"j  c #799F2E",
"k  c #7CC302",
"l  c #77C404",
"z  c #7FD105",
"x  c #7FA143",
"c  c #7C944F",
"v  c #9C9208",
"b  c #BB971B",
"n  c #AC8B1B",
"m  c #87B30A",
"M  c #AFAA1B",
"N  c #BB9726",
"B  c #B89934",
"V  c #AF9121",
"C  c #87BA29",
"Z  c #84AE2D",
"A  c #B3AC28",
"S  c #C69A2B",
"D  c #C68D3E",
"F  c #C99736",
"G  c #CF922E",
"H  c #CAB036",
"J  c #C49D1C",
"K  c #85CC04",
"L  c #86C809",
"P  c #8BDC02",
"I  c #8CD60D",
"U  c #8DDA0B",
"Y  c #84D207",
"T  c #94D90E",
"R  c #89C914",
"E  c #8ED615",
"W  c #95DA17",
"Q  c #98C811",
"!  c #A8DA17",
"~  c #B4DC1B",
"^  c #A0C110",
"/  c #8DE201",
"(  c #8FEB07",
")  c #96EE05",
"_  c #9AED05",
"`  c #94E40C",
"'  c #9CE50D",
"]  c #96ED0B",
"[  c #9AEC0B",
"{  c #95E504",
"}  c #95F004",
"|  c #9AF105",
" . c #95F00A",
".. c #9AF00B",
"X. c #94E413",
"o. c #9CE514",
"O. c #96EC12",
"+. c #9CEA13",
"@. c #9DE51C",
"#. c #9CE91B",
"$. c #96E71C",
"%. c #9BF114",
"&. c #A2EA0D",
"*. c #A3E808",
"=. c #A2EB11",
"-. c #A3E41B",
";. c #A1E91C",
":. c #A7E714",
">. c #A1F215",
",. c #B2E718",
"<. c #89C724",
"1. c #99D827",
"2. c #99CB38",
"3. c #9AD636",
"4. c #93CB2E",
"5. c #A6DA2A",
"6. c #B7D927",
"7. c #A3DC35",
"8. c #A4DD3B",
"9. c #A9D93B",
"0. c #B8D537",
"q. c #B6CA31",
"w. c #9DE523",
"e. c #9BE922",
"r. c #9DE32B",
"t. c #99EA29",
"y. c #9DE333",
"u. c #9DE33B",
"i. c #9EE83D",
"p. c #A2E324",
"a. c #A3EB25",
"s. c #A3E22B",
"d. c #A5EB2B",
"f. c #A9E927",
"g. c #B7E222",
"h. c #A2E133",
"j. c #A3E33B",
"k. c #A7E734",
"l. c #B9E13D",
"z. c #C6C82B",
"x. c #C5D92C",
"c. c #C8C837",
"v. c #CAD336",
"b. c #D4CA38",
"n. c #829B5A",
"m. c #B48F4D",
"M. c #88B049",
"N. c #9AB270",
"B. c #A4BA76",
"V. c #BABE78",
"C. c #A9B06C",
"Z. c #BDAC5E",
"A. c #C78D46",
"S. c #C89347",
"D. c #D2924C",
"F. c #CDB35B",
"G. c #CDBA66",
"H. c #D7BA67",
"J. c #CEB771",
"K. c #9BCA49",
"L. c #9EDE44",
"P. c #9DD845",
"I. c #9DC657",
"U. c #9FDA54",
"Y. c #A4DC43",
"T. c #A4DA4C",
"R. c #A8D849",
"E. c #B5D84B",
"W. c #BCCB56",
"Q. c #A5D554",
"!. c #A5DA52",
"~. c #A6D65C",
"^. c #AAD55C",
"/. c #A5D95B",
"(. c #AAD954",
"). c #B6D354",
"_. c #ACCA55",
"`. c #9DE043",
"'. c #A8E344",
"]. c #B9E247",
"[. c #A6CA67",
"{. c #B7CA6C",
"}. c #A5D662",
"|. c #ABD463",
" X c #ABD26B",
".X c #A6D669",
"XX c #B2D469",
"oX c #ABCD74",
"OX c #ADCD7C",
"+X c #A7C677",
"@X c #B1CC7C",
"#X c #B9C778",
"$X c #ABD273",
"%X c #ABD07B",
"&X c #A6D273",
"*X c #B1D27A",
"=X c #9EC366",
"-X c #C7C84B",
";X c #D1C84F",
":X c #C6C669",
">X c #C5C575",
",X c #D3C575",
"<X c #DAC569",
"1X c #B7BD95",
"2X c #B5BC88",
"3X c #B5BEAC",
"4X c #BABEAD",
"5X c #B4BDA4",
"6X c #B5BDB3",
"7X c #BABDB4",
"8X c #B6BDBC",
"9X c #BBBDBC",
"0X c #B7B6BB",
"qX c #AFBFA5",
"wX c #C2BC93",
"eX c #C1BCBA",
"rX c #C3BDAF",
"tX c #ACCC84",
"yX c #ADCB8B",
"uX c #ABC788",
"iX c #B2CB84",
"pX c #B4C68B",
"aX c #B3CA8C",
"sX c #B9C788",
"dX c #ADC69C",
"fX c #AEC896",
"gX c #B3C595",
"hX c #B3C994",
"jX c #B4C59B",
"kX c #BAC39C",
"lX c #B3C99B",
"zX c #BAC797",
"xX c #B0D188",
"cX c #AEC6A5",
"vX c #AEC2A9",
"bX c #B4C4A3",
"nX c #B9C3A3",
"mX c #B5C2AB",
"MX c #BAC1AC",
"NX c #B6C9A6",
"BX c #B5C2B2",
"VX c #BAC3B3",
"CX c #B9C2BA",
"ZX c #C7C687",
"AX c #C2C999",
"SX c #C0C6BA",
"DX c #B6BEC2",
"FX c #BBBBC2",
"GX c #BCBBC8",
"HX c #C1B9C3",
"JX c #BAC0C3",
"KX c #C0C0C2",
/* pixels */
"M.M.C K.K.Y.T.'.].Y.'.j.j.j.j.j.k.7.s.h.j.u.y.u./.%XyXfXMX7X7X7X9X7X3XbXhXtX X/.R.E.k.7.j.i.u.'.j.'.3.).<XF <X-XR.j.j.3.j.j.'.'.",
"h h f s C <.4.4.3.7.7.h.s.s.r.w.s.s.p.a.t.y.y.'.}.%XyXlXmX6X7X9X0X7X7XbXjXyX%X}.R.7.5.k.d.r.r.r.r.8.E.-Xm.X B W.9.r.r.s.d.r.u.j.",
"f f w w e w p R E Q 1.W @.;.#.e.o.=._ &.@.w.1.T.$XyXbXmX7XFX9X8XFX0X9XMXmXlXyX$X(.k.@.;.+.o.=.o.p.g.c.S .   X A g.:.=.o.o.-.p.f.",
"f a w q q 0 0 y y i K K Y U X.+.+.[ _ ..+.p.8.^.tXjXmXCXFXFXFXFXFXGXeX7XBXvXlXtX/.3.@._ _ _ >.[ g.z.J   3 + $ A 6.=.*.[ _ [ -.a.",
"f d w p w r p r r y y u i k Y U $.U O.O.a.8.(.@XjXMX9X9X9X9X8X9XGXGXeX7X8XBXBXdX&XT.a.[ | | [ ,.v.b % % ; = X c.~ :.&.&._ =.@.5.",
"g g p u l p p u i u i u u l l l z E z E 1.T.oXgX7XFX9XeX9X9X9XDXFXGXeX9XCX8XCXvXaX|.j.o.*.*.T g.M   ; ; = + B v.! &.&._ ' [ #.@.",
"1.1.I U E E E U U U U I U P / U z z t p C [.fX3X9XGXHXFXHXFXFXDXFXFX9X9X8XCXJXBXmXOXR.p.&.:.6.;Xo = ; = 3 S v.! *.*._ _ _ [ +.e.",
"t.e.[ [ %.+.+.+.=.+.o.+.+.] O.O.t.E r w h +XmXJXGXGXFX9X9XFXGXGXDXDX9X9X8X8XDXJX3XzX^.9.p.g.c.S 3 ; ; % S z.6.&._ | | _ | _ +.$.",
"a.;.[ | [ ] +.[ +.[ +.+.[ [ +.[ ;.L y a h yXBXJXFX9X9X9XFXFXGXGXFXDX8X7X7X7XFXDXVXlXXXR.-Xx.N 3 1 , 3 F z.6.*._ _ )  .) | _ +.#.",
"a.+.[ _ [ [ ] ] [ [ ' [ [ [ [ [ =.L q a M.lXBXFXFX9X9X9X9XFXDXGXFX0X9XCXeX0XFX0X6XgX{.W.0.S 3 * 7 = & H 6.:.[ | | |  .] _ _ o.$.",
"a.#.[ _  .] ] [ [ _ [ [ | _ | [ =.T e f +XNX6X8X9X8XVX9X9X8X9X9XFXFX9XKXFXFXHX9XmXhX#X:XB + = - =   N c.! ] ..{ *.....] _ _ +.#.",
"d.e.[ _ ] ..[  ._ _ _ _ _ _ ) _ +.-.R 2.aXmXBX9X8X9X9X8XCX9X9X9X9X9X9X9XFXGXHXeXNX#XC.m.# = , <   F c.6.@.%.;.[ _ [ [ ] _ ' =.o.",
"d.e.+...] [ ] [ _ _ _ _ _ | _ _ [ #.! Y.iXqXCXFX9XFXFX9X9XFXFXFXFXFXFXJXFXFXeXrX1XC.6 6 @ > < + n A M Q I U X.X.' o.O.+.=.&.;.a.",
"d.t.+...[ )  ._ _ _ [ _ _ _ ) [ ] +.a.Y.tX3XSX0XFXFXFXFXFXFXFXFX0XFXFXFXFX9XeXwXC.m.6 @ 7 > 3   V m m i i l L L P P U ` ' W @.p.",
"d.;.[ | ) _ _ | _ _ [ [ ) [ [  ...] o.8.yXBX9XFXHXFXFX9X9X9XFXFXHXFXFXDXDX7XkX1Xm.6 @ : : =   n v m y i r t t r u l l k K K E E ",
"d.;.[ _ _ } ) | _ _ _ [ ] ] [ .. .] +.7.tXVX9XFXHXHXHXeX9X9XFXFXHX9XFX0X3XnXsXJ.6 9 7 7 = . b M Q L L L L R Y z z z K K Y K I E ",
"d.;.[ ) } } } ) _ [ [ ] O.[ ] }  .] #.Y.@XnX7X9XGXGXFXHXFXFX9X9XFX0XeXSX1XsX>XH.4 > : < . S v.! X.X.$.#.#.o.@.o.` [ ] ` ' +.w.1.",
"f.-.[ ..] } ) _ _ _ | ) ] O.[ } } O.@.Y.@XnX7X9XGXGXHXHXHXFX9X9X9X9X7XnXpX#XH.A.> 7 < 3 S z.6.:.] ] +.O.[ *.o.[ [ [ _ ] [ [ #.e.",
"d.;.[  . .} } _ _ _ | | | ) _ _ _ [ @.L.tXmX7XFXDXFXFXFXFXDX0X8X9XeXbXkX>XJ.A.4 : < % G c.g.T %...| [ [ *._ &.[ [ ) [ ] [ +.e.w.",
"f.;.[ .. . .} _ _ _ _ _ _ [ [ &.&.=.e.L.yXBX9XFXDXDXCXFXFXFXDX8X7X5XzXZXJ.S.4 - ; - $ ;X~ ' %./ ..[ [ [ _ *._ _ ) [ ] ] ] +.@.w.",
"a.-.[ ..] ] [ _ _ _ _ [ #.e.r.r.-.-.t.`.yXBXCXDXDXDX8X7XDXGXDX8XMXkX@X>Xm.4 < : ; % b x.! { %.O.+.+.' [ *._ | _ } [ ] [ [ +.-.w.",
"f.+.[ ] ]  . .[ [ *.[ =.r.`.Y.Y.7.s.t.`.tXBXDXGX9X9XVX7XFXFXDXCXbXsX{.<XO < , 1 3 G b.! -.>.O.a.s.s.p.#.*._ _ } )  .] ] _ [ #.@.",
"f.+.[ ] ] ] [ [ [ [ +.t.`./.&X.X(.j.h.`.tX3X9XFX9X7XeXrXeX9X9XmXpX#XG.D > 7 : 3 G ;X-Xf.g.-.w.3.T.T.j.s.[ _ _ _ )  .] ] [ [ o.-.",
"d.;.+... .]  ._ *.[ o.t.T.&XyXtX}.Y.3.T.tX4X7X0X0X7XeXeXeX9XMXkX#X<XD 3 7 > = A.<XW.E.Y.s.s.7.!.|. X/.j.;.[ ) ]  . .] ] [ &.+.@.",
"d.;.[ ] ] ] .._ _ _ &.p.P.&XhXyX.X!.'.!.sXVXSX7X7X7XHXeX7XbXAX2XH.S.5 ; ; > A.<X:X{.}.U.k.s.R.|.tXxX XT.t.+._ } }  . .[ _ &.+.-.",
"d.;.+...] ] ] _ _ _ [ w.T.$XhXhX$X!.L.!.uX4X7X7XeX0XFX9XmXkXV.,XD 3 ; 2 < + H.{.#X@X&XU.y.y.T. XfXfX%X!.p.[ ] } } } ) } _ [ #.w.",
"a.#.+...] ] +.[ [ _ &.a.T.$XhXpX$XQ.Y.!.yX3X7XHXFXFXDX6XNXsXJ.H.+ = ; < + S.:X#XzXaX.XU.y.y.T.$XlXlX%X(.s.[ } } } } ) _ _ [ -.w.",
"f.#.] [ ] %.%.[ [ _ [ 1.T.$XhXhX*XQ.8.T.iXmXCXFXFXFXCXbXpXV.<XS.* ; ; = S.J.#XpXnXlX%XU.t.y.T.$XlXlXOXQ.r.[ _ } } } _ _ _ [ #.p.",
"a.#.[ ..O.] { / { P P E K.+XjXnX@XK.1.P.tXmXeXFXGX8X3XAXJ.H.S.4 < - + A.,XV.gXnXMXkX$X!.s.s.T.$XlXlX%X!.a.' _ | } _ _ _ *.[ #.a.",
"d.;.[ ) / P P P P P P 1.K.+XbXkX@XK.4.2.+X5X9XFXFX6X1XZXH.S.4 1 - * D <XV.kXbX3XMXkX*X!.s.p.T. XfXhX$XT.s.[ ] ) _ _ [ _ _ *.@.w.",
"k.w.` / / / / { _ { +.r.!.*XbXjX*XQ.3.P.uX4XeX9X6XMXwXF.D.3 : 2 = + H.,X1XBXJXBXVXkX@X/.s.s.T.$XhXhX$X(.s.+.+. .] [ _ _ *.[ @.t.",
"s.W P P / ] [ ] [ *.+.p.!.tXNXbX@XQ.7.Y.OX1XVXMXbX1XJ.A.. - , : 3 S.G.sXMX8XJX8XMXkX%X/.s.r.T.$XhXgX$X!.s.O.] O.[ ] [ _ _ [ #.p.",
"W E ` ` ( ] [ [ *.*.*.s./.%XlXNX@X(.7.'.$XgXdXjXsX,XH.+ = 1 : = m.F.>X1X7XFXFX6X4XjX%X/.y.r.Y. XhXhX*X!.t.=...] ] ] ] } ..O.@.w.",
"W U X.]  .%.+.] _ *.&.s.!.%XdXcXOX(.9.3.XX+XaXiX>XF.D.5 , < 4 A.Z.V.sXkX9XFX9X9X6XlX%X/.j.7.!.$XgXgX$XT.s.+.[ | %.O. .( ] ] X.1.",
"f.o.+.+.]  .) { _ _ O.r.U.&XfXfX%X!.k.y.!.$XZXZXG.S.5 1 ; - D.H.J.zXkXmXVX7XeX9X6XlX+XQ.1.9.[.yXbXlX*XT.r.+.[ _ ] ] { / P P I E ",
"f.#.+.] ] } } } } } %.t.U.&XfXhX%XQ.u.d.3.).{.J.S.@ 1 , < 3 F.,XzX5X3XVX6X9X9X7XVXfX[.2.1.2.oXgXmXjX X3.W U / / P P / / / / o.1.",
"-.o.+.[ ..| } } } (  .t.T.$XgXjXOX/.1.d.s.9.<Xm.6 > < > 3 A.,XsXNX6XCXCX8X9XFX8XBXyXQ.7.1.9.OXNXmXgX~.2.E P P P / / / / { [ #.a.",
"a.-.=.+. .| } } } }  .t.Y.XXjXnXiX|.k.t.5.0.F.# > 7 : 4 D G.ZXlXBX8X9XFX8X9XDXBXdX&XY.s.5.R.gXBXmXhX^.7.W ` ` [ %... .[ | [ #.@.",
"d.e.+.[ ) _ ) | } } ( O.7.|.zXrXkX#XE.5.6.z.F O < : @ D.H.>X1XmX7X9XFX9XDXJXDXvXtX/.s.a.9.|.jXVXNXtXT.t.#.+.+.[ [ [ ] ] _ [ @.w.",
"d.e.#.[ ] [ [ ..[ | | [ p.(.pXMX5XpX).0.b.J . < > < D.G.:XsXnX7X9X9XFX9XJXCXcXfX}.L.p.1.R.oXjXmXlX$XY.p.+.[ [ [ [ [ ] ] _ [ #.w.",
"d.e.+.[  .) [ [ [ _ _ *.-.9.*XjXkXsXW.-XS % ; ; = + H.J.ZXkX4X9X9X9X9X9XVXbXyX.XL.w.w.h.|.yXbXnXuX|.s.-.[ [ [ _ [ [ [  ._ [ #.t.",
"d.;.[ | ..] [ [ _ _ _ | &.1.^.*XzXsX:XN . ; ; ; . B :X{.sXjXNXmXmX4X4XnXhXOX}.Y.r.w.h.T.OXhXkXhXoXT.a.[ [ } _ _ [ _ [  .) [ #.p.",
"f.+._ | ) ) _ ) ..) }  ...@.3.(.[.:XH.# - 2 ; % S E.E.Q.oXuXxXxXiXiXiX@X|.(.8.r.w.r.T.$XhXnXzX@X^.7.#.[ } ) ) _ _ [ [ [ [ [ #.w.",
"f.;.[ | ) ) | _ }  . .(  .%.w.8.W.:XA.= : , * G c.l.7.`./.}.}.}.~.^.|.^.R.8.p.r.h.T.$XaXnXkXsX{.R.t.+._ } } ) | _ _ _ } } [ #.p.",
"d.@._ | _ _ _ _ }  .O.O.] =.;.6.-XF + < 9 > D ;Xq.h.1.k.y.u.y.i.h.h.9.8.7.s.r.8.!.$XhXNXmXgXoX(.5.#.+.] ( } } | _ _ _ ) [ +.#.w.",
"j.p.[ | [ [ _ _ } )  .%.[ &.g.z.b   > > > @ H.W.R.'.j.k.r.r.r.h.t.s.h.8.k.9.Y./.$XyXmXmXjXtX~.8.;.[ ]  . .} } } [ ) ) | ) [ #.#.",
"u.r.o.*.=.&.=.[ ) _ ] =.:.~ 6.b & - < > + S.,X{.*X X^.T.Y.8.Y.9.8.u.T.Q.^..X$XtXfXbXmXjXiX}.y.$.[ [ ] O. . .} _ _ [ } ) [ [ #.-.",
"<.<.U T o.o.-.' ] =.[ &.! x.c.o ; , < + F F.V.sXyXuXuX@XXX|.XX|.~.}..X&XtXtXyXlXbXbXgXOX^.j.#.] _ [  . . . .]  .[ _ _ } [ [ #.e.",
"g d u k L K W p.-.o.-.T x.c.G * < - . S ;X).#XhXcXcXcXbXjXgXpXpXiXhXlXcXcXbXbXjXgXsX$X!.u.e.O.) [ [ [ [ ) [ _ _ [ _ _ _ _ +.#.#.",
"g a w y y u l l L Q ! 6.z.S 5 - < * S H q.9.XXtXfXcXNXcXbXMXmXbXbXmXvXmXcXdXhXpXOX|.R.h.#.] } } _ _ _ _ _ _ [ [ _ _ _ _ [ ] $.$.",
"Z a w r q q r r u i m M N   = , 3 # b.x.~ p.j.Q.|.&XtXtXgXnXMX6X7X4XjXyXtX%X X|.(.9.5.@.[ [ _ _ ) | _ | ) | ) _ } | } |  . .O.#.",
"Z a w w q r r r r e v n 3 * - - + b z.~ :.;.p.h.Y.T.~..X%XpXmX9X4XjXiX X/.!.T.8.5.p.=.&._ _ _ [ _ _ } } | } ) | } } } }  .O.%.$.",
"C m s l m k k i i M n . - ; - . N A ^ Q E t.$.t.d.5.h.Y.R. XjXmX4XpX|.R.h.r.r.@.=.[ [ _ [ [ [ [ ) ) } } } } ] }  .} } }  .+.$.$.",
"8.1.W W W X.T ! ~ H 3 1 : ; % S A 5.L i t l z Y T W 1.7.9.|.lX3XnXpXR.p.w.O.O.[ | | } | ] [ +.+.[ ) ) | } [  .] _ _ _ _ [ O.$.#.",
"k.r.#.+.=.&.:.~ H G ; 8 , 5 S z.6.~ m r d d p p i L L E 4.K.fXvXbXiXR.a.O.]  .( } }  . . .] ..[ ] | ) } _ _ [ _ [ _ _ _ [ O.%.#.",
"d.w.+.+.[ :.~ z.J % 2 : < + b.~ ' :.K 0 d d 0 q q y q p s K.uXCXmXiXT.5.#.O. .} } ]  .O. . .} } [ [ _ _ [ _ [ [ _ _ _ _ [ [ #.e.",
"f.@.#.>.*.! v.b % ; 7 > # N 6.:.=.o.L y w a w e e e w 0 d h pXVX3XaXM.3.W 1.X.o.=.#.t.$.%.( } { [ [ ..[ ..[ [ { [ _ _ _ [ +.#.#.",
"d.#.#.=.:.x.b & - 2 > 4 S c.,.' [ o.m s f f f a Z f f a h M.gXVXVXjXM.f g <.R 1.4.5.'.y.t.O.%.] [ +.[ [ [ [ [ +.[ _ _ _ [ +.+.$.",
"d.;.O.' ~ b.o = , > + N z.~ *._ +.e.4.K.I.[.B.B.C.B.+XB.B.N.nX7X6X5XB.B.=XI.I.I.I.I.}.I.3.1.e.O.+.O.O.%.+.[ ] ] [ [ _ _ ....+.$.",
"d.#.[ &.~ b % - > 3 F q.,.*._ *.` t.P.~.%XaXpXjXlXjXzXaXhXgXMX7X9XSX5XfXfXsXiXsXiXuXuX&XK.g R E E X.o.O.+.O.+.+.[ [ _ _ ] O.#.$.",
"d.p.%.;.6.v . * O X c.6.,.*.| _ [ t.L..XiXjXNXnXBXmXbXdXgXkXnXMX6XVXvXNXbXcXlXjX5XNXkXaXoXf e e k k K K I T $.X.o.+.+.+.O.o.e.e.",
"k.s.@.f.6.b o   F A 6.-.*.=.+.] $.t.L..XtXuXkXbXmXNXNXlXhXzXjXbXmXNXcXdXdXdXNXnX5X3XjXhX@Xh a e w q y y u m L R E E X.W w.a.s.h.",
"].9.5.h.0.E.B B ;X0.5.k.h.s.w.t.y.u.!.}.*X@XiXiXuXyXyXyXiXiXtXyXaXtXtX%XtXtXiXpX2XN.N.N.N.h j Z a f f a a a a w s s m R <.4.3.P.",
"E.R.9.9.Y.E.-X;X0.E.7.7.j.3.u.u.u.L.!.}. XoX@XoX%XtXtXOXoXoXOX%XOXoX&X&X&X%XtX+XN.c n.n.c x j j j h Z f j f f f a a a a g C K.K."
};
