/* XPM */
static char *_573042b339c4c2ce05b54b8cefc7afdX5BznyF7Ft5fmaeZ[] = {
/* columns rows colors chars-per-pixel */
"64 64 244 2 ",
"   c #010000",
".  c #0C0500",
"X  c #1A1504",
"o  c #271A06",
"O  c #391F03",
"+  c #0F300D",
"@  c #023A0C",
"#  c #2A3009",
"$  c #4B1303",
"%  c #6B0902",
"&  c #50380D",
"*  c #73330E",
"=  c #01470C",
"-  c #02560A",
";  c #17550D",
":  c #054512",
">  c #024C12",
",  c #055713",
"<  c #015A15",
"1  c #155817",
"2  c #2F5213",
"3  c #08660C",
"4  c #16690C",
"5  c #05760E",
"6  c #18770D",
"7  c #026313",
"8  c #016B13",
"9  c #046519",
"0  c #006C1A",
"q  c #136515",
"w  c #057411",
"e  c #00721C",
"r  c #007C1E",
"t  c #177611",
"y  c #256D0C",
"u  c #346E0A",
"i  c #28790D",
"p  c #247714",
"a  c #327014",
"s  c #205E20",
"d  c #117526",
"f  c #2F7226",
"g  c #524F0A",
"h  c #594816",
"j  c #7A5608",
"k  c #6E4D11",
"l  c #675516",
"z  c #7A581A",
"x  c #4B6C0F",
"c  c #56670C",
"v  c #467806",
"b  c #577707",
"n  c #597712",
"m  c #7E6904",
"M  c #67780A",
"N  c #7A7905",
"B  c #756818",
"V  c #687012",
"C  c #7B7B16",
"Z  c #765823",
"A  c #4C6C29",
"S  c #477A2D",
"D  c #567A31",
"F  c #786928",
"G  c #427341",
"H  c #930A01",
"J  c #B60500",
"K  c #AA1A01",
"L  c #B61A04",
"P  c #962803",
"I  c #8B350A",
"U  c #AE320A",
"Y  c #B43902",
"T  c #B93E20",
"R  c #C40000",
"E  c #CB0000",
"W  c #C80A01",
"Q  c #D30200",
"!  c #DA0500",
"~  c #C81905",
"^  c #D71703",
"/  c #E10E00",
"(  c #D12907",
")  c #C93601",
"_  c #DA2513",
"`  c #E23607",
"'  c #CF3B22",
"]  c #884508",
"[  c #994506",
"{  c #855404",
"}  c #8E4A14",
"|  c #875C1B",
" . c #8A5C1D",
".. c #955D1A",
"X. c #AF4B0C",
"o. c #896711",
"O. c #94621B",
"+. c #9B621B",
"@. c #96691C",
"#. c #837B1B",
"$. c #A1671C",
"%. c #A46A1F",
"&. c #AA721B",
"*. c #B4771C",
"=. c #905625",
"-. c #B54F2E",
";. c #876425",
":. c #976A25",
">. c #8C752E",
",. c #9D732A",
"<. c #A36B21",
"1. c #AD7526",
"2. c #A77829",
"3. c #B77B24",
"4. c #B37C2A",
"5. c #A57C31",
"6. c #CC4E04",
"7. c #DB4A00",
"8. c #E3480C",
"9. c #C66600",
"0. c #DE512A",
"q. c #0D8317",
"w. c #2B850C",
"e. c #35860E",
"r. c #38880C",
"t. c #2F960E",
"y. c #268318",
"u. c #388913",
"i. c #35892C",
"p. c #2F8834",
"a. c #45890A",
"s. c #5A8704",
"d. c #4A9309",
"f. c #549A06",
"g. c #5B9D05",
"h. c #569608",
"j. c #458A1D",
"k. c #5B8515",
"l. c #48911A",
"z. c #569A15",
"x. c #658909",
"c. c #788908",
"v. c #689807",
"b. c #779607",
"n. c #688D18",
"m. c #6B9916",
"M. c #5DA105",
"N. c #63A403",
"B. c #6AA303",
"V. c #6CAB02",
"C. c #69A608",
"Z. c #78A704",
"A. c #73AC02",
"S. c #75AC0D",
"D. c #74B202",
"F. c #7AB501",
"G. c #76BA01",
"H. c #7DBA02",
"J. c #76B10C",
"K. c #79B30C",
"L. c #7EBC0B",
"P. c #68A416",
"I. c #7AB117",
"U. c #498629",
"Y. c #4A9222",
"T. c #559929",
"R. c #488A31",
"E. c #548A35",
"W. c #5B9835",
"Q. c #69882A",
"!. c #6E9625",
"~. c #688937",
"^. c #6A9838",
"/. c #789539",
"(. c #72AB2C",
"). c #7EC406",
"_. c #3C8743",
"`. c #4A9048",
"'. c #6A944B",
"]. c #6CA442",
"[. c #7AA745",
"{. c #65A45A",
"}. c #848506",
"|. c #87B603",
" X c #82BC01",
".X c #85B510",
"XX c #BA832D",
"oX c #BA842C",
"OX c #B78533",
"+X c #B48736",
"@X c #BD8A35",
"#X c #84B625",
"$X c #89B533",
"%X c #C3892B",
"&X c #C38D34",
"*X c #C98E30",
"=X c #CB9436",
"-X c #C69339",
";X c #CD9539",
":X c #D19837",
">X c #D49D3D",
",X c #D7A03F",
"<X c #83C303",
"1X c #83CB06",
"2X c #88CE06",
"3X c #82C40B",
"4X c #86CC0A",
"5X c #88CF0A",
"6X c #94C303",
"7X c #86D006",
"8X c #88D306",
"9X c #8EDC07",
"0X c #8AD30A",
"qX c #8EDB09",
"wX c #8FD313",
"eX c #92E407",
"rX c #97EB07",
"tX c #99EE07",
"yX c #93E408",
"uX c #96E908",
"iX c #9BE51E",
"pX c #A2EF1E",
"aX c #A2F01E",
"sX c #96CA25",
"dX c #9AC338",
"fX c #A4C931",
"gX c #8A9E43",
"hX c #88AA48",
"jX c #8CB54E",
"kX c #94B949",
"lX c #A4B651",
"zX c #8CB66A",
"xX c #D7A141",
"cX c #DBA441",
"vX c #EA9160",
"bX c #99C347",
"nX c #A1C649",
"mX c #9BC17D",
"MX c #B2CC71",
"NX c #9AC782",
"BX c #B0CD88",
"VX c #C5DB95",
"CX c #CFE38E",
"ZX c #DCE9A4",
/* pixels */
"#XsXiXaXpXpXpXpXpXpXaXaXpXpXpXpXaXaXpXpXpXpXpXpXpXpXpXpXaXpXpXaXiXiXiXaXaXaXaXaXpXpXpXpXpXpXpXpXpXpXpXpXpXpXpXpXpXpXpXpXpXpXpXpX",
"S.S.J.).0XyXtXtXtXtXtXtXtXtXtXtXtXtXtXtXtXtXtXtXtXtXtXtXtX8Xv.s.s.s.x.B.8XtXtXtXtXtXtXtXtXtXtXtXtXtXtXtXtXtXtXtXtXtXtXtXtXtXtXtX",
"S.S.S.S.S.J.3X0XyXrXrXtXtXtXtXtXtXtXtXtXtXtXtXtXtXrXeXV.s.s.B. X X XH.B.s.D.tXtXtXtXtXtXtXtXtXtXtXtXtXtXtXtXtXtXtXtXtXtXtXtXtXtX",
"S.S.S.S.S.S.S.S.K.).0XuXtXtXtXtXtXtXtXtXtXtXtXtXtXeXN.v.F.F. XH. X X X<X Xs.B.V.G.9XtXtXtXtXtXtXtXtXtXtXtXtXtXtXtXtXtXtXtXtXtXtX",
"S.S.S.S.J.S.S.S.S.S.S.K.3X0XyXtXtXtXtXtXtXtXtX9Xv.s.b D.F.F.G.F.F.F. X X X|.x.b.b.s.9XeXrXrXtXtXtXtXtXtXtXtXtXrXtXtXtXtXtXtXtXtX",
"S.S.S.S.S.S.S.S.S.S.S.S.S.S.I.).0XuXtXtXtXtXtXx.b.F.D.D.D.D.A.D.F.D.F.F.#.-.[ |.<XB.v s.s.G.tXtXtXtXtXtXtXtXtXtXtXtXtXtXtXtXtXtX",
"4X3X3X3X3X3X3X4X3X3X3X3X4X3X3X3X3X3XL.H.1XB.x.s.|.sXK.V.V.V.V.V.V.V.Z.lX' ^ Q }.<X XA.F.D.b B.9XtXtXtXtXtXtXtXtXtXtXtXtXtXtXtXtX",
"aXtXtXtXtXtXtXtXtXtXtXtXtXtXtXtXtXD.b b b v.|.|. XMXkXC.M.N.M.N.N.V.S.MXT ~ ) }.<X X XH.F.G.x.s.9XtXtXtXtXtXtXtXtXtXtXtXtXtXtXtX",
"aXtXtXtXtXtXtXtXtXtXtXtXtXtXtXtX).s.|.|.6X6X6X XV.N.z.M.f.f.f.M.g.v.N.S.b.{ }.sXsX<X XH.D.G. Xv.s.<X4XqXtXtXtXtXtXtXtXtXtXtXtXtX",
"aXtXtXtXtXtXtXtXtXtXtXtXtXtXtXeXx.|.6XsX#X|.A.V.M.f.f.M.(.z.d.s.| ..M M.N.V.bXCX.X X<XF.C.A.G.F.B.r.q t M.uXtXtXrXtXtXtXtXtXtXtX",
"aXrXtXtXtXtXtXtXtXtXtXtXrXrXB.s.v.6XdX(.g.N.N.f.f.d.a.].ZXzXT.l _ _ U h.M.N.I.dXF.H. XV.I.C.A.F.<XG.q.q.9 M.tXtXtXtXtXtXtXtXtXtX",
"aXtXtXtXtXtXtXtXtXtX).h.a.b x.|. XdX$Xf.B.N.h.s.d.u.e.T.BX].T.l ^ ^ [ a.M.M.V.V.D.F.H.N.(.C.V.D. X<Xt.q.r y 9XtXtXtXtXtXtXtXtXtX",
"aXtXtXtXtXtXtXtXrXJ.v h.Z..X|.|.|.dX$Xd.C.M $.U x e.e.e.Y.W.e.e.k @.VXhXd.g.N.C.D.F.D.z.bXP.M.V.F. Xt.r r q 8XtXtXtXtXtXtXtXtXtX",
"aXtXtXtXtXtXtXtX9Xv h.D.fXZXfXZ.#XbXP.d.g.[ / ^ j e.e.e.u.u.e.e.e.T.VXzXz.f.M.V.V.F.V.d.bX(.g.N.G.D.q.e q.< u ).uXtXtXtXtXtXtXtX",
"aXtXtXtXtXtXtXrX).v g.|.fXnX#XI.bX(.u.a.g.j L X.c e.e.e.e.u.e.e.e.e.Y.^.BXm.M.N.V.V.a.l.bXP.n o.c.D.w.e r r 0 y S.3X3X0XqXyXrXtX",
"pXtXtXtXtXtXtXtX).v d.|.$XZ.v.#XbXz.d.M.g.d.V c a e.e.e.e.e.e.e.e.e.e.u.T.d.d.w.w.w.u.$XjXx T _ U A.V.e e r r , v.J.K.K.K.L.3X<X",
"pXtXtXtXtXtXtXtX1Xu r.M.A.B.I.$XP.l.f.M.f.d.r.e.e.e.e.e.e.e.e.e.e.e.e.e.n n r.3 5 q.jX].u.c W ^ Y Z.M.8 e d d 0 s ).yXyXyXuXyXyX",
"pXtXtXtXtXtXtXtXN.u w.v.V.x.kXP.d.a.f.N.f.(.T.e.e.e.e.e.u.e.e.u.e.r.e.l ' T & 3 3 i.[.5 q.a { [ m D.f.7 d d p.NXp.r.tXtXtXtXtXtX",
"pXtXtXtXtXtXtX9Xv r.6 f.N.k.kXv.d.r.f.M.P.VXzXr.e.e.e.r.r.e.].Y.e.e.i [ ^ ^ I q W.bXU.w w.w.u.h.B.D.H.4 _.`.p.NXp.t yXtXtXtXtXtX",
"pXtXtXtXtXtXtX9Xu r.w.N.v.n >.!.z.r.r.r.d.(.].W.e.r.e.e.e.e.[.].T.j.r.c X.6.:.D D f 7 5 w.zXjXM.V.G.H.t `.zXe r r a uXtXtXtXtXtX",
"pXtXtXtXtXtXtXrXv i w.v.M X.' U Q.^.u.t q.r.l.Y.e.e.e.e.e.e.T.BX].u.p - 2 >.A > - - 8 5 y.BXMX$XA.F..Xf 9 0 9 e , D.tXtXtXtXtXtX",
"pXtXtXtXrXtXtXeXv w.5 d.V ^ ^ X.2 f ^.p w 3 3 w.e.e.e.e.e.e.l.^.Y.e.4 - D D @ @ & h & ; i l.f.(.J.sX$X1 1 2 1 d ; yXtXtXtXtXtXtX",
"pXtXtXtXtXtXtXD.a zX{.3 v [ X.{ i 4 D [.W.R.9 - 4 e.e.r.e.e.w.e.w.w.- S s : $ -.vXvX8.6.* x f.J.$XD s : T _ P 9 ; 1XtXtXtXtXtXtX",
"pXtXtXtXtXtXtXN.j.BXzX`.i s.x U.R.w 7 s s S ~.p q 4 i w.w.y.; 4 4 ; U.~.> O J _ 0.^ ! ^ 8.U n bX~.@ : : K ! I 9 , G.tXtXtXtXtXtX",
"pXtXtXtXtXtXtX<Xu u.d f < i i U.`.R.8 7 < > s '.D S = - - - y hXE.~.~.1 = H E R E R E Q ! ( I A : @ : > & ] 2 8 q 2XtXtXtXtXtXtX",
"pXtXtXtXtXtXtXtXC.; 8 7 - - y [.mXi.8 7 < , + F # D ^.f f W.hXgX;.:.l ; # J R R R R R R Q Q J + : > : > , < 9 e p 1XtXtXtXtXtXtX",
"pXtXtXtXtXtXtXtXtXn.R.9 0 7 3 U.W.t 8 1 =.* l -X5.h >.hXhXgX>.+X@X&X4.;.* R E Q Q E E R R E R X G BXs > , < 9 d S 9XtXtXtXtXtXtX",
"pXtXtXtXtXtXtXtXtXm.[.p.0 0 0 t t t w * _ ^ X.@X&X2.XX2.+X+X:X,X>X;X&X4.I Q ! Q ! Q Q Q R E J X G {.{.1 9 9 f E.J.tXtXtXtXtXtXtX",
"pXtXtXtXtXtXtXtXtX1Xn./.R.r 0 `.`.q , & ^ ( * :.*.<.=X=X:X>XcXcXxX;X&XXXI R / ^ / / ! ! E E H + G : : G [./.^.S.tXtXtXtXtXtXtXtX",
"pXtXtXtXtXtX0Xm.c x 3Xn hXi.r NXBXf > : g & + 2 &.,.-X>X,X,XcX,X>X;X&XXX=.K 8.7.7.` / ! Q J $ @ s : 9 '.Q.S.2XtXtXtXtXtXtXtXtXtX",
"pXtXtXtX9X4XN T -.I .X4X/.bXp.`.{._., , = > = = l <.;X>X,XxXcXcX>X;X&XXX<.I 6.9.9.7.` ! Q % @ = @ f hX~.<XtXtXtXtXtXtXtXtXtXtXtX",
"aXtXeX2X0XeX{ _ 0.' N tXS./.lXjXhXp.d , > , f > : F &X2.-XxX&X;.@X;X&XXX1...I { o.9.` J % @ @ > '.hXn.4X<X9XtXtXtXtXtXtXtXtXtXtX",
"aX9X1XeXtXtXN ~ ^ L b.tXtX).m.m.n./.[.W.f ].nX[.W.>.O.. h >Xk   h -X&XXX4.<. .Z k } } >.f f S [./.n.)..X& ]  XrXtXtXtXtXtXtXtXtX",
"wX1XrXtXtXtX<Xo.] c.rXtXtXtXtXtXyX).n.gXlXhX~./.[.>.k   o %X&   o &X-XXX1.<...A /.~.Q.jXlXlXhX!.J.rXyX{ ' ~ m rXtXtXtXtXtXtXtXrX",
"wXtXtXtXtXtXtXeXeXtXtXtXtXtXG.1XtXtXuXD.P.C.1X<XD.B k   o XX&   o @X&X4.1.%...x.C.h.3XS.m.P.J.9XtXtXyX{ ( Y N tXtXtXtXtXtXyXqX5X",
"aXtXtXtXtXtXtXtXtXtXtXtXtXtXc g c. XtXtXtXtXtXtXrXc.k   o &X&   o &X&XOX1.<. .g B ;.V 0XeXeXrXrXtXtXtX3Xm N 0XtXrXuXyX0X5X5XqXuX",
"aXtXtXtXtXtXtXtXtXtXtXtXrXc.* H R H b.tXtXtXtXtXuX#.O.. h xXk   h ;X&X&X1.:.,.>.>.>.Z Z.0X4X4X4X7X0X7X0X4X4X5X5X4X4XwXyXyXtXtXtX",
"aXrXtXtXtXtXtXtXtXtXtXtXF.-.0.6.Q E P 8XtXtXtXtXrXC @X:.+XxX-X,.&X>X&X4.4.&X;X:.;.=.h m.tXtXtXuXyXyXyXyXyXyXyXuXtXtXtXtXrXrXtXtX",
"aXtXtXtXtXtXtXtXtXtXtXtXc.E ^ ^ E E L Z.tXtXtXqXB.B +X+X+X-XcXcXxX;X&X4.-X-X4.:.Z Z h <XtXqX8XuXtXtXtXtXtXtXtXtXtXtXtXtXtXtXtXtX",
"aXtXtXtXtXtXtXtXtXtXtXtXb.J E R R ^ Y |.tXtXtXx.,.@X&X@X@X+XcXcX>X;X&X&X4.4.4.<.k h v.tXb.I I m 8XtXtXtXtXtXtXtXtXtXtXtXtXtXtXtX",
"aXtXtXtXtXtXtXtXtXtXtXtX2XP Q Q ^ 7.[ 8XtXtXtX<Xn.| 2.2.2.@XcXcXxX;X&X4.4.<.$.k M ).tX4X-._ ^ ) c.rXtXtXtXtXtXtXtXtXtXtXtXtXtXtX",
"aXtXtXtXtXtXtXtXtXtXtXtXtXZ.P ) 6.X.b.tXtXtXtXtXuXC &X-X5.+XcXxX>X;X;X4.1.:.| M tXtXtXL.-.' ! ) o.uXtXtXtXtXtXtXtXtXtXtXtXtXtXtX",
"pXtXtXtXtXtXtXtXtXtXtXtXtXtX X#.N |.eX8XF.7XtXtXuX#.=X@XO o ;XxXvX;X&X4.4.<...b.tXtXtXA.& ~ ^ Y b.tXtXtXtXtXtXtXtXtXtXtXtXtXtXtX",
"pXtXtXtXtXtXtXtXtXtXtXtXtXtXtXtXrXtX2X{ U j 2XtXyXc.=X&..   +XxX>X;X;X4.2.<...b.tXtXtX1Xv.] P N eXtXtXtXtXtXtXtXtXtXtXtXtXtXtXtX",
"pXtXtXtXtXtXtXtXtXtXtXtXtXtXtXtXtXtXb.J ^ L b.tXeX#.:X&..   ,.cX>X=X&X4.4.<...m.tXtXtXtXtX9X8XrXtXtXtXtXtXtXtXtXtXtXtXtXtXtXtXtX",
"pXtXtXtXtXtXtXtXtXtXtXtXtXtXtXtXtXtXZ.J E J |.tXyX#.;X1..   5.cX>X:X&X4.4.<...c.tXtXtXtXtXtXtXtXtXtXtXtXtXtXtXtXtXtXtXtXtXtXtXtX",
"aXtXtXtXtXtXtXtXtXtXtXtXtXtXtXtXtXtXeXN I N 9XtXqX#.:XOXo X -XcX>X;X&X%X3.<...n.tXtXtXtXtXtXtXtXtXtXtXtXtXtXtXtXtXtXtXtXtXtXtXtX",
"iXyXtXtXtXtXtXtXtXtXtXtXtXtXtXtXtXtXtXtXeXtXtXtXqX#.;X;X2.,.xXcX>X;X&X4.1.<...c.tXtXtXtXtXtXtXtXtXtXtXtXtXtXtXtXtXtXtXtXtXtXtXtX",
"#XK.3X0XyXuXrXtXtXtXtXtXtXtXtXtXtXtXtXtXtXtXtXtX8X#.:X>XxXcXcXcX>X;X-XXX1.<...c.tXtXtXtXtXtXtXtXtXtXtXtXtXtXtXtXtXtXtXtXtXtXtXtX",
"#XS.S.S.J.L.4XqXuXtXrXrXtXtXtXtXtXtXtXtXtXtXyX4Xx.4.;X>XxXxXcXcX>X;X&X4.1.<...V 1XrXtXtXtXtXtXtXtXtXtXtXtXtXtXtXtXtXtXtXtXtXtXtX",
"#XS.S.S.S.S.S.S.K.3X0XyXrXrXtXtXtXtXtXtXtX1XM l ;.OX&X>XxX;XxXcX>X&X&X4.1.<...z h M 1XtXtXtXtXtXtXtXtXtXtXtXtXtXtXtXtXtXtXtXtXtX",
"I.S.S.S.S.S.S.S.S.S.S.K.L.5XqXuXtXtXtXtXyXb z <.4.2.*X;X;X+XxXcX>X5.4.4.1.<. .....z b uXtXtXtXtXtXtXtXtXtXtXtXtXtXtXtXtXtXtXtXtX",
"#XS.S.S.S.S.S.S.S.S.S.S.S.S.S.K.3X0XyX8XC @.&.@.2.XX*X=X&X+XcXcX>X4.,.4.<.<.:. . ... .c.eXrXtXtXtXtXtXtXtXtXtXtXtXtXtXtXtXtXtXtX",
"sX3X0X0X5X5X0X0X5X0X5XwX5X5X5X5X4X4XL.x.| &.@.2.3.oX%X%X4.-XcXxX;X4.:.<.&.$.$.+. . .+.Z K.tXtXtXtXtXtXtXtXtXtXtXtXtXtXtXtXtXtXtX",
"aXtXtXtXtXtXtXtXtXtXtXtXtXtXrXtXtXtX3Xm.b g @.*.*.oX%X%X,.-XxX>X-X1.=.=.%.$.$.....| c b.qXtXtXtXtXtXtXtXtXtXtXtXtXtXtXtXtXtXtXtX",
"aXtXtXtXtXtXtXtXtXtXtXtXtXtXtXtXtXtX3XS.x.B *.*.*.3.@.B c @X>X;X&X1.V v.B  .+.+.....B 1XtXtXtXtXtXtXtXtXtXtXtXtXtXtXtXtXtXtXtXtX",
"pXtXtXtXtXtXtXtXtXtXtXtXtXtXtXtXtXtX3XS.k.z O.| l V x.P.s.,.;X-X4.:.x.tXyXK.c.B | | l K.tXtXtXtXtXtXtXtXtXtXtXtXtXtXtXtXtXtXtXtX",
"pXtXtXtXtXtXtXtXtXtXtXtXtXtXtXtXtXtX3XS.S.x.s.n.S.S.S.S.S.B @X@X1.z m.).3XqXuX9X3XL.1XtXtXtXtXtXtXtXtXtXtXtXtXtXtXtXtXtXtXtXtXtX",
"pXtXtXtXtXtXtXtXtXtXtXtXtXtXtXtXtXtX3XJ.J.J.J.J.S.K.J.J.S.x.;.2. .M J.S.J.S.L.3X0XyXuXrXtXtXtXtXtXtXtXtXtXtXtXtXtXtXtXtXtXtXtXtX",
"pXtXtXtXtXtXtXtXtXtXtXtXtXtXtXtXtXtXuXyXeXeXyXyXyXyXyXyXyXyXJ.M v.qXyXyXyXyXyXyXL.K.L.3X8XqXuXtXtXtXtXtXtXtXtXtXtXtXtXtXtXtXtXtX",
"pXtXtXtXtXtXtXtXtXtXtXtXtXtXtXtXtXtXtXtXtXtXtXtXtXtXtXtXtXtXtXtXtXtXtXtXtXtXtXtX3XS.S.S.S.K.K.L.5XwXyXuXrXtXtXrXtXtXtXtXtXtXtXtX",
"pXtXtXtXtXtXtXtXtXtXtXrXtXtXtXtXtXtXtXtXtXtXtXtXtXtXtXtXtXtXtXtXtXtXtXtXtXtXtXtX3XS.S.S.S.S.S.S.S.S.J.K.3X5XqXuXtXtXtXtXtXtXtXtX",
"pXtXtXtXtXrXtXtXtXtXtXtXtXtXtXtXtXtXtXtXtXtXtXtXtXtXtXtXtXtXtXtXtXtXtXtXtXtXtXtX3XS.S.S.S.S.S.S.S.S.S.S.S.S.S.J.L.3X0XyXuXtXtXtX",
"pXtXtXtXtXtXtXtXtXtXtXtXtXtXtXtXtXtXtXtXtXtXtXtXtXtXtXtXtXtXtXtXtXtXtXtXtXtXtXtX3XS.S.S.S.S.J.S.S.S.S.S.S.S.S.S.S.S.S.J.K.3X5XqX"
};
