/* XPM */
static char *_f66b30d2fe04d0eec25339aee3ae8e34aqq95D0XB8VAewf[] = {
/* columns rows colors chars-per-pixel */
"64 64 5 1 ",
"  c None",
". c black",
"X c #010101",
"o c #020202",
"O c gray1",
/* pixels */
"                                                                ",
"                                                                ",
"                                                                ",
"                                                                ",
"                                                                ",
"                                                                ",
"                                                                ",
"                                                                ",
"                                                                ",
"                                                                ",
"                                                                ",
"                                                                ",
"                                                                ",
"                                                                ",
"                                                                ",
"                                                                ",
"                                                                ",
"                                                                ",
"                                                                ",
"                                                                ",
"                                                                ",
"                                                                ",
"                                                                ",
"                                                                ",
"                   XXXXXXXXXX        XOXXO                      ",
"                  XXXXXXXXXXXX     XXXXXXXOX                    ",
"                  XXXXXXXXXXXX    XXXXXOXXXXO                   ",
"                       XXX       XXXX    XXXX                   ",
"                       XXX      OXXX      XXX                   ",
"                       XXX      XXX                             ",
"                       XXX      XXX                             ",
"                       XXX      XXX     XXXXX                   ",
"                       XXX      XXX    XXXXXXX                  ",
"                       XXX      XXX    XXXXXXX                  ",
"                       XXX      XXX        XXX                  ",
"                       XXX      XXXX       XXX                  ",
"                       XXX       XXXX     OXXX                  ",
"                       XXX        XXXXXXXXXXXX                  ",
"                       XXX         XXXXXXXXX                    ",
"                        X            OXXXX                      ",
"                                                                ",
"                                                                ",
"                                                                ",
"                                                                ",
"                                                                ",
"                                                                ",
"                                                                ",
"                                                                ",
"                                                                ",
"                                                                ",
"                                                                ",
"                                                                ",
"                                                                ",
"                                                                ",
"                                                                ",
"                                                                ",
"                                                                ",
"                                                                ",
"                                                                ",
"                                                                ",
"                                                                ",
"                                                                ",
"                                                                ",
"                                                                "
};
